M48
; DRILL file {KiCad 8.0.7} date 2025-06-01T16:37:22+0900
; FORMAT={-:-/ absolute / metric / decimal}
; #@! TF.CreationDate,2025-06-01T16:37:22+09:00
; #@! TF.GenerationSoftware,Kicad,Pcbnew,8.0.7
; #@! TF.FileFunction,Plated,1,2,PTH
FMAT,2
METRIC
; #@! TA.AperFunction,Plated,PTH,ViaDrill
T1C0.300
; #@! TA.AperFunction,Plated,PTH,ComponentDrill
T2C0.850
; #@! TA.AperFunction,Plated,PTH,ComponentDrill
T3C0.900
; #@! TA.AperFunction,Plated,PTH,ComponentDrill
T4C1.000
; #@! TA.AperFunction,Plated,PTH,ComponentDrill
T5C1.200
; #@! TA.AperFunction,Plated,PTH,ComponentDrill
T6C1.400
; #@! TA.AperFunction,Plated,PTH,ComponentDrill
T7C1.520
; #@! TA.AperFunction,Plated,PTH,ViaDrill
T8C3.000
%
G90
G05
T1
X114.325Y-80.162
X116.513Y-71.987
X118.161Y-96.469
X122.657Y-84.811
X123.8Y-113.817
X141.072Y-113.589
X141.199Y-112.497
X146.101Y-91.923
X154.026Y-117.762
X156.464Y-77.673
X157.201Y-88.671
X160.401Y-99.924
T2
X162.709Y-76.073
X162.709Y-78.613
X162.709Y-82.347
X162.709Y-84.887
X162.735Y-88.621
X162.735Y-91.161
X162.763Y-69.926
X162.763Y-72.466
X162.836Y-63.83
X162.836Y-66.37
X162.865Y-94.666
X162.865Y-97.206
X170.329Y-76.073
X170.329Y-78.613
X170.329Y-82.347
X170.329Y-84.887
X170.355Y-88.621
X170.355Y-91.161
X170.383Y-69.926
X170.383Y-72.466
X170.456Y-63.83
X170.456Y-66.37
X170.485Y-94.666
X170.485Y-97.206
T3
X126.035Y-70.053
X126.035Y-72.593
X126.035Y-75.133
X126.035Y-77.673
X126.035Y-80.213
X126.035Y-82.753
X126.035Y-85.293
X126.035Y-87.833
X126.035Y-90.373
X126.035Y-92.913
X126.035Y-95.453
X126.035Y-97.993
X126.035Y-100.533
X126.035Y-103.073
X126.035Y-105.613
X126.035Y-108.153
X126.035Y-110.693
X126.035Y-113.233
X126.035Y-115.773
X151.435Y-70.053
X151.435Y-72.593
X151.435Y-75.133
X151.435Y-77.673
X151.435Y-80.213
X151.435Y-82.753
X151.435Y-85.293
X151.435Y-87.833
X151.435Y-90.373
X151.435Y-92.913
X151.435Y-95.453
X151.435Y-97.993
X151.435Y-100.533
X151.435Y-103.073
X151.435Y-105.613
X151.435Y-108.153
X151.435Y-110.693
X151.435Y-113.233
X151.435Y-115.773
X158.521Y-110.515
X158.521Y-113.055
X173.304Y-110.434
X173.304Y-112.974
X188.849Y-110.719
X188.849Y-113.259
T4
X132.232Y-115.931
X134.772Y-115.931
X137.312Y-115.931
X139.852Y-115.931
X142.392Y-115.931
X144.932Y-115.931
T5
X173.66Y-80.493
X173.838Y-68.453
X174.041Y-93.269
X188.9Y-80.493
X189.078Y-68.453
X189.281Y-93.269
T6
X197.917Y-71.36
X197.917Y-76.36
X197.917Y-81.36
X197.917Y-86.36
T7
X110.363Y-71.476
X110.363Y-76.556
T8
X111.43Y-114.96
X111.455Y-64.186
X197.688Y-64.186
X197.688Y-114.884
T4
G00X109.525Y-92.015
M15
G01X109.525Y-94.015
M16
G05
G00X111.525Y-97.715
M15
G01X113.525Y-97.715
M16
G05
G00X115.725Y-91.765
M15
G01X115.725Y-94.265
M16
G05
M30
