%TF.GenerationSoftware,KiCad,Pcbnew,8.0.7*%
%TF.CreationDate,2025-06-01T16:35:16+09:00*%
%TF.ProjectId,ESP32 RST Monitoring,45535033-3220-4525-9354-204d6f6e6974,rev?*%
%TF.SameCoordinates,Original*%
%TF.FileFunction,Legend,Bot*%
%TF.FilePolarity,Positive*%
%FSLAX46Y46*%
G04 Gerber Fmt 4.6, Leading zero omitted, Abs format (unit mm)*
G04 Created by KiCad (PCBNEW 8.0.7) date 2025-06-01 16:35:16*
%MOMM*%
%LPD*%
G01*
G04 APERTURE LIST*
%ADD10C,0.150000*%
%ADD11C,0.120000*%
G04 APERTURE END LIST*
D10*
X113107694Y-81876419D02*
X113107694Y-80876419D01*
X113107694Y-80876419D02*
X112869599Y-80876419D01*
X112869599Y-80876419D02*
X112726742Y-80924038D01*
X112726742Y-80924038D02*
X112631504Y-81019276D01*
X112631504Y-81019276D02*
X112583885Y-81114514D01*
X112583885Y-81114514D02*
X112536266Y-81304990D01*
X112536266Y-81304990D02*
X112536266Y-81447847D01*
X112536266Y-81447847D02*
X112583885Y-81638323D01*
X112583885Y-81638323D02*
X112631504Y-81733561D01*
X112631504Y-81733561D02*
X112726742Y-81828800D01*
X112726742Y-81828800D02*
X112869599Y-81876419D01*
X112869599Y-81876419D02*
X113107694Y-81876419D01*
X111583885Y-81876419D02*
X112155313Y-81876419D01*
X111869599Y-81876419D02*
X111869599Y-80876419D01*
X111869599Y-80876419D02*
X111964837Y-81019276D01*
X111964837Y-81019276D02*
X112060075Y-81114514D01*
X112060075Y-81114514D02*
X112155313Y-81162133D01*
X120696019Y-84605295D02*
X121505542Y-84605295D01*
X121505542Y-84605295D02*
X121600780Y-84652914D01*
X121600780Y-84652914D02*
X121648400Y-84700533D01*
X121648400Y-84700533D02*
X121696019Y-84795771D01*
X121696019Y-84795771D02*
X121696019Y-84986247D01*
X121696019Y-84986247D02*
X121648400Y-85081485D01*
X121648400Y-85081485D02*
X121600780Y-85129104D01*
X121600780Y-85129104D02*
X121505542Y-85176723D01*
X121505542Y-85176723D02*
X120696019Y-85176723D01*
X121696019Y-86176723D02*
X121696019Y-85605295D01*
X121696019Y-85891009D02*
X120696019Y-85891009D01*
X120696019Y-85891009D02*
X120838876Y-85795771D01*
X120838876Y-85795771D02*
X120934114Y-85700533D01*
X120934114Y-85700533D02*
X120981733Y-85605295D01*
X187653819Y-116012933D02*
X187177628Y-115679600D01*
X187653819Y-115441505D02*
X186653819Y-115441505D01*
X186653819Y-115441505D02*
X186653819Y-115822457D01*
X186653819Y-115822457D02*
X186701438Y-115917695D01*
X186701438Y-115917695D02*
X186749057Y-115965314D01*
X186749057Y-115965314D02*
X186844295Y-116012933D01*
X186844295Y-116012933D02*
X186987152Y-116012933D01*
X186987152Y-116012933D02*
X187082390Y-115965314D01*
X187082390Y-115965314D02*
X187130009Y-115917695D01*
X187130009Y-115917695D02*
X187177628Y-115822457D01*
X187177628Y-115822457D02*
X187177628Y-115441505D01*
X186653819Y-116346267D02*
X186653819Y-117012933D01*
X186653819Y-117012933D02*
X187653819Y-116584362D01*
X157377019Y-115992533D02*
X156900828Y-115659200D01*
X157377019Y-115421105D02*
X156377019Y-115421105D01*
X156377019Y-115421105D02*
X156377019Y-115802057D01*
X156377019Y-115802057D02*
X156424638Y-115897295D01*
X156424638Y-115897295D02*
X156472257Y-115944914D01*
X156472257Y-115944914D02*
X156567495Y-115992533D01*
X156567495Y-115992533D02*
X156710352Y-115992533D01*
X156710352Y-115992533D02*
X156805590Y-115944914D01*
X156805590Y-115944914D02*
X156853209Y-115897295D01*
X156853209Y-115897295D02*
X156900828Y-115802057D01*
X156900828Y-115802057D02*
X156900828Y-115421105D01*
X156377019Y-116897295D02*
X156377019Y-116421105D01*
X156377019Y-116421105D02*
X156853209Y-116373486D01*
X156853209Y-116373486D02*
X156805590Y-116421105D01*
X156805590Y-116421105D02*
X156757971Y-116516343D01*
X156757971Y-116516343D02*
X156757971Y-116754438D01*
X156757971Y-116754438D02*
X156805590Y-116849676D01*
X156805590Y-116849676D02*
X156853209Y-116897295D01*
X156853209Y-116897295D02*
X156948447Y-116944914D01*
X156948447Y-116944914D02*
X157186542Y-116944914D01*
X157186542Y-116944914D02*
X157281780Y-116897295D01*
X157281780Y-116897295D02*
X157329400Y-116849676D01*
X157329400Y-116849676D02*
X157377019Y-116754438D01*
X157377019Y-116754438D02*
X157377019Y-116516343D01*
X157377019Y-116516343D02*
X157329400Y-116421105D01*
X157329400Y-116421105D02*
X157281780Y-116373486D01*
X122797866Y-114100780D02*
X122845485Y-114148400D01*
X122845485Y-114148400D02*
X122988342Y-114196019D01*
X122988342Y-114196019D02*
X123083580Y-114196019D01*
X123083580Y-114196019D02*
X123226437Y-114148400D01*
X123226437Y-114148400D02*
X123321675Y-114053161D01*
X123321675Y-114053161D02*
X123369294Y-113957923D01*
X123369294Y-113957923D02*
X123416913Y-113767447D01*
X123416913Y-113767447D02*
X123416913Y-113624590D01*
X123416913Y-113624590D02*
X123369294Y-113434114D01*
X123369294Y-113434114D02*
X123321675Y-113338876D01*
X123321675Y-113338876D02*
X123226437Y-113243638D01*
X123226437Y-113243638D02*
X123083580Y-113196019D01*
X123083580Y-113196019D02*
X122988342Y-113196019D01*
X122988342Y-113196019D02*
X122845485Y-113243638D01*
X122845485Y-113243638D02*
X122797866Y-113291257D01*
X122464532Y-113196019D02*
X121845485Y-113196019D01*
X121845485Y-113196019D02*
X122178818Y-113576971D01*
X122178818Y-113576971D02*
X122035961Y-113576971D01*
X122035961Y-113576971D02*
X121940723Y-113624590D01*
X121940723Y-113624590D02*
X121893104Y-113672209D01*
X121893104Y-113672209D02*
X121845485Y-113767447D01*
X121845485Y-113767447D02*
X121845485Y-114005542D01*
X121845485Y-114005542D02*
X121893104Y-114100780D01*
X121893104Y-114100780D02*
X121940723Y-114148400D01*
X121940723Y-114148400D02*
X122035961Y-114196019D01*
X122035961Y-114196019D02*
X122321675Y-114196019D01*
X122321675Y-114196019D02*
X122416913Y-114148400D01*
X122416913Y-114148400D02*
X122464532Y-114100780D01*
X172159819Y-115911333D02*
X171683628Y-115578000D01*
X172159819Y-115339905D02*
X171159819Y-115339905D01*
X171159819Y-115339905D02*
X171159819Y-115720857D01*
X171159819Y-115720857D02*
X171207438Y-115816095D01*
X171207438Y-115816095D02*
X171255057Y-115863714D01*
X171255057Y-115863714D02*
X171350295Y-115911333D01*
X171350295Y-115911333D02*
X171493152Y-115911333D01*
X171493152Y-115911333D02*
X171588390Y-115863714D01*
X171588390Y-115863714D02*
X171636009Y-115816095D01*
X171636009Y-115816095D02*
X171683628Y-115720857D01*
X171683628Y-115720857D02*
X171683628Y-115339905D01*
X171159819Y-116768476D02*
X171159819Y-116578000D01*
X171159819Y-116578000D02*
X171207438Y-116482762D01*
X171207438Y-116482762D02*
X171255057Y-116435143D01*
X171255057Y-116435143D02*
X171397914Y-116339905D01*
X171397914Y-116339905D02*
X171588390Y-116292286D01*
X171588390Y-116292286D02*
X171969342Y-116292286D01*
X171969342Y-116292286D02*
X172064580Y-116339905D01*
X172064580Y-116339905D02*
X172112200Y-116387524D01*
X172112200Y-116387524D02*
X172159819Y-116482762D01*
X172159819Y-116482762D02*
X172159819Y-116673238D01*
X172159819Y-116673238D02*
X172112200Y-116768476D01*
X172112200Y-116768476D02*
X172064580Y-116816095D01*
X172064580Y-116816095D02*
X171969342Y-116863714D01*
X171969342Y-116863714D02*
X171731247Y-116863714D01*
X171731247Y-116863714D02*
X171636009Y-116816095D01*
X171636009Y-116816095D02*
X171588390Y-116768476D01*
X171588390Y-116768476D02*
X171540771Y-116673238D01*
X171540771Y-116673238D02*
X171540771Y-116482762D01*
X171540771Y-116482762D02*
X171588390Y-116387524D01*
X171588390Y-116387524D02*
X171636009Y-116339905D01*
X171636009Y-116339905D02*
X171731247Y-116292286D01*
X128916819Y-111218066D02*
X129631104Y-111218066D01*
X129631104Y-111218066D02*
X129773961Y-111170447D01*
X129773961Y-111170447D02*
X129869200Y-111075209D01*
X129869200Y-111075209D02*
X129916819Y-110932352D01*
X129916819Y-110932352D02*
X129916819Y-110837114D01*
X129250152Y-112122828D02*
X129916819Y-112122828D01*
X128869200Y-111884733D02*
X129583485Y-111646638D01*
X129583485Y-111646638D02*
X129583485Y-112265685D01*
X129300266Y-71423419D02*
X129633599Y-70947228D01*
X129871694Y-71423419D02*
X129871694Y-70423419D01*
X129871694Y-70423419D02*
X129490742Y-70423419D01*
X129490742Y-70423419D02*
X129395504Y-70471038D01*
X129395504Y-70471038D02*
X129347885Y-70518657D01*
X129347885Y-70518657D02*
X129300266Y-70613895D01*
X129300266Y-70613895D02*
X129300266Y-70756752D01*
X129300266Y-70756752D02*
X129347885Y-70851990D01*
X129347885Y-70851990D02*
X129395504Y-70899609D01*
X129395504Y-70899609D02*
X129490742Y-70947228D01*
X129490742Y-70947228D02*
X129871694Y-70947228D01*
X128347885Y-71423419D02*
X128919313Y-71423419D01*
X128633599Y-71423419D02*
X128633599Y-70423419D01*
X128633599Y-70423419D02*
X128728837Y-70566276D01*
X128728837Y-70566276D02*
X128824075Y-70661514D01*
X128824075Y-70661514D02*
X128919313Y-70709133D01*
D11*
%TO.C,D1*%
X110369600Y-82271600D02*
X115879600Y-82271600D01*
X110369600Y-85571600D02*
X115879600Y-85571600D01*
X115879600Y-85571600D02*
X115879600Y-82271600D01*
%TO.C,U1*%
X116977400Y-80870800D02*
X116977400Y-74450800D01*
X117247400Y-80870800D02*
X116977400Y-80870800D01*
X123607400Y-80870800D02*
X123877400Y-80870800D01*
X123877400Y-80870800D02*
X123877400Y-74450800D01*
X124037400Y-82940800D02*
X123567400Y-82600800D01*
X124037400Y-82260800D01*
X124037400Y-82940800D01*
G36*
X124037400Y-82940800D02*
G01*
X123567400Y-82600800D01*
X124037400Y-82260800D01*
X124037400Y-82940800D01*
G37*
%TO.C,R7*%
X188114000Y-116406664D02*
X188114000Y-115952536D01*
X189584000Y-116406664D02*
X189584000Y-115952536D01*
%TO.C,R5*%
X157837200Y-116386264D02*
X157837200Y-115932136D01*
X159307200Y-116386264D02*
X159307200Y-115932136D01*
%TO.C,C3*%
X122471548Y-114936600D02*
X122994052Y-114936600D01*
X122471548Y-116406600D02*
X122994052Y-116406600D01*
%TO.C,R6*%
X172620000Y-116305064D02*
X172620000Y-115850936D01*
X174090000Y-116305064D02*
X174090000Y-115850936D01*
%TO.C,J4*%
X130902000Y-114471400D02*
X130902000Y-105841400D01*
X130902000Y-117041400D02*
X130902000Y-115931400D01*
X131022000Y-114471400D02*
X131022000Y-105841400D01*
X131140095Y-114471400D02*
X131140095Y-105841400D01*
X131258190Y-114471400D02*
X131258190Y-105841400D01*
X131376285Y-114471400D02*
X131376285Y-105841400D01*
X131494380Y-114471400D02*
X131494380Y-105841400D01*
X131612475Y-114471400D02*
X131612475Y-105841400D01*
X131730570Y-114471400D02*
X131730570Y-105841400D01*
X131848665Y-114471400D02*
X131848665Y-105841400D01*
X131872000Y-114821400D02*
X131872000Y-114471400D01*
X131966760Y-114471400D02*
X131966760Y-105841400D01*
X132084855Y-114471400D02*
X132084855Y-105841400D01*
X132202950Y-114471400D02*
X132202950Y-105841400D01*
X132232000Y-117041400D02*
X130902000Y-117041400D01*
X132321045Y-114471400D02*
X132321045Y-105841400D01*
X132439140Y-114471400D02*
X132439140Y-105841400D01*
X132557235Y-114471400D02*
X132557235Y-105841400D01*
X132592000Y-114821400D02*
X132592000Y-114471400D01*
X132675330Y-114471400D02*
X132675330Y-105841400D01*
X132793425Y-114471400D02*
X132793425Y-105841400D01*
X132911520Y-114471400D02*
X132911520Y-105841400D01*
X133029615Y-114471400D02*
X133029615Y-105841400D01*
X133147710Y-114471400D02*
X133147710Y-105841400D01*
X133265805Y-114471400D02*
X133265805Y-105841400D01*
X133383900Y-114471400D02*
X133383900Y-105841400D01*
X133502000Y-114471400D02*
X133502000Y-105841400D01*
X134412000Y-114881400D02*
X134412000Y-114471400D01*
X135132000Y-114881400D02*
X135132000Y-114471400D01*
X136042000Y-114471400D02*
X136042000Y-105841400D01*
X136952000Y-114881400D02*
X136952000Y-114471400D01*
X137672000Y-114881400D02*
X137672000Y-114471400D01*
X138582000Y-114471400D02*
X138582000Y-105841400D01*
X139492000Y-114881400D02*
X139492000Y-114471400D01*
X140212000Y-114881400D02*
X140212000Y-114471400D01*
X141122000Y-114471400D02*
X141122000Y-105841400D01*
X142032000Y-114881400D02*
X142032000Y-114471400D01*
X142752000Y-114881400D02*
X142752000Y-114471400D01*
X143662000Y-114471400D02*
X143662000Y-105841400D01*
X144572000Y-114881400D02*
X144572000Y-114471400D01*
X145292000Y-114881400D02*
X145292000Y-114471400D01*
X146262000Y-105841400D02*
X130902000Y-105841400D01*
X146262000Y-114471400D02*
X130902000Y-114471400D01*
X146262000Y-114471400D02*
X146262000Y-105841400D01*
%TO.C,R1*%
X128906536Y-71883600D02*
X129360664Y-71883600D01*
X128906536Y-73353600D02*
X129360664Y-73353600D01*
%TD*%
M02*
