%TF.GenerationSoftware,KiCad,Pcbnew,8.0.7*%
%TF.CreationDate,2025-06-01T16:37:25+09:00*%
%TF.ProjectId,ESP32 RST Monitoring,45535033-3220-4525-9354-204d6f6e6974,rev?*%
%TF.SameCoordinates,Original*%
%TF.FileFunction,Drillmap*%
%TF.FilePolarity,Positive*%
%FSLAX45Y45*%
G04 Gerber Fmt 4.5, Leading zero omitted, Abs format (unit mm)*
G04 Created by KiCad (PCBNEW 8.0.7) date 2025-06-01 16:37:25*
%MOMM*%
%LPD*%
G01*
G04 APERTURE LIST*
%ADD10C,0.050000*%
%ADD11C,0.200000*%
%ADD12C,0.100000*%
%ADD13C,0.120000*%
%ADD14C,0.140000*%
%ADD15C,0.152000*%
%ADD16C,0.300000*%
G04 APERTURE END LIST*
D10*
X10784840Y-6065520D02*
X20129500Y-6065520D01*
X20129500Y-11856720D01*
X10784840Y-11856720D01*
X10784840Y-6065520D01*
D11*
D12*
X11417540Y-8001240D02*
X11447540Y-8031240D01*
X11447540Y-8001240D02*
X11417540Y-8031240D01*
X11636319Y-7183699D02*
X11666319Y-7213699D01*
X11666319Y-7183699D02*
X11636319Y-7213699D01*
X11801080Y-9631920D02*
X11831080Y-9661920D01*
X11831080Y-9631920D02*
X11801080Y-9661920D01*
X12250660Y-8466060D02*
X12280660Y-8496060D01*
X12280660Y-8466060D02*
X12250660Y-8496060D01*
X12364960Y-11366740D02*
X12394960Y-11396740D01*
X12394960Y-11366740D02*
X12364960Y-11396740D01*
X14092160Y-11343880D02*
X14122160Y-11373880D01*
X14122160Y-11343880D02*
X14092160Y-11373880D01*
X14104860Y-11234660D02*
X14134860Y-11264660D01*
X14134860Y-11234660D02*
X14104860Y-11264660D01*
X14595080Y-9177260D02*
X14625080Y-9207260D01*
X14625080Y-9177260D02*
X14595080Y-9207260D01*
X15387560Y-11761240D02*
X15417560Y-11791240D01*
X15417560Y-11761240D02*
X15387560Y-11791240D01*
X15631400Y-7752320D02*
X15661400Y-7782320D01*
X15661400Y-7752320D02*
X15631400Y-7782320D01*
X15705060Y-8852138D02*
X15735060Y-8882138D01*
X15735060Y-8852138D02*
X15705060Y-8882138D01*
X16025100Y-9977360D02*
X16055100Y-10007360D01*
X16055100Y-9977360D02*
X16025100Y-10007360D01*
X16313430Y-7607300D02*
G75*
G02*
X16228430Y-7607300I-42500J0D01*
G01*
X16228430Y-7607300D02*
G75*
G02*
X16313430Y-7607300I42500J0D01*
G01*
X16313430Y-7861300D02*
G75*
G02*
X16228430Y-7861300I-42500J0D01*
G01*
X16228430Y-7861300D02*
G75*
G02*
X16313430Y-7861300I42500J0D01*
G01*
X16313430Y-8234680D02*
G75*
G02*
X16228430Y-8234680I-42500J0D01*
G01*
X16228430Y-8234680D02*
G75*
G02*
X16313430Y-8234680I42500J0D01*
G01*
X16313430Y-8488680D02*
G75*
G02*
X16228430Y-8488680I-42500J0D01*
G01*
X16228430Y-8488680D02*
G75*
G02*
X16313430Y-8488680I42500J0D01*
G01*
X16315970Y-8862120D02*
G75*
G02*
X16230970Y-8862120I-42500J0D01*
G01*
X16230970Y-8862120D02*
G75*
G02*
X16315970Y-8862120I42500J0D01*
G01*
X16315970Y-9116120D02*
G75*
G02*
X16230970Y-9116120I-42500J0D01*
G01*
X16230970Y-9116120D02*
G75*
G02*
X16315970Y-9116120I42500J0D01*
G01*
X16318820Y-6992620D02*
G75*
G02*
X16233820Y-6992620I-42500J0D01*
G01*
X16233820Y-6992620D02*
G75*
G02*
X16318820Y-6992620I42500J0D01*
G01*
X16318820Y-7246620D02*
G75*
G02*
X16233820Y-7246620I-42500J0D01*
G01*
X16233820Y-7246620D02*
G75*
G02*
X16318820Y-7246620I42500J0D01*
G01*
X16326130Y-6382960D02*
G75*
G02*
X16241130Y-6382960I-42500J0D01*
G01*
X16241130Y-6382960D02*
G75*
G02*
X16326130Y-6382960I42500J0D01*
G01*
X16326130Y-6636960D02*
G75*
G02*
X16241130Y-6636960I-42500J0D01*
G01*
X16241130Y-6636960D02*
G75*
G02*
X16326130Y-6636960I42500J0D01*
G01*
X16328980Y-9466580D02*
G75*
G02*
X16243980Y-9466580I-42500J0D01*
G01*
X16243980Y-9466580D02*
G75*
G02*
X16328980Y-9466580I42500J0D01*
G01*
X16328980Y-9720580D02*
G75*
G02*
X16243980Y-9720580I-42500J0D01*
G01*
X16243980Y-9720580D02*
G75*
G02*
X16328980Y-9720580I42500J0D01*
G01*
X17075430Y-7607300D02*
G75*
G02*
X16990430Y-7607300I-42500J0D01*
G01*
X16990430Y-7607300D02*
G75*
G02*
X17075430Y-7607300I42500J0D01*
G01*
X17075430Y-7861300D02*
G75*
G02*
X16990430Y-7861300I-42500J0D01*
G01*
X16990430Y-7861300D02*
G75*
G02*
X17075430Y-7861300I42500J0D01*
G01*
X17075430Y-8234680D02*
G75*
G02*
X16990430Y-8234680I-42500J0D01*
G01*
X16990430Y-8234680D02*
G75*
G02*
X17075430Y-8234680I42500J0D01*
G01*
X17075430Y-8488680D02*
G75*
G02*
X16990430Y-8488680I-42500J0D01*
G01*
X16990430Y-8488680D02*
G75*
G02*
X17075430Y-8488680I42500J0D01*
G01*
X17077970Y-8862120D02*
G75*
G02*
X16992970Y-8862120I-42500J0D01*
G01*
X16992970Y-8862120D02*
G75*
G02*
X17077970Y-8862120I42500J0D01*
G01*
X17077970Y-9116120D02*
G75*
G02*
X16992970Y-9116120I-42500J0D01*
G01*
X16992970Y-9116120D02*
G75*
G02*
X17077970Y-9116120I42500J0D01*
G01*
X17080820Y-6992620D02*
G75*
G02*
X16995820Y-6992620I-42500J0D01*
G01*
X16995820Y-6992620D02*
G75*
G02*
X17080820Y-6992620I42500J0D01*
G01*
X17080820Y-7246620D02*
G75*
G02*
X16995820Y-7246620I-42500J0D01*
G01*
X16995820Y-7246620D02*
G75*
G02*
X17080820Y-7246620I42500J0D01*
G01*
X17088130Y-6382960D02*
G75*
G02*
X17003130Y-6382960I-42500J0D01*
G01*
X17003130Y-6382960D02*
G75*
G02*
X17088130Y-6382960I42500J0D01*
G01*
X17088130Y-6636960D02*
G75*
G02*
X17003130Y-6636960I-42500J0D01*
G01*
X17003130Y-6636960D02*
G75*
G02*
X17088130Y-6636960I42500J0D01*
G01*
X17090980Y-9466580D02*
G75*
G02*
X17005980Y-9466580I-42500J0D01*
G01*
X17005980Y-9466580D02*
G75*
G02*
X17090980Y-9466580I42500J0D01*
G01*
X17090980Y-9720580D02*
G75*
G02*
X17005980Y-9720580I-42500J0D01*
G01*
X17005980Y-9720580D02*
G75*
G02*
X17090980Y-9720580I42500J0D01*
G01*
X12603480Y-6960320D02*
X12603480Y-7050320D01*
X12558480Y-7005320D02*
X12648480Y-7005320D01*
X12603480Y-7214320D02*
X12603480Y-7304320D01*
X12558480Y-7259320D02*
X12648480Y-7259320D01*
X12603480Y-7468320D02*
X12603480Y-7558320D01*
X12558480Y-7513320D02*
X12648480Y-7513320D01*
X12603480Y-7722320D02*
X12603480Y-7812320D01*
X12558480Y-7767320D02*
X12648480Y-7767320D01*
X12603480Y-7976320D02*
X12603480Y-8066320D01*
X12558480Y-8021320D02*
X12648480Y-8021320D01*
X12603480Y-8230320D02*
X12603480Y-8320320D01*
X12558480Y-8275320D02*
X12648480Y-8275320D01*
X12603480Y-8484320D02*
X12603480Y-8574320D01*
X12558480Y-8529320D02*
X12648480Y-8529320D01*
X12603480Y-8738320D02*
X12603480Y-8828320D01*
X12558480Y-8783320D02*
X12648480Y-8783320D01*
X12603480Y-8992320D02*
X12603480Y-9082320D01*
X12558480Y-9037320D02*
X12648480Y-9037320D01*
X12603480Y-9246320D02*
X12603480Y-9336320D01*
X12558480Y-9291320D02*
X12648480Y-9291320D01*
X12603480Y-9500320D02*
X12603480Y-9590320D01*
X12558480Y-9545320D02*
X12648480Y-9545320D01*
X12603480Y-9754320D02*
X12603480Y-9844320D01*
X12558480Y-9799320D02*
X12648480Y-9799320D01*
X12603480Y-10008320D02*
X12603480Y-10098320D01*
X12558480Y-10053320D02*
X12648480Y-10053320D01*
X12603480Y-10262320D02*
X12603480Y-10352320D01*
X12558480Y-10307320D02*
X12648480Y-10307320D01*
X12603480Y-10516320D02*
X12603480Y-10606320D01*
X12558480Y-10561320D02*
X12648480Y-10561320D01*
X12603480Y-10770320D02*
X12603480Y-10860320D01*
X12558480Y-10815320D02*
X12648480Y-10815320D01*
X12603480Y-11024320D02*
X12603480Y-11114320D01*
X12558480Y-11069320D02*
X12648480Y-11069320D01*
X12603480Y-11278320D02*
X12603480Y-11368320D01*
X12558480Y-11323320D02*
X12648480Y-11323320D01*
X12603480Y-11532320D02*
X12603480Y-11622320D01*
X12558480Y-11577320D02*
X12648480Y-11577320D01*
X15143480Y-6960320D02*
X15143480Y-7050320D01*
X15098480Y-7005320D02*
X15188480Y-7005320D01*
X15143480Y-7214320D02*
X15143480Y-7304320D01*
X15098480Y-7259320D02*
X15188480Y-7259320D01*
X15143480Y-7468320D02*
X15143480Y-7558320D01*
X15098480Y-7513320D02*
X15188480Y-7513320D01*
X15143480Y-7722320D02*
X15143480Y-7812320D01*
X15098480Y-7767320D02*
X15188480Y-7767320D01*
X15143480Y-7976320D02*
X15143480Y-8066320D01*
X15098480Y-8021320D02*
X15188480Y-8021320D01*
X15143480Y-8230320D02*
X15143480Y-8320320D01*
X15098480Y-8275320D02*
X15188480Y-8275320D01*
X15143480Y-8484320D02*
X15143480Y-8574320D01*
X15098480Y-8529320D02*
X15188480Y-8529320D01*
X15143480Y-8738320D02*
X15143480Y-8828320D01*
X15098480Y-8783320D02*
X15188480Y-8783320D01*
X15143480Y-8992320D02*
X15143480Y-9082320D01*
X15098480Y-9037320D02*
X15188480Y-9037320D01*
X15143480Y-9246320D02*
X15143480Y-9336320D01*
X15098480Y-9291320D02*
X15188480Y-9291320D01*
X15143480Y-9500320D02*
X15143480Y-9590320D01*
X15098480Y-9545320D02*
X15188480Y-9545320D01*
X15143480Y-9754320D02*
X15143480Y-9844320D01*
X15098480Y-9799320D02*
X15188480Y-9799320D01*
X15143480Y-10008320D02*
X15143480Y-10098320D01*
X15098480Y-10053320D02*
X15188480Y-10053320D01*
X15143480Y-10262320D02*
X15143480Y-10352320D01*
X15098480Y-10307320D02*
X15188480Y-10307320D01*
X15143480Y-10516320D02*
X15143480Y-10606320D01*
X15098480Y-10561320D02*
X15188480Y-10561320D01*
X15143480Y-10770320D02*
X15143480Y-10860320D01*
X15098480Y-10815320D02*
X15188480Y-10815320D01*
X15143480Y-11024320D02*
X15143480Y-11114320D01*
X15098480Y-11069320D02*
X15188480Y-11069320D01*
X15143480Y-11278320D02*
X15143480Y-11368320D01*
X15098480Y-11323320D02*
X15188480Y-11323320D01*
X15143480Y-11532320D02*
X15143480Y-11622320D01*
X15098480Y-11577320D02*
X15188480Y-11577320D01*
X15852140Y-11006540D02*
X15852140Y-11096540D01*
X15807140Y-11051540D02*
X15897140Y-11051540D01*
X15852140Y-11260540D02*
X15852140Y-11350540D01*
X15807140Y-11305540D02*
X15897140Y-11305540D01*
X17330420Y-10998420D02*
X17330420Y-11088420D01*
X17285420Y-11043420D02*
X17375420Y-11043420D01*
X17330420Y-11252420D02*
X17330420Y-11342420D01*
X17285420Y-11297420D02*
X17375420Y-11297420D01*
X18884900Y-11026860D02*
X18884900Y-11116860D01*
X18839900Y-11071860D02*
X18929900Y-11071860D01*
X18884900Y-11280860D02*
X18884900Y-11370860D01*
X18839900Y-11325860D02*
X18929900Y-11325860D01*
X10987836Y-9336836D02*
X10987836Y-9266124D01*
X10917124Y-9266124D01*
X10917124Y-9336836D01*
X10987836Y-9336836D01*
X10902480Y-9201480D02*
X10902480Y-9401480D01*
X11002480Y-9401480D02*
G75*
G02*
X10902480Y-9401480I-50000J0D01*
G01*
X11002480Y-9401480D02*
X11002480Y-9201480D01*
X11002480Y-9201480D02*
G75*
G03*
X10902480Y-9201480I-50000J0D01*
G01*
X11287836Y-9806836D02*
X11287836Y-9736124D01*
X11217124Y-9736124D01*
X11217124Y-9806836D01*
X11287836Y-9806836D01*
X11152480Y-9821480D02*
X11352480Y-9821480D01*
X11352480Y-9721480D02*
G75*
G02*
X11352480Y-9821480I0J-50000D01*
G01*
X11352480Y-9721480D02*
X11152480Y-9721480D01*
X11152480Y-9721480D02*
G75*
G03*
X11152480Y-9821480I0J-50000D01*
G01*
X11607836Y-9336836D02*
X11607836Y-9266124D01*
X11537124Y-9266124D01*
X11537124Y-9336836D01*
X11607836Y-9336836D01*
X11522480Y-9176480D02*
X11522480Y-9426480D01*
X11622480Y-9426480D02*
G75*
G02*
X11522480Y-9426480I-50000J0D01*
G01*
X11622480Y-9426480D02*
X11622480Y-9176480D01*
X11622480Y-9176480D02*
G75*
G03*
X11522480Y-9176480I-50000J0D01*
G01*
X13258556Y-11628496D02*
X13258556Y-11557784D01*
X13187844Y-11557784D01*
X13187844Y-11628496D01*
X13258556Y-11628496D01*
X13512556Y-11628496D02*
X13512556Y-11557784D01*
X13441844Y-11557784D01*
X13441844Y-11628496D01*
X13512556Y-11628496D01*
X13766556Y-11628496D02*
X13766556Y-11557784D01*
X13695844Y-11557784D01*
X13695844Y-11628496D01*
X13766556Y-11628496D01*
X14020556Y-11628496D02*
X14020556Y-11557784D01*
X13949844Y-11557784D01*
X13949844Y-11628496D01*
X14020556Y-11628496D01*
X14274556Y-11628496D02*
X14274556Y-11557784D01*
X14203844Y-11557784D01*
X14203844Y-11628496D01*
X14274556Y-11628496D01*
X14528556Y-11628496D02*
X14528556Y-11557784D01*
X14457844Y-11557784D01*
X14457844Y-11628496D01*
X14528556Y-11628496D01*
D13*
X17365980Y-8109260D02*
X17425980Y-8049260D01*
X17365980Y-7989260D01*
X17305980Y-8049260D01*
X17365980Y-8109260D01*
X17383760Y-6905300D02*
X17443760Y-6845300D01*
X17383760Y-6785300D01*
X17323760Y-6845300D01*
X17383760Y-6905300D01*
X17404080Y-9386880D02*
X17464080Y-9326880D01*
X17404080Y-9266880D01*
X17344080Y-9326880D01*
X17404080Y-9386880D01*
X18889980Y-8109260D02*
X18949980Y-8049260D01*
X18889980Y-7989260D01*
X18829980Y-8049260D01*
X18889980Y-8109260D01*
X18907760Y-6905300D02*
X18967760Y-6845300D01*
X18907760Y-6785300D01*
X18847760Y-6845300D01*
X18907760Y-6905300D01*
X18928080Y-9386880D02*
X18988080Y-9326880D01*
X18928080Y-9266880D01*
X18868080Y-9326880D01*
X18928080Y-9386880D01*
D14*
X19721680Y-7066000D02*
X19861680Y-7206000D01*
X19861680Y-7066000D02*
X19721680Y-7206000D01*
X19861680Y-7136000D02*
G75*
G02*
X19721680Y-7136000I-70000J0D01*
G01*
X19721680Y-7136000D02*
G75*
G02*
X19861680Y-7136000I70000J0D01*
G01*
X19721680Y-7566000D02*
X19861680Y-7706000D01*
X19861680Y-7566000D02*
X19721680Y-7706000D01*
X19861680Y-7636000D02*
G75*
G02*
X19721680Y-7636000I-70000J0D01*
G01*
X19721680Y-7636000D02*
G75*
G02*
X19861680Y-7636000I70000J0D01*
G01*
X19721680Y-8066000D02*
X19861680Y-8206000D01*
X19861680Y-8066000D02*
X19721680Y-8206000D01*
X19861680Y-8136000D02*
G75*
G02*
X19721680Y-8136000I-70000J0D01*
G01*
X19721680Y-8136000D02*
G75*
G02*
X19861680Y-8136000I70000J0D01*
G01*
X19721680Y-8566000D02*
X19861680Y-8706000D01*
X19861680Y-8566000D02*
X19721680Y-8706000D01*
X19861680Y-8636000D02*
G75*
G02*
X19721680Y-8636000I-70000J0D01*
G01*
X19721680Y-8636000D02*
G75*
G02*
X19861680Y-8636000I70000J0D01*
G01*
D15*
X10960300Y-7071560D02*
X11112300Y-7223560D01*
X11112300Y-7071560D02*
X10960300Y-7223560D01*
X11036300Y-7071560D02*
X11036300Y-7223560D01*
X10960300Y-7147560D02*
X11112300Y-7147560D01*
X10960300Y-7579560D02*
X11112300Y-7731560D01*
X11112300Y-7579560D02*
X10960300Y-7731560D01*
X11036300Y-7579560D02*
X11036300Y-7731560D01*
X10960300Y-7655560D02*
X11112300Y-7655560D01*
D16*
X10992980Y-11346040D02*
X11292980Y-11646040D01*
X11292980Y-11346040D02*
X10992980Y-11646040D01*
X11249047Y-11602107D02*
X11249047Y-11389973D01*
X11036913Y-11389973D01*
X11036913Y-11602107D01*
X11249047Y-11602107D01*
X10995520Y-6268580D02*
X11295520Y-6568580D01*
X11295520Y-6268580D02*
X10995520Y-6568580D01*
X11251587Y-6524647D02*
X11251587Y-6312513D01*
X11039453Y-6312513D01*
X11039453Y-6524647D01*
X11251587Y-6524647D01*
X19618820Y-6268580D02*
X19918820Y-6568580D01*
X19918820Y-6268580D02*
X19618820Y-6568580D01*
X19874887Y-6524647D02*
X19874887Y-6312513D01*
X19662753Y-6312513D01*
X19662753Y-6524647D01*
X19874887Y-6524647D01*
X19618820Y-11338420D02*
X19918820Y-11638420D01*
X19918820Y-11338420D02*
X19618820Y-11638420D01*
X19874887Y-11594487D02*
X19874887Y-11382353D01*
X19662753Y-11382353D01*
X19662753Y-11594487D01*
X19874887Y-11594487D01*
D11*
X11043117Y-12170704D02*
X11043117Y-11970704D01*
X11043117Y-11970704D02*
X11090736Y-11970704D01*
X11090736Y-11970704D02*
X11119307Y-11980228D01*
X11119307Y-11980228D02*
X11138355Y-11999275D01*
X11138355Y-11999275D02*
X11147879Y-12018323D01*
X11147879Y-12018323D02*
X11157403Y-12056418D01*
X11157403Y-12056418D02*
X11157403Y-12084989D01*
X11157403Y-12084989D02*
X11147879Y-12123085D01*
X11147879Y-12123085D02*
X11138355Y-12142132D01*
X11138355Y-12142132D02*
X11119307Y-12161180D01*
X11119307Y-12161180D02*
X11090736Y-12170704D01*
X11090736Y-12170704D02*
X11043117Y-12170704D01*
X11243117Y-12170704D02*
X11243117Y-12037370D01*
X11243117Y-12075466D02*
X11252641Y-12056418D01*
X11252641Y-12056418D02*
X11262164Y-12046894D01*
X11262164Y-12046894D02*
X11281212Y-12037370D01*
X11281212Y-12037370D02*
X11300260Y-12037370D01*
X11366926Y-12170704D02*
X11366926Y-12037370D01*
X11366926Y-11970704D02*
X11357402Y-11980228D01*
X11357402Y-11980228D02*
X11366926Y-11989751D01*
X11366926Y-11989751D02*
X11376450Y-11980228D01*
X11376450Y-11980228D02*
X11366926Y-11970704D01*
X11366926Y-11970704D02*
X11366926Y-11989751D01*
X11490736Y-12170704D02*
X11471688Y-12161180D01*
X11471688Y-12161180D02*
X11462164Y-12142132D01*
X11462164Y-12142132D02*
X11462164Y-11970704D01*
X11595498Y-12170704D02*
X11576450Y-12161180D01*
X11576450Y-12161180D02*
X11566926Y-12142132D01*
X11566926Y-12142132D02*
X11566926Y-11970704D01*
X11824069Y-12170704D02*
X11824069Y-11970704D01*
X11824069Y-11970704D02*
X11890736Y-12113561D01*
X11890736Y-12113561D02*
X11957402Y-11970704D01*
X11957402Y-11970704D02*
X11957402Y-12170704D01*
X12138355Y-12170704D02*
X12138355Y-12065942D01*
X12138355Y-12065942D02*
X12128831Y-12046894D01*
X12128831Y-12046894D02*
X12109783Y-12037370D01*
X12109783Y-12037370D02*
X12071688Y-12037370D01*
X12071688Y-12037370D02*
X12052641Y-12046894D01*
X12138355Y-12161180D02*
X12119307Y-12170704D01*
X12119307Y-12170704D02*
X12071688Y-12170704D01*
X12071688Y-12170704D02*
X12052641Y-12161180D01*
X12052641Y-12161180D02*
X12043117Y-12142132D01*
X12043117Y-12142132D02*
X12043117Y-12123085D01*
X12043117Y-12123085D02*
X12052641Y-12104037D01*
X12052641Y-12104037D02*
X12071688Y-12094513D01*
X12071688Y-12094513D02*
X12119307Y-12094513D01*
X12119307Y-12094513D02*
X12138355Y-12084989D01*
X12233593Y-12037370D02*
X12233593Y-12237370D01*
X12233593Y-12046894D02*
X12252641Y-12037370D01*
X12252641Y-12037370D02*
X12290736Y-12037370D01*
X12290736Y-12037370D02*
X12309783Y-12046894D01*
X12309783Y-12046894D02*
X12319307Y-12056418D01*
X12319307Y-12056418D02*
X12328831Y-12075466D01*
X12328831Y-12075466D02*
X12328831Y-12132608D01*
X12328831Y-12132608D02*
X12319307Y-12151656D01*
X12319307Y-12151656D02*
X12309783Y-12161180D01*
X12309783Y-12161180D02*
X12290736Y-12170704D01*
X12290736Y-12170704D02*
X12252641Y-12170704D01*
X12252641Y-12170704D02*
X12233593Y-12161180D01*
X12414545Y-12151656D02*
X12424069Y-12161180D01*
X12424069Y-12161180D02*
X12414545Y-12170704D01*
X12414545Y-12170704D02*
X12405022Y-12161180D01*
X12405022Y-12161180D02*
X12414545Y-12151656D01*
X12414545Y-12151656D02*
X12414545Y-12170704D01*
X12414545Y-12046894D02*
X12424069Y-12056418D01*
X12424069Y-12056418D02*
X12414545Y-12065942D01*
X12414545Y-12065942D02*
X12405022Y-12056418D01*
X12405022Y-12056418D02*
X12414545Y-12046894D01*
X12414545Y-12046894D02*
X12414545Y-12065942D01*
D12*
X10752340Y-12484220D02*
X10782340Y-12514220D01*
X10782340Y-12484220D02*
X10752340Y-12514220D01*
D11*
X11081212Y-12390704D02*
X11100260Y-12390704D01*
X11100260Y-12390704D02*
X11119307Y-12400228D01*
X11119307Y-12400228D02*
X11128831Y-12409751D01*
X11128831Y-12409751D02*
X11138355Y-12428799D01*
X11138355Y-12428799D02*
X11147879Y-12466894D01*
X11147879Y-12466894D02*
X11147879Y-12514513D01*
X11147879Y-12514513D02*
X11138355Y-12552608D01*
X11138355Y-12552608D02*
X11128831Y-12571656D01*
X11128831Y-12571656D02*
X11119307Y-12581180D01*
X11119307Y-12581180D02*
X11100260Y-12590704D01*
X11100260Y-12590704D02*
X11081212Y-12590704D01*
X11081212Y-12590704D02*
X11062164Y-12581180D01*
X11062164Y-12581180D02*
X11052641Y-12571656D01*
X11052641Y-12571656D02*
X11043117Y-12552608D01*
X11043117Y-12552608D02*
X11033593Y-12514513D01*
X11033593Y-12514513D02*
X11033593Y-12466894D01*
X11033593Y-12466894D02*
X11043117Y-12428799D01*
X11043117Y-12428799D02*
X11052641Y-12409751D01*
X11052641Y-12409751D02*
X11062164Y-12400228D01*
X11062164Y-12400228D02*
X11081212Y-12390704D01*
X11233593Y-12571656D02*
X11243117Y-12581180D01*
X11243117Y-12581180D02*
X11233593Y-12590704D01*
X11233593Y-12590704D02*
X11224069Y-12581180D01*
X11224069Y-12581180D02*
X11233593Y-12571656D01*
X11233593Y-12571656D02*
X11233593Y-12590704D01*
X11309783Y-12390704D02*
X11433593Y-12390704D01*
X11433593Y-12390704D02*
X11366926Y-12466894D01*
X11366926Y-12466894D02*
X11395498Y-12466894D01*
X11395498Y-12466894D02*
X11414545Y-12476418D01*
X11414545Y-12476418D02*
X11424069Y-12485942D01*
X11424069Y-12485942D02*
X11433593Y-12504989D01*
X11433593Y-12504989D02*
X11433593Y-12552608D01*
X11433593Y-12552608D02*
X11424069Y-12571656D01*
X11424069Y-12571656D02*
X11414545Y-12581180D01*
X11414545Y-12581180D02*
X11395498Y-12590704D01*
X11395498Y-12590704D02*
X11338355Y-12590704D01*
X11338355Y-12590704D02*
X11319307Y-12581180D01*
X11319307Y-12581180D02*
X11309783Y-12571656D01*
X11557402Y-12390704D02*
X11576450Y-12390704D01*
X11576450Y-12390704D02*
X11595498Y-12400228D01*
X11595498Y-12400228D02*
X11605022Y-12409751D01*
X11605022Y-12409751D02*
X11614545Y-12428799D01*
X11614545Y-12428799D02*
X11624069Y-12466894D01*
X11624069Y-12466894D02*
X11624069Y-12514513D01*
X11624069Y-12514513D02*
X11614545Y-12552608D01*
X11614545Y-12552608D02*
X11605022Y-12571656D01*
X11605022Y-12571656D02*
X11595498Y-12581180D01*
X11595498Y-12581180D02*
X11576450Y-12590704D01*
X11576450Y-12590704D02*
X11557402Y-12590704D01*
X11557402Y-12590704D02*
X11538355Y-12581180D01*
X11538355Y-12581180D02*
X11528831Y-12571656D01*
X11528831Y-12571656D02*
X11519307Y-12552608D01*
X11519307Y-12552608D02*
X11509783Y-12514513D01*
X11509783Y-12514513D02*
X11509783Y-12466894D01*
X11509783Y-12466894D02*
X11519307Y-12428799D01*
X11519307Y-12428799D02*
X11528831Y-12409751D01*
X11528831Y-12409751D02*
X11538355Y-12400228D01*
X11538355Y-12400228D02*
X11557402Y-12390704D01*
X11747879Y-12390704D02*
X11766926Y-12390704D01*
X11766926Y-12390704D02*
X11785974Y-12400228D01*
X11785974Y-12400228D02*
X11795498Y-12409751D01*
X11795498Y-12409751D02*
X11805022Y-12428799D01*
X11805022Y-12428799D02*
X11814545Y-12466894D01*
X11814545Y-12466894D02*
X11814545Y-12514513D01*
X11814545Y-12514513D02*
X11805022Y-12552608D01*
X11805022Y-12552608D02*
X11795498Y-12571656D01*
X11795498Y-12571656D02*
X11785974Y-12581180D01*
X11785974Y-12581180D02*
X11766926Y-12590704D01*
X11766926Y-12590704D02*
X11747879Y-12590704D01*
X11747879Y-12590704D02*
X11728831Y-12581180D01*
X11728831Y-12581180D02*
X11719307Y-12571656D01*
X11719307Y-12571656D02*
X11709783Y-12552608D01*
X11709783Y-12552608D02*
X11700260Y-12514513D01*
X11700260Y-12514513D02*
X11700260Y-12466894D01*
X11700260Y-12466894D02*
X11709783Y-12428799D01*
X11709783Y-12428799D02*
X11719307Y-12409751D01*
X11719307Y-12409751D02*
X11728831Y-12400228D01*
X11728831Y-12400228D02*
X11747879Y-12390704D01*
X11900260Y-12590704D02*
X11900260Y-12457370D01*
X11900260Y-12476418D02*
X11909783Y-12466894D01*
X11909783Y-12466894D02*
X11928831Y-12457370D01*
X11928831Y-12457370D02*
X11957403Y-12457370D01*
X11957403Y-12457370D02*
X11976450Y-12466894D01*
X11976450Y-12466894D02*
X11985974Y-12485942D01*
X11985974Y-12485942D02*
X11985974Y-12590704D01*
X11985974Y-12485942D02*
X11995498Y-12466894D01*
X11995498Y-12466894D02*
X12014545Y-12457370D01*
X12014545Y-12457370D02*
X12043117Y-12457370D01*
X12043117Y-12457370D02*
X12062164Y-12466894D01*
X12062164Y-12466894D02*
X12071688Y-12485942D01*
X12071688Y-12485942D02*
X12071688Y-12590704D01*
X12166926Y-12590704D02*
X12166926Y-12457370D01*
X12166926Y-12476418D02*
X12176450Y-12466894D01*
X12176450Y-12466894D02*
X12195498Y-12457370D01*
X12195498Y-12457370D02*
X12224069Y-12457370D01*
X12224069Y-12457370D02*
X12243117Y-12466894D01*
X12243117Y-12466894D02*
X12252641Y-12485942D01*
X12252641Y-12485942D02*
X12252641Y-12590704D01*
X12252641Y-12485942D02*
X12262164Y-12466894D01*
X12262164Y-12466894D02*
X12281212Y-12457370D01*
X12281212Y-12457370D02*
X12309783Y-12457370D01*
X12309783Y-12457370D02*
X12328831Y-12466894D01*
X12328831Y-12466894D02*
X12338355Y-12485942D01*
X12338355Y-12485942D02*
X12338355Y-12590704D01*
X12728831Y-12381180D02*
X12557403Y-12638323D01*
X12985974Y-12390704D02*
X13005022Y-12390704D01*
X13005022Y-12390704D02*
X13024069Y-12400228D01*
X13024069Y-12400228D02*
X13033593Y-12409751D01*
X13033593Y-12409751D02*
X13043117Y-12428799D01*
X13043117Y-12428799D02*
X13052641Y-12466894D01*
X13052641Y-12466894D02*
X13052641Y-12514513D01*
X13052641Y-12514513D02*
X13043117Y-12552608D01*
X13043117Y-12552608D02*
X13033593Y-12571656D01*
X13033593Y-12571656D02*
X13024069Y-12581180D01*
X13024069Y-12581180D02*
X13005022Y-12590704D01*
X13005022Y-12590704D02*
X12985974Y-12590704D01*
X12985974Y-12590704D02*
X12966926Y-12581180D01*
X12966926Y-12581180D02*
X12957403Y-12571656D01*
X12957403Y-12571656D02*
X12947879Y-12552608D01*
X12947879Y-12552608D02*
X12938355Y-12514513D01*
X12938355Y-12514513D02*
X12938355Y-12466894D01*
X12938355Y-12466894D02*
X12947879Y-12428799D01*
X12947879Y-12428799D02*
X12957403Y-12409751D01*
X12957403Y-12409751D02*
X12966926Y-12400228D01*
X12966926Y-12400228D02*
X12985974Y-12390704D01*
X13138355Y-12571656D02*
X13147879Y-12581180D01*
X13147879Y-12581180D02*
X13138355Y-12590704D01*
X13138355Y-12590704D02*
X13128831Y-12581180D01*
X13128831Y-12581180D02*
X13138355Y-12571656D01*
X13138355Y-12571656D02*
X13138355Y-12590704D01*
X13271688Y-12390704D02*
X13290736Y-12390704D01*
X13290736Y-12390704D02*
X13309784Y-12400228D01*
X13309784Y-12400228D02*
X13319307Y-12409751D01*
X13319307Y-12409751D02*
X13328831Y-12428799D01*
X13328831Y-12428799D02*
X13338355Y-12466894D01*
X13338355Y-12466894D02*
X13338355Y-12514513D01*
X13338355Y-12514513D02*
X13328831Y-12552608D01*
X13328831Y-12552608D02*
X13319307Y-12571656D01*
X13319307Y-12571656D02*
X13309784Y-12581180D01*
X13309784Y-12581180D02*
X13290736Y-12590704D01*
X13290736Y-12590704D02*
X13271688Y-12590704D01*
X13271688Y-12590704D02*
X13252641Y-12581180D01*
X13252641Y-12581180D02*
X13243117Y-12571656D01*
X13243117Y-12571656D02*
X13233593Y-12552608D01*
X13233593Y-12552608D02*
X13224069Y-12514513D01*
X13224069Y-12514513D02*
X13224069Y-12466894D01*
X13224069Y-12466894D02*
X13233593Y-12428799D01*
X13233593Y-12428799D02*
X13243117Y-12409751D01*
X13243117Y-12409751D02*
X13252641Y-12400228D01*
X13252641Y-12400228D02*
X13271688Y-12390704D01*
X13528831Y-12590704D02*
X13414546Y-12590704D01*
X13471688Y-12590704D02*
X13471688Y-12390704D01*
X13471688Y-12390704D02*
X13452641Y-12419275D01*
X13452641Y-12419275D02*
X13433593Y-12438323D01*
X13433593Y-12438323D02*
X13414546Y-12447847D01*
X13719307Y-12590704D02*
X13605022Y-12590704D01*
X13662165Y-12590704D02*
X13662165Y-12390704D01*
X13662165Y-12390704D02*
X13643117Y-12419275D01*
X13643117Y-12419275D02*
X13624069Y-12438323D01*
X13624069Y-12438323D02*
X13605022Y-12447847D01*
X13833593Y-12476418D02*
X13814546Y-12466894D01*
X13814546Y-12466894D02*
X13805022Y-12457370D01*
X13805022Y-12457370D02*
X13795498Y-12438323D01*
X13795498Y-12438323D02*
X13795498Y-12428799D01*
X13795498Y-12428799D02*
X13805022Y-12409751D01*
X13805022Y-12409751D02*
X13814546Y-12400228D01*
X13814546Y-12400228D02*
X13833593Y-12390704D01*
X13833593Y-12390704D02*
X13871688Y-12390704D01*
X13871688Y-12390704D02*
X13890736Y-12400228D01*
X13890736Y-12400228D02*
X13900260Y-12409751D01*
X13900260Y-12409751D02*
X13909784Y-12428799D01*
X13909784Y-12428799D02*
X13909784Y-12438323D01*
X13909784Y-12438323D02*
X13900260Y-12457370D01*
X13900260Y-12457370D02*
X13890736Y-12466894D01*
X13890736Y-12466894D02*
X13871688Y-12476418D01*
X13871688Y-12476418D02*
X13833593Y-12476418D01*
X13833593Y-12476418D02*
X13814546Y-12485942D01*
X13814546Y-12485942D02*
X13805022Y-12495466D01*
X13805022Y-12495466D02*
X13795498Y-12514513D01*
X13795498Y-12514513D02*
X13795498Y-12552608D01*
X13795498Y-12552608D02*
X13805022Y-12571656D01*
X13805022Y-12571656D02*
X13814546Y-12581180D01*
X13814546Y-12581180D02*
X13833593Y-12590704D01*
X13833593Y-12590704D02*
X13871688Y-12590704D01*
X13871688Y-12590704D02*
X13890736Y-12581180D01*
X13890736Y-12581180D02*
X13900260Y-12571656D01*
X13900260Y-12571656D02*
X13909784Y-12552608D01*
X13909784Y-12552608D02*
X13909784Y-12514513D01*
X13909784Y-12514513D02*
X13900260Y-12495466D01*
X13900260Y-12495466D02*
X13890736Y-12485942D01*
X13890736Y-12485942D02*
X13871688Y-12476418D01*
X13985974Y-12390704D02*
X13985974Y-12428799D01*
X14062165Y-12390704D02*
X14062165Y-12428799D01*
X14357403Y-12666894D02*
X14347879Y-12657370D01*
X14347879Y-12657370D02*
X14328831Y-12628799D01*
X14328831Y-12628799D02*
X14319308Y-12609751D01*
X14319308Y-12609751D02*
X14309784Y-12581180D01*
X14309784Y-12581180D02*
X14300260Y-12533561D01*
X14300260Y-12533561D02*
X14300260Y-12495466D01*
X14300260Y-12495466D02*
X14309784Y-12447847D01*
X14309784Y-12447847D02*
X14319308Y-12419275D01*
X14319308Y-12419275D02*
X14328831Y-12400228D01*
X14328831Y-12400228D02*
X14347879Y-12371656D01*
X14347879Y-12371656D02*
X14357403Y-12362132D01*
X14538355Y-12590704D02*
X14424069Y-12590704D01*
X14481212Y-12590704D02*
X14481212Y-12390704D01*
X14481212Y-12390704D02*
X14462165Y-12419275D01*
X14462165Y-12419275D02*
X14443117Y-12438323D01*
X14443117Y-12438323D02*
X14424069Y-12447847D01*
X14614546Y-12409751D02*
X14624069Y-12400228D01*
X14624069Y-12400228D02*
X14643117Y-12390704D01*
X14643117Y-12390704D02*
X14690736Y-12390704D01*
X14690736Y-12390704D02*
X14709784Y-12400228D01*
X14709784Y-12400228D02*
X14719308Y-12409751D01*
X14719308Y-12409751D02*
X14728831Y-12428799D01*
X14728831Y-12428799D02*
X14728831Y-12447847D01*
X14728831Y-12447847D02*
X14719308Y-12476418D01*
X14719308Y-12476418D02*
X14605022Y-12590704D01*
X14605022Y-12590704D02*
X14728831Y-12590704D01*
X14966927Y-12590704D02*
X14966927Y-12390704D01*
X15052641Y-12590704D02*
X15052641Y-12485942D01*
X15052641Y-12485942D02*
X15043117Y-12466894D01*
X15043117Y-12466894D02*
X15024070Y-12457370D01*
X15024070Y-12457370D02*
X14995498Y-12457370D01*
X14995498Y-12457370D02*
X14976450Y-12466894D01*
X14976450Y-12466894D02*
X14966927Y-12476418D01*
X15176450Y-12590704D02*
X15157403Y-12581180D01*
X15157403Y-12581180D02*
X15147879Y-12571656D01*
X15147879Y-12571656D02*
X15138355Y-12552608D01*
X15138355Y-12552608D02*
X15138355Y-12495466D01*
X15138355Y-12495466D02*
X15147879Y-12476418D01*
X15147879Y-12476418D02*
X15157403Y-12466894D01*
X15157403Y-12466894D02*
X15176450Y-12457370D01*
X15176450Y-12457370D02*
X15205022Y-12457370D01*
X15205022Y-12457370D02*
X15224070Y-12466894D01*
X15224070Y-12466894D02*
X15233593Y-12476418D01*
X15233593Y-12476418D02*
X15243117Y-12495466D01*
X15243117Y-12495466D02*
X15243117Y-12552608D01*
X15243117Y-12552608D02*
X15233593Y-12571656D01*
X15233593Y-12571656D02*
X15224070Y-12581180D01*
X15224070Y-12581180D02*
X15205022Y-12590704D01*
X15205022Y-12590704D02*
X15176450Y-12590704D01*
X15357403Y-12590704D02*
X15338355Y-12581180D01*
X15338355Y-12581180D02*
X15328831Y-12562132D01*
X15328831Y-12562132D02*
X15328831Y-12390704D01*
X15509784Y-12581180D02*
X15490736Y-12590704D01*
X15490736Y-12590704D02*
X15452641Y-12590704D01*
X15452641Y-12590704D02*
X15433593Y-12581180D01*
X15433593Y-12581180D02*
X15424070Y-12562132D01*
X15424070Y-12562132D02*
X15424070Y-12485942D01*
X15424070Y-12485942D02*
X15433593Y-12466894D01*
X15433593Y-12466894D02*
X15452641Y-12457370D01*
X15452641Y-12457370D02*
X15490736Y-12457370D01*
X15490736Y-12457370D02*
X15509784Y-12466894D01*
X15509784Y-12466894D02*
X15519308Y-12485942D01*
X15519308Y-12485942D02*
X15519308Y-12504989D01*
X15519308Y-12504989D02*
X15424070Y-12524037D01*
X15595498Y-12581180D02*
X15614546Y-12590704D01*
X15614546Y-12590704D02*
X15652641Y-12590704D01*
X15652641Y-12590704D02*
X15671689Y-12581180D01*
X15671689Y-12581180D02*
X15681212Y-12562132D01*
X15681212Y-12562132D02*
X15681212Y-12552608D01*
X15681212Y-12552608D02*
X15671689Y-12533561D01*
X15671689Y-12533561D02*
X15652641Y-12524037D01*
X15652641Y-12524037D02*
X15624070Y-12524037D01*
X15624070Y-12524037D02*
X15605022Y-12514513D01*
X15605022Y-12514513D02*
X15595498Y-12495466D01*
X15595498Y-12495466D02*
X15595498Y-12485942D01*
X15595498Y-12485942D02*
X15605022Y-12466894D01*
X15605022Y-12466894D02*
X15624070Y-12457370D01*
X15624070Y-12457370D02*
X15652641Y-12457370D01*
X15652641Y-12457370D02*
X15671689Y-12466894D01*
X15747879Y-12666894D02*
X15757403Y-12657370D01*
X15757403Y-12657370D02*
X15776451Y-12628799D01*
X15776451Y-12628799D02*
X15785974Y-12609751D01*
X15785974Y-12609751D02*
X15795498Y-12581180D01*
X15795498Y-12581180D02*
X15805022Y-12533561D01*
X15805022Y-12533561D02*
X15805022Y-12495466D01*
X15805022Y-12495466D02*
X15795498Y-12447847D01*
X15795498Y-12447847D02*
X15785974Y-12419275D01*
X15785974Y-12419275D02*
X15776451Y-12400228D01*
X15776451Y-12400228D02*
X15757403Y-12371656D01*
X15757403Y-12371656D02*
X15747879Y-12362132D01*
D12*
X10782340Y-12763220D02*
G75*
G02*
X10697340Y-12763220I-42500J0D01*
G01*
X10697340Y-12763220D02*
G75*
G02*
X10782340Y-12763220I42500J0D01*
G01*
D11*
X11081212Y-12654704D02*
X11100260Y-12654704D01*
X11100260Y-12654704D02*
X11119307Y-12664228D01*
X11119307Y-12664228D02*
X11128831Y-12673751D01*
X11128831Y-12673751D02*
X11138355Y-12692799D01*
X11138355Y-12692799D02*
X11147879Y-12730894D01*
X11147879Y-12730894D02*
X11147879Y-12778513D01*
X11147879Y-12778513D02*
X11138355Y-12816608D01*
X11138355Y-12816608D02*
X11128831Y-12835656D01*
X11128831Y-12835656D02*
X11119307Y-12845180D01*
X11119307Y-12845180D02*
X11100260Y-12854704D01*
X11100260Y-12854704D02*
X11081212Y-12854704D01*
X11081212Y-12854704D02*
X11062164Y-12845180D01*
X11062164Y-12845180D02*
X11052641Y-12835656D01*
X11052641Y-12835656D02*
X11043117Y-12816608D01*
X11043117Y-12816608D02*
X11033593Y-12778513D01*
X11033593Y-12778513D02*
X11033593Y-12730894D01*
X11033593Y-12730894D02*
X11043117Y-12692799D01*
X11043117Y-12692799D02*
X11052641Y-12673751D01*
X11052641Y-12673751D02*
X11062164Y-12664228D01*
X11062164Y-12664228D02*
X11081212Y-12654704D01*
X11233593Y-12835656D02*
X11243117Y-12845180D01*
X11243117Y-12845180D02*
X11233593Y-12854704D01*
X11233593Y-12854704D02*
X11224069Y-12845180D01*
X11224069Y-12845180D02*
X11233593Y-12835656D01*
X11233593Y-12835656D02*
X11233593Y-12854704D01*
X11357402Y-12740418D02*
X11338355Y-12730894D01*
X11338355Y-12730894D02*
X11328831Y-12721370D01*
X11328831Y-12721370D02*
X11319307Y-12702323D01*
X11319307Y-12702323D02*
X11319307Y-12692799D01*
X11319307Y-12692799D02*
X11328831Y-12673751D01*
X11328831Y-12673751D02*
X11338355Y-12664228D01*
X11338355Y-12664228D02*
X11357402Y-12654704D01*
X11357402Y-12654704D02*
X11395498Y-12654704D01*
X11395498Y-12654704D02*
X11414545Y-12664228D01*
X11414545Y-12664228D02*
X11424069Y-12673751D01*
X11424069Y-12673751D02*
X11433593Y-12692799D01*
X11433593Y-12692799D02*
X11433593Y-12702323D01*
X11433593Y-12702323D02*
X11424069Y-12721370D01*
X11424069Y-12721370D02*
X11414545Y-12730894D01*
X11414545Y-12730894D02*
X11395498Y-12740418D01*
X11395498Y-12740418D02*
X11357402Y-12740418D01*
X11357402Y-12740418D02*
X11338355Y-12749942D01*
X11338355Y-12749942D02*
X11328831Y-12759466D01*
X11328831Y-12759466D02*
X11319307Y-12778513D01*
X11319307Y-12778513D02*
X11319307Y-12816608D01*
X11319307Y-12816608D02*
X11328831Y-12835656D01*
X11328831Y-12835656D02*
X11338355Y-12845180D01*
X11338355Y-12845180D02*
X11357402Y-12854704D01*
X11357402Y-12854704D02*
X11395498Y-12854704D01*
X11395498Y-12854704D02*
X11414545Y-12845180D01*
X11414545Y-12845180D02*
X11424069Y-12835656D01*
X11424069Y-12835656D02*
X11433593Y-12816608D01*
X11433593Y-12816608D02*
X11433593Y-12778513D01*
X11433593Y-12778513D02*
X11424069Y-12759466D01*
X11424069Y-12759466D02*
X11414545Y-12749942D01*
X11414545Y-12749942D02*
X11395498Y-12740418D01*
X11614545Y-12654704D02*
X11519307Y-12654704D01*
X11519307Y-12654704D02*
X11509783Y-12749942D01*
X11509783Y-12749942D02*
X11519307Y-12740418D01*
X11519307Y-12740418D02*
X11538355Y-12730894D01*
X11538355Y-12730894D02*
X11585974Y-12730894D01*
X11585974Y-12730894D02*
X11605022Y-12740418D01*
X11605022Y-12740418D02*
X11614545Y-12749942D01*
X11614545Y-12749942D02*
X11624069Y-12768989D01*
X11624069Y-12768989D02*
X11624069Y-12816608D01*
X11624069Y-12816608D02*
X11614545Y-12835656D01*
X11614545Y-12835656D02*
X11605022Y-12845180D01*
X11605022Y-12845180D02*
X11585974Y-12854704D01*
X11585974Y-12854704D02*
X11538355Y-12854704D01*
X11538355Y-12854704D02*
X11519307Y-12845180D01*
X11519307Y-12845180D02*
X11509783Y-12835656D01*
X11747879Y-12654704D02*
X11766926Y-12654704D01*
X11766926Y-12654704D02*
X11785974Y-12664228D01*
X11785974Y-12664228D02*
X11795498Y-12673751D01*
X11795498Y-12673751D02*
X11805022Y-12692799D01*
X11805022Y-12692799D02*
X11814545Y-12730894D01*
X11814545Y-12730894D02*
X11814545Y-12778513D01*
X11814545Y-12778513D02*
X11805022Y-12816608D01*
X11805022Y-12816608D02*
X11795498Y-12835656D01*
X11795498Y-12835656D02*
X11785974Y-12845180D01*
X11785974Y-12845180D02*
X11766926Y-12854704D01*
X11766926Y-12854704D02*
X11747879Y-12854704D01*
X11747879Y-12854704D02*
X11728831Y-12845180D01*
X11728831Y-12845180D02*
X11719307Y-12835656D01*
X11719307Y-12835656D02*
X11709783Y-12816608D01*
X11709783Y-12816608D02*
X11700260Y-12778513D01*
X11700260Y-12778513D02*
X11700260Y-12730894D01*
X11700260Y-12730894D02*
X11709783Y-12692799D01*
X11709783Y-12692799D02*
X11719307Y-12673751D01*
X11719307Y-12673751D02*
X11728831Y-12664228D01*
X11728831Y-12664228D02*
X11747879Y-12654704D01*
X11900260Y-12854704D02*
X11900260Y-12721370D01*
X11900260Y-12740418D02*
X11909783Y-12730894D01*
X11909783Y-12730894D02*
X11928831Y-12721370D01*
X11928831Y-12721370D02*
X11957403Y-12721370D01*
X11957403Y-12721370D02*
X11976450Y-12730894D01*
X11976450Y-12730894D02*
X11985974Y-12749942D01*
X11985974Y-12749942D02*
X11985974Y-12854704D01*
X11985974Y-12749942D02*
X11995498Y-12730894D01*
X11995498Y-12730894D02*
X12014545Y-12721370D01*
X12014545Y-12721370D02*
X12043117Y-12721370D01*
X12043117Y-12721370D02*
X12062164Y-12730894D01*
X12062164Y-12730894D02*
X12071688Y-12749942D01*
X12071688Y-12749942D02*
X12071688Y-12854704D01*
X12166926Y-12854704D02*
X12166926Y-12721370D01*
X12166926Y-12740418D02*
X12176450Y-12730894D01*
X12176450Y-12730894D02*
X12195498Y-12721370D01*
X12195498Y-12721370D02*
X12224069Y-12721370D01*
X12224069Y-12721370D02*
X12243117Y-12730894D01*
X12243117Y-12730894D02*
X12252641Y-12749942D01*
X12252641Y-12749942D02*
X12252641Y-12854704D01*
X12252641Y-12749942D02*
X12262164Y-12730894D01*
X12262164Y-12730894D02*
X12281212Y-12721370D01*
X12281212Y-12721370D02*
X12309783Y-12721370D01*
X12309783Y-12721370D02*
X12328831Y-12730894D01*
X12328831Y-12730894D02*
X12338355Y-12749942D01*
X12338355Y-12749942D02*
X12338355Y-12854704D01*
X12728831Y-12645180D02*
X12557403Y-12902323D01*
X12985974Y-12654704D02*
X13005022Y-12654704D01*
X13005022Y-12654704D02*
X13024069Y-12664228D01*
X13024069Y-12664228D02*
X13033593Y-12673751D01*
X13033593Y-12673751D02*
X13043117Y-12692799D01*
X13043117Y-12692799D02*
X13052641Y-12730894D01*
X13052641Y-12730894D02*
X13052641Y-12778513D01*
X13052641Y-12778513D02*
X13043117Y-12816608D01*
X13043117Y-12816608D02*
X13033593Y-12835656D01*
X13033593Y-12835656D02*
X13024069Y-12845180D01*
X13024069Y-12845180D02*
X13005022Y-12854704D01*
X13005022Y-12854704D02*
X12985974Y-12854704D01*
X12985974Y-12854704D02*
X12966926Y-12845180D01*
X12966926Y-12845180D02*
X12957403Y-12835656D01*
X12957403Y-12835656D02*
X12947879Y-12816608D01*
X12947879Y-12816608D02*
X12938355Y-12778513D01*
X12938355Y-12778513D02*
X12938355Y-12730894D01*
X12938355Y-12730894D02*
X12947879Y-12692799D01*
X12947879Y-12692799D02*
X12957403Y-12673751D01*
X12957403Y-12673751D02*
X12966926Y-12664228D01*
X12966926Y-12664228D02*
X12985974Y-12654704D01*
X13138355Y-12835656D02*
X13147879Y-12845180D01*
X13147879Y-12845180D02*
X13138355Y-12854704D01*
X13138355Y-12854704D02*
X13128831Y-12845180D01*
X13128831Y-12845180D02*
X13138355Y-12835656D01*
X13138355Y-12835656D02*
X13138355Y-12854704D01*
X13271688Y-12654704D02*
X13290736Y-12654704D01*
X13290736Y-12654704D02*
X13309784Y-12664228D01*
X13309784Y-12664228D02*
X13319307Y-12673751D01*
X13319307Y-12673751D02*
X13328831Y-12692799D01*
X13328831Y-12692799D02*
X13338355Y-12730894D01*
X13338355Y-12730894D02*
X13338355Y-12778513D01*
X13338355Y-12778513D02*
X13328831Y-12816608D01*
X13328831Y-12816608D02*
X13319307Y-12835656D01*
X13319307Y-12835656D02*
X13309784Y-12845180D01*
X13309784Y-12845180D02*
X13290736Y-12854704D01*
X13290736Y-12854704D02*
X13271688Y-12854704D01*
X13271688Y-12854704D02*
X13252641Y-12845180D01*
X13252641Y-12845180D02*
X13243117Y-12835656D01*
X13243117Y-12835656D02*
X13233593Y-12816608D01*
X13233593Y-12816608D02*
X13224069Y-12778513D01*
X13224069Y-12778513D02*
X13224069Y-12730894D01*
X13224069Y-12730894D02*
X13233593Y-12692799D01*
X13233593Y-12692799D02*
X13243117Y-12673751D01*
X13243117Y-12673751D02*
X13252641Y-12664228D01*
X13252641Y-12664228D02*
X13271688Y-12654704D01*
X13405022Y-12654704D02*
X13528831Y-12654704D01*
X13528831Y-12654704D02*
X13462165Y-12730894D01*
X13462165Y-12730894D02*
X13490736Y-12730894D01*
X13490736Y-12730894D02*
X13509784Y-12740418D01*
X13509784Y-12740418D02*
X13519307Y-12749942D01*
X13519307Y-12749942D02*
X13528831Y-12768989D01*
X13528831Y-12768989D02*
X13528831Y-12816608D01*
X13528831Y-12816608D02*
X13519307Y-12835656D01*
X13519307Y-12835656D02*
X13509784Y-12845180D01*
X13509784Y-12845180D02*
X13490736Y-12854704D01*
X13490736Y-12854704D02*
X13433593Y-12854704D01*
X13433593Y-12854704D02*
X13414546Y-12845180D01*
X13414546Y-12845180D02*
X13405022Y-12835656D01*
X13595498Y-12654704D02*
X13719307Y-12654704D01*
X13719307Y-12654704D02*
X13652641Y-12730894D01*
X13652641Y-12730894D02*
X13681212Y-12730894D01*
X13681212Y-12730894D02*
X13700260Y-12740418D01*
X13700260Y-12740418D02*
X13709784Y-12749942D01*
X13709784Y-12749942D02*
X13719307Y-12768989D01*
X13719307Y-12768989D02*
X13719307Y-12816608D01*
X13719307Y-12816608D02*
X13709784Y-12835656D01*
X13709784Y-12835656D02*
X13700260Y-12845180D01*
X13700260Y-12845180D02*
X13681212Y-12854704D01*
X13681212Y-12854704D02*
X13624069Y-12854704D01*
X13624069Y-12854704D02*
X13605022Y-12845180D01*
X13605022Y-12845180D02*
X13595498Y-12835656D01*
X13900260Y-12654704D02*
X13805022Y-12654704D01*
X13805022Y-12654704D02*
X13795498Y-12749942D01*
X13795498Y-12749942D02*
X13805022Y-12740418D01*
X13805022Y-12740418D02*
X13824069Y-12730894D01*
X13824069Y-12730894D02*
X13871688Y-12730894D01*
X13871688Y-12730894D02*
X13890736Y-12740418D01*
X13890736Y-12740418D02*
X13900260Y-12749942D01*
X13900260Y-12749942D02*
X13909784Y-12768989D01*
X13909784Y-12768989D02*
X13909784Y-12816608D01*
X13909784Y-12816608D02*
X13900260Y-12835656D01*
X13900260Y-12835656D02*
X13890736Y-12845180D01*
X13890736Y-12845180D02*
X13871688Y-12854704D01*
X13871688Y-12854704D02*
X13824069Y-12854704D01*
X13824069Y-12854704D02*
X13805022Y-12845180D01*
X13805022Y-12845180D02*
X13795498Y-12835656D01*
X13985974Y-12654704D02*
X13985974Y-12692799D01*
X14062165Y-12654704D02*
X14062165Y-12692799D01*
X14357403Y-12930894D02*
X14347879Y-12921370D01*
X14347879Y-12921370D02*
X14328831Y-12892799D01*
X14328831Y-12892799D02*
X14319308Y-12873751D01*
X14319308Y-12873751D02*
X14309784Y-12845180D01*
X14309784Y-12845180D02*
X14300260Y-12797561D01*
X14300260Y-12797561D02*
X14300260Y-12759466D01*
X14300260Y-12759466D02*
X14309784Y-12711847D01*
X14309784Y-12711847D02*
X14319308Y-12683275D01*
X14319308Y-12683275D02*
X14328831Y-12664228D01*
X14328831Y-12664228D02*
X14347879Y-12635656D01*
X14347879Y-12635656D02*
X14357403Y-12626132D01*
X14424069Y-12673751D02*
X14433593Y-12664228D01*
X14433593Y-12664228D02*
X14452641Y-12654704D01*
X14452641Y-12654704D02*
X14500260Y-12654704D01*
X14500260Y-12654704D02*
X14519308Y-12664228D01*
X14519308Y-12664228D02*
X14528831Y-12673751D01*
X14528831Y-12673751D02*
X14538355Y-12692799D01*
X14538355Y-12692799D02*
X14538355Y-12711847D01*
X14538355Y-12711847D02*
X14528831Y-12740418D01*
X14528831Y-12740418D02*
X14414546Y-12854704D01*
X14414546Y-12854704D02*
X14538355Y-12854704D01*
X14709784Y-12721370D02*
X14709784Y-12854704D01*
X14662165Y-12645180D02*
X14614546Y-12788037D01*
X14614546Y-12788037D02*
X14738355Y-12788037D01*
X14966927Y-12854704D02*
X14966927Y-12654704D01*
X15052641Y-12854704D02*
X15052641Y-12749942D01*
X15052641Y-12749942D02*
X15043117Y-12730894D01*
X15043117Y-12730894D02*
X15024070Y-12721370D01*
X15024070Y-12721370D02*
X14995498Y-12721370D01*
X14995498Y-12721370D02*
X14976450Y-12730894D01*
X14976450Y-12730894D02*
X14966927Y-12740418D01*
X15176450Y-12854704D02*
X15157403Y-12845180D01*
X15157403Y-12845180D02*
X15147879Y-12835656D01*
X15147879Y-12835656D02*
X15138355Y-12816608D01*
X15138355Y-12816608D02*
X15138355Y-12759466D01*
X15138355Y-12759466D02*
X15147879Y-12740418D01*
X15147879Y-12740418D02*
X15157403Y-12730894D01*
X15157403Y-12730894D02*
X15176450Y-12721370D01*
X15176450Y-12721370D02*
X15205022Y-12721370D01*
X15205022Y-12721370D02*
X15224070Y-12730894D01*
X15224070Y-12730894D02*
X15233593Y-12740418D01*
X15233593Y-12740418D02*
X15243117Y-12759466D01*
X15243117Y-12759466D02*
X15243117Y-12816608D01*
X15243117Y-12816608D02*
X15233593Y-12835656D01*
X15233593Y-12835656D02*
X15224070Y-12845180D01*
X15224070Y-12845180D02*
X15205022Y-12854704D01*
X15205022Y-12854704D02*
X15176450Y-12854704D01*
X15357403Y-12854704D02*
X15338355Y-12845180D01*
X15338355Y-12845180D02*
X15328831Y-12826132D01*
X15328831Y-12826132D02*
X15328831Y-12654704D01*
X15509784Y-12845180D02*
X15490736Y-12854704D01*
X15490736Y-12854704D02*
X15452641Y-12854704D01*
X15452641Y-12854704D02*
X15433593Y-12845180D01*
X15433593Y-12845180D02*
X15424070Y-12826132D01*
X15424070Y-12826132D02*
X15424070Y-12749942D01*
X15424070Y-12749942D02*
X15433593Y-12730894D01*
X15433593Y-12730894D02*
X15452641Y-12721370D01*
X15452641Y-12721370D02*
X15490736Y-12721370D01*
X15490736Y-12721370D02*
X15509784Y-12730894D01*
X15509784Y-12730894D02*
X15519308Y-12749942D01*
X15519308Y-12749942D02*
X15519308Y-12768989D01*
X15519308Y-12768989D02*
X15424070Y-12788037D01*
X15595498Y-12845180D02*
X15614546Y-12854704D01*
X15614546Y-12854704D02*
X15652641Y-12854704D01*
X15652641Y-12854704D02*
X15671689Y-12845180D01*
X15671689Y-12845180D02*
X15681212Y-12826132D01*
X15681212Y-12826132D02*
X15681212Y-12816608D01*
X15681212Y-12816608D02*
X15671689Y-12797561D01*
X15671689Y-12797561D02*
X15652641Y-12788037D01*
X15652641Y-12788037D02*
X15624070Y-12788037D01*
X15624070Y-12788037D02*
X15605022Y-12778513D01*
X15605022Y-12778513D02*
X15595498Y-12759466D01*
X15595498Y-12759466D02*
X15595498Y-12749942D01*
X15595498Y-12749942D02*
X15605022Y-12730894D01*
X15605022Y-12730894D02*
X15624070Y-12721370D01*
X15624070Y-12721370D02*
X15652641Y-12721370D01*
X15652641Y-12721370D02*
X15671689Y-12730894D01*
X15747879Y-12930894D02*
X15757403Y-12921370D01*
X15757403Y-12921370D02*
X15776451Y-12892799D01*
X15776451Y-12892799D02*
X15785974Y-12873751D01*
X15785974Y-12873751D02*
X15795498Y-12845180D01*
X15795498Y-12845180D02*
X15805022Y-12797561D01*
X15805022Y-12797561D02*
X15805022Y-12759466D01*
X15805022Y-12759466D02*
X15795498Y-12711847D01*
X15795498Y-12711847D02*
X15785974Y-12683275D01*
X15785974Y-12683275D02*
X15776451Y-12664228D01*
X15776451Y-12664228D02*
X15757403Y-12635656D01*
X15757403Y-12635656D02*
X15747879Y-12626132D01*
D12*
X10737340Y-12982220D02*
X10737340Y-13072220D01*
X10692340Y-13027220D02*
X10782340Y-13027220D01*
D11*
X11081212Y-12918704D02*
X11100260Y-12918704D01*
X11100260Y-12918704D02*
X11119307Y-12928228D01*
X11119307Y-12928228D02*
X11128831Y-12937751D01*
X11128831Y-12937751D02*
X11138355Y-12956799D01*
X11138355Y-12956799D02*
X11147879Y-12994894D01*
X11147879Y-12994894D02*
X11147879Y-13042513D01*
X11147879Y-13042513D02*
X11138355Y-13080608D01*
X11138355Y-13080608D02*
X11128831Y-13099656D01*
X11128831Y-13099656D02*
X11119307Y-13109180D01*
X11119307Y-13109180D02*
X11100260Y-13118704D01*
X11100260Y-13118704D02*
X11081212Y-13118704D01*
X11081212Y-13118704D02*
X11062164Y-13109180D01*
X11062164Y-13109180D02*
X11052641Y-13099656D01*
X11052641Y-13099656D02*
X11043117Y-13080608D01*
X11043117Y-13080608D02*
X11033593Y-13042513D01*
X11033593Y-13042513D02*
X11033593Y-12994894D01*
X11033593Y-12994894D02*
X11043117Y-12956799D01*
X11043117Y-12956799D02*
X11052641Y-12937751D01*
X11052641Y-12937751D02*
X11062164Y-12928228D01*
X11062164Y-12928228D02*
X11081212Y-12918704D01*
X11233593Y-13099656D02*
X11243117Y-13109180D01*
X11243117Y-13109180D02*
X11233593Y-13118704D01*
X11233593Y-13118704D02*
X11224069Y-13109180D01*
X11224069Y-13109180D02*
X11233593Y-13099656D01*
X11233593Y-13099656D02*
X11233593Y-13118704D01*
X11338355Y-13118704D02*
X11376450Y-13118704D01*
X11376450Y-13118704D02*
X11395498Y-13109180D01*
X11395498Y-13109180D02*
X11405022Y-13099656D01*
X11405022Y-13099656D02*
X11424069Y-13071085D01*
X11424069Y-13071085D02*
X11433593Y-13032989D01*
X11433593Y-13032989D02*
X11433593Y-12956799D01*
X11433593Y-12956799D02*
X11424069Y-12937751D01*
X11424069Y-12937751D02*
X11414545Y-12928228D01*
X11414545Y-12928228D02*
X11395498Y-12918704D01*
X11395498Y-12918704D02*
X11357402Y-12918704D01*
X11357402Y-12918704D02*
X11338355Y-12928228D01*
X11338355Y-12928228D02*
X11328831Y-12937751D01*
X11328831Y-12937751D02*
X11319307Y-12956799D01*
X11319307Y-12956799D02*
X11319307Y-13004418D01*
X11319307Y-13004418D02*
X11328831Y-13023466D01*
X11328831Y-13023466D02*
X11338355Y-13032989D01*
X11338355Y-13032989D02*
X11357402Y-13042513D01*
X11357402Y-13042513D02*
X11395498Y-13042513D01*
X11395498Y-13042513D02*
X11414545Y-13032989D01*
X11414545Y-13032989D02*
X11424069Y-13023466D01*
X11424069Y-13023466D02*
X11433593Y-13004418D01*
X11557402Y-12918704D02*
X11576450Y-12918704D01*
X11576450Y-12918704D02*
X11595498Y-12928228D01*
X11595498Y-12928228D02*
X11605022Y-12937751D01*
X11605022Y-12937751D02*
X11614545Y-12956799D01*
X11614545Y-12956799D02*
X11624069Y-12994894D01*
X11624069Y-12994894D02*
X11624069Y-13042513D01*
X11624069Y-13042513D02*
X11614545Y-13080608D01*
X11614545Y-13080608D02*
X11605022Y-13099656D01*
X11605022Y-13099656D02*
X11595498Y-13109180D01*
X11595498Y-13109180D02*
X11576450Y-13118704D01*
X11576450Y-13118704D02*
X11557402Y-13118704D01*
X11557402Y-13118704D02*
X11538355Y-13109180D01*
X11538355Y-13109180D02*
X11528831Y-13099656D01*
X11528831Y-13099656D02*
X11519307Y-13080608D01*
X11519307Y-13080608D02*
X11509783Y-13042513D01*
X11509783Y-13042513D02*
X11509783Y-12994894D01*
X11509783Y-12994894D02*
X11519307Y-12956799D01*
X11519307Y-12956799D02*
X11528831Y-12937751D01*
X11528831Y-12937751D02*
X11538355Y-12928228D01*
X11538355Y-12928228D02*
X11557402Y-12918704D01*
X11747879Y-12918704D02*
X11766926Y-12918704D01*
X11766926Y-12918704D02*
X11785974Y-12928228D01*
X11785974Y-12928228D02*
X11795498Y-12937751D01*
X11795498Y-12937751D02*
X11805022Y-12956799D01*
X11805022Y-12956799D02*
X11814545Y-12994894D01*
X11814545Y-12994894D02*
X11814545Y-13042513D01*
X11814545Y-13042513D02*
X11805022Y-13080608D01*
X11805022Y-13080608D02*
X11795498Y-13099656D01*
X11795498Y-13099656D02*
X11785974Y-13109180D01*
X11785974Y-13109180D02*
X11766926Y-13118704D01*
X11766926Y-13118704D02*
X11747879Y-13118704D01*
X11747879Y-13118704D02*
X11728831Y-13109180D01*
X11728831Y-13109180D02*
X11719307Y-13099656D01*
X11719307Y-13099656D02*
X11709783Y-13080608D01*
X11709783Y-13080608D02*
X11700260Y-13042513D01*
X11700260Y-13042513D02*
X11700260Y-12994894D01*
X11700260Y-12994894D02*
X11709783Y-12956799D01*
X11709783Y-12956799D02*
X11719307Y-12937751D01*
X11719307Y-12937751D02*
X11728831Y-12928228D01*
X11728831Y-12928228D02*
X11747879Y-12918704D01*
X11900260Y-13118704D02*
X11900260Y-12985370D01*
X11900260Y-13004418D02*
X11909783Y-12994894D01*
X11909783Y-12994894D02*
X11928831Y-12985370D01*
X11928831Y-12985370D02*
X11957403Y-12985370D01*
X11957403Y-12985370D02*
X11976450Y-12994894D01*
X11976450Y-12994894D02*
X11985974Y-13013942D01*
X11985974Y-13013942D02*
X11985974Y-13118704D01*
X11985974Y-13013942D02*
X11995498Y-12994894D01*
X11995498Y-12994894D02*
X12014545Y-12985370D01*
X12014545Y-12985370D02*
X12043117Y-12985370D01*
X12043117Y-12985370D02*
X12062164Y-12994894D01*
X12062164Y-12994894D02*
X12071688Y-13013942D01*
X12071688Y-13013942D02*
X12071688Y-13118704D01*
X12166926Y-13118704D02*
X12166926Y-12985370D01*
X12166926Y-13004418D02*
X12176450Y-12994894D01*
X12176450Y-12994894D02*
X12195498Y-12985370D01*
X12195498Y-12985370D02*
X12224069Y-12985370D01*
X12224069Y-12985370D02*
X12243117Y-12994894D01*
X12243117Y-12994894D02*
X12252641Y-13013942D01*
X12252641Y-13013942D02*
X12252641Y-13118704D01*
X12252641Y-13013942D02*
X12262164Y-12994894D01*
X12262164Y-12994894D02*
X12281212Y-12985370D01*
X12281212Y-12985370D02*
X12309783Y-12985370D01*
X12309783Y-12985370D02*
X12328831Y-12994894D01*
X12328831Y-12994894D02*
X12338355Y-13013942D01*
X12338355Y-13013942D02*
X12338355Y-13118704D01*
X12728831Y-12909180D02*
X12557403Y-13166323D01*
X12985974Y-12918704D02*
X13005022Y-12918704D01*
X13005022Y-12918704D02*
X13024069Y-12928228D01*
X13024069Y-12928228D02*
X13033593Y-12937751D01*
X13033593Y-12937751D02*
X13043117Y-12956799D01*
X13043117Y-12956799D02*
X13052641Y-12994894D01*
X13052641Y-12994894D02*
X13052641Y-13042513D01*
X13052641Y-13042513D02*
X13043117Y-13080608D01*
X13043117Y-13080608D02*
X13033593Y-13099656D01*
X13033593Y-13099656D02*
X13024069Y-13109180D01*
X13024069Y-13109180D02*
X13005022Y-13118704D01*
X13005022Y-13118704D02*
X12985974Y-13118704D01*
X12985974Y-13118704D02*
X12966926Y-13109180D01*
X12966926Y-13109180D02*
X12957403Y-13099656D01*
X12957403Y-13099656D02*
X12947879Y-13080608D01*
X12947879Y-13080608D02*
X12938355Y-13042513D01*
X12938355Y-13042513D02*
X12938355Y-12994894D01*
X12938355Y-12994894D02*
X12947879Y-12956799D01*
X12947879Y-12956799D02*
X12957403Y-12937751D01*
X12957403Y-12937751D02*
X12966926Y-12928228D01*
X12966926Y-12928228D02*
X12985974Y-12918704D01*
X13138355Y-13099656D02*
X13147879Y-13109180D01*
X13147879Y-13109180D02*
X13138355Y-13118704D01*
X13138355Y-13118704D02*
X13128831Y-13109180D01*
X13128831Y-13109180D02*
X13138355Y-13099656D01*
X13138355Y-13099656D02*
X13138355Y-13118704D01*
X13271688Y-12918704D02*
X13290736Y-12918704D01*
X13290736Y-12918704D02*
X13309784Y-12928228D01*
X13309784Y-12928228D02*
X13319307Y-12937751D01*
X13319307Y-12937751D02*
X13328831Y-12956799D01*
X13328831Y-12956799D02*
X13338355Y-12994894D01*
X13338355Y-12994894D02*
X13338355Y-13042513D01*
X13338355Y-13042513D02*
X13328831Y-13080608D01*
X13328831Y-13080608D02*
X13319307Y-13099656D01*
X13319307Y-13099656D02*
X13309784Y-13109180D01*
X13309784Y-13109180D02*
X13290736Y-13118704D01*
X13290736Y-13118704D02*
X13271688Y-13118704D01*
X13271688Y-13118704D02*
X13252641Y-13109180D01*
X13252641Y-13109180D02*
X13243117Y-13099656D01*
X13243117Y-13099656D02*
X13233593Y-13080608D01*
X13233593Y-13080608D02*
X13224069Y-13042513D01*
X13224069Y-13042513D02*
X13224069Y-12994894D01*
X13224069Y-12994894D02*
X13233593Y-12956799D01*
X13233593Y-12956799D02*
X13243117Y-12937751D01*
X13243117Y-12937751D02*
X13252641Y-12928228D01*
X13252641Y-12928228D02*
X13271688Y-12918704D01*
X13405022Y-12918704D02*
X13528831Y-12918704D01*
X13528831Y-12918704D02*
X13462165Y-12994894D01*
X13462165Y-12994894D02*
X13490736Y-12994894D01*
X13490736Y-12994894D02*
X13509784Y-13004418D01*
X13509784Y-13004418D02*
X13519307Y-13013942D01*
X13519307Y-13013942D02*
X13528831Y-13032989D01*
X13528831Y-13032989D02*
X13528831Y-13080608D01*
X13528831Y-13080608D02*
X13519307Y-13099656D01*
X13519307Y-13099656D02*
X13509784Y-13109180D01*
X13509784Y-13109180D02*
X13490736Y-13118704D01*
X13490736Y-13118704D02*
X13433593Y-13118704D01*
X13433593Y-13118704D02*
X13414546Y-13109180D01*
X13414546Y-13109180D02*
X13405022Y-13099656D01*
X13709784Y-12918704D02*
X13614546Y-12918704D01*
X13614546Y-12918704D02*
X13605022Y-13013942D01*
X13605022Y-13013942D02*
X13614546Y-13004418D01*
X13614546Y-13004418D02*
X13633593Y-12994894D01*
X13633593Y-12994894D02*
X13681212Y-12994894D01*
X13681212Y-12994894D02*
X13700260Y-13004418D01*
X13700260Y-13004418D02*
X13709784Y-13013942D01*
X13709784Y-13013942D02*
X13719307Y-13032989D01*
X13719307Y-13032989D02*
X13719307Y-13080608D01*
X13719307Y-13080608D02*
X13709784Y-13099656D01*
X13709784Y-13099656D02*
X13700260Y-13109180D01*
X13700260Y-13109180D02*
X13681212Y-13118704D01*
X13681212Y-13118704D02*
X13633593Y-13118704D01*
X13633593Y-13118704D02*
X13614546Y-13109180D01*
X13614546Y-13109180D02*
X13605022Y-13099656D01*
X13890736Y-12985370D02*
X13890736Y-13118704D01*
X13843117Y-12909180D02*
X13795498Y-13052037D01*
X13795498Y-13052037D02*
X13919307Y-13052037D01*
X13985974Y-12918704D02*
X13985974Y-12956799D01*
X14062165Y-12918704D02*
X14062165Y-12956799D01*
X14357403Y-13194894D02*
X14347879Y-13185370D01*
X14347879Y-13185370D02*
X14328831Y-13156799D01*
X14328831Y-13156799D02*
X14319308Y-13137751D01*
X14319308Y-13137751D02*
X14309784Y-13109180D01*
X14309784Y-13109180D02*
X14300260Y-13061561D01*
X14300260Y-13061561D02*
X14300260Y-13023466D01*
X14300260Y-13023466D02*
X14309784Y-12975847D01*
X14309784Y-12975847D02*
X14319308Y-12947275D01*
X14319308Y-12947275D02*
X14328831Y-12928228D01*
X14328831Y-12928228D02*
X14347879Y-12899656D01*
X14347879Y-12899656D02*
X14357403Y-12890132D01*
X14519308Y-12985370D02*
X14519308Y-13118704D01*
X14471688Y-12909180D02*
X14424069Y-13052037D01*
X14424069Y-13052037D02*
X14547879Y-13052037D01*
X14709784Y-12985370D02*
X14709784Y-13118704D01*
X14662165Y-12909180D02*
X14614546Y-13052037D01*
X14614546Y-13052037D02*
X14738355Y-13052037D01*
X14966927Y-13118704D02*
X14966927Y-12918704D01*
X15052641Y-13118704D02*
X15052641Y-13013942D01*
X15052641Y-13013942D02*
X15043117Y-12994894D01*
X15043117Y-12994894D02*
X15024070Y-12985370D01*
X15024070Y-12985370D02*
X14995498Y-12985370D01*
X14995498Y-12985370D02*
X14976450Y-12994894D01*
X14976450Y-12994894D02*
X14966927Y-13004418D01*
X15176450Y-13118704D02*
X15157403Y-13109180D01*
X15157403Y-13109180D02*
X15147879Y-13099656D01*
X15147879Y-13099656D02*
X15138355Y-13080608D01*
X15138355Y-13080608D02*
X15138355Y-13023466D01*
X15138355Y-13023466D02*
X15147879Y-13004418D01*
X15147879Y-13004418D02*
X15157403Y-12994894D01*
X15157403Y-12994894D02*
X15176450Y-12985370D01*
X15176450Y-12985370D02*
X15205022Y-12985370D01*
X15205022Y-12985370D02*
X15224070Y-12994894D01*
X15224070Y-12994894D02*
X15233593Y-13004418D01*
X15233593Y-13004418D02*
X15243117Y-13023466D01*
X15243117Y-13023466D02*
X15243117Y-13080608D01*
X15243117Y-13080608D02*
X15233593Y-13099656D01*
X15233593Y-13099656D02*
X15224070Y-13109180D01*
X15224070Y-13109180D02*
X15205022Y-13118704D01*
X15205022Y-13118704D02*
X15176450Y-13118704D01*
X15357403Y-13118704D02*
X15338355Y-13109180D01*
X15338355Y-13109180D02*
X15328831Y-13090132D01*
X15328831Y-13090132D02*
X15328831Y-12918704D01*
X15509784Y-13109180D02*
X15490736Y-13118704D01*
X15490736Y-13118704D02*
X15452641Y-13118704D01*
X15452641Y-13118704D02*
X15433593Y-13109180D01*
X15433593Y-13109180D02*
X15424070Y-13090132D01*
X15424070Y-13090132D02*
X15424070Y-13013942D01*
X15424070Y-13013942D02*
X15433593Y-12994894D01*
X15433593Y-12994894D02*
X15452641Y-12985370D01*
X15452641Y-12985370D02*
X15490736Y-12985370D01*
X15490736Y-12985370D02*
X15509784Y-12994894D01*
X15509784Y-12994894D02*
X15519308Y-13013942D01*
X15519308Y-13013942D02*
X15519308Y-13032989D01*
X15519308Y-13032989D02*
X15424070Y-13052037D01*
X15595498Y-13109180D02*
X15614546Y-13118704D01*
X15614546Y-13118704D02*
X15652641Y-13118704D01*
X15652641Y-13118704D02*
X15671689Y-13109180D01*
X15671689Y-13109180D02*
X15681212Y-13090132D01*
X15681212Y-13090132D02*
X15681212Y-13080608D01*
X15681212Y-13080608D02*
X15671689Y-13061561D01*
X15671689Y-13061561D02*
X15652641Y-13052037D01*
X15652641Y-13052037D02*
X15624070Y-13052037D01*
X15624070Y-13052037D02*
X15605022Y-13042513D01*
X15605022Y-13042513D02*
X15595498Y-13023466D01*
X15595498Y-13023466D02*
X15595498Y-13013942D01*
X15595498Y-13013942D02*
X15605022Y-12994894D01*
X15605022Y-12994894D02*
X15624070Y-12985370D01*
X15624070Y-12985370D02*
X15652641Y-12985370D01*
X15652641Y-12985370D02*
X15671689Y-12994894D01*
X15747879Y-13194894D02*
X15757403Y-13185370D01*
X15757403Y-13185370D02*
X15776451Y-13156799D01*
X15776451Y-13156799D02*
X15785974Y-13137751D01*
X15785974Y-13137751D02*
X15795498Y-13109180D01*
X15795498Y-13109180D02*
X15805022Y-13061561D01*
X15805022Y-13061561D02*
X15805022Y-13023466D01*
X15805022Y-13023466D02*
X15795498Y-12975847D01*
X15795498Y-12975847D02*
X15785974Y-12947275D01*
X15785974Y-12947275D02*
X15776451Y-12928228D01*
X15776451Y-12928228D02*
X15757403Y-12899656D01*
X15757403Y-12899656D02*
X15747879Y-12890132D01*
D12*
X10767696Y-13326576D02*
X10767696Y-13255864D01*
X10696984Y-13255864D01*
X10696984Y-13326576D01*
X10767696Y-13326576D01*
D11*
X11147879Y-13382704D02*
X11033593Y-13382704D01*
X11090736Y-13382704D02*
X11090736Y-13182704D01*
X11090736Y-13182704D02*
X11071688Y-13211275D01*
X11071688Y-13211275D02*
X11052641Y-13230323D01*
X11052641Y-13230323D02*
X11033593Y-13239847D01*
X11233593Y-13363656D02*
X11243117Y-13373180D01*
X11243117Y-13373180D02*
X11233593Y-13382704D01*
X11233593Y-13382704D02*
X11224069Y-13373180D01*
X11224069Y-13373180D02*
X11233593Y-13363656D01*
X11233593Y-13363656D02*
X11233593Y-13382704D01*
X11366926Y-13182704D02*
X11385974Y-13182704D01*
X11385974Y-13182704D02*
X11405022Y-13192228D01*
X11405022Y-13192228D02*
X11414545Y-13201751D01*
X11414545Y-13201751D02*
X11424069Y-13220799D01*
X11424069Y-13220799D02*
X11433593Y-13258894D01*
X11433593Y-13258894D02*
X11433593Y-13306513D01*
X11433593Y-13306513D02*
X11424069Y-13344608D01*
X11424069Y-13344608D02*
X11414545Y-13363656D01*
X11414545Y-13363656D02*
X11405022Y-13373180D01*
X11405022Y-13373180D02*
X11385974Y-13382704D01*
X11385974Y-13382704D02*
X11366926Y-13382704D01*
X11366926Y-13382704D02*
X11347879Y-13373180D01*
X11347879Y-13373180D02*
X11338355Y-13363656D01*
X11338355Y-13363656D02*
X11328831Y-13344608D01*
X11328831Y-13344608D02*
X11319307Y-13306513D01*
X11319307Y-13306513D02*
X11319307Y-13258894D01*
X11319307Y-13258894D02*
X11328831Y-13220799D01*
X11328831Y-13220799D02*
X11338355Y-13201751D01*
X11338355Y-13201751D02*
X11347879Y-13192228D01*
X11347879Y-13192228D02*
X11366926Y-13182704D01*
X11557402Y-13182704D02*
X11576450Y-13182704D01*
X11576450Y-13182704D02*
X11595498Y-13192228D01*
X11595498Y-13192228D02*
X11605022Y-13201751D01*
X11605022Y-13201751D02*
X11614545Y-13220799D01*
X11614545Y-13220799D02*
X11624069Y-13258894D01*
X11624069Y-13258894D02*
X11624069Y-13306513D01*
X11624069Y-13306513D02*
X11614545Y-13344608D01*
X11614545Y-13344608D02*
X11605022Y-13363656D01*
X11605022Y-13363656D02*
X11595498Y-13373180D01*
X11595498Y-13373180D02*
X11576450Y-13382704D01*
X11576450Y-13382704D02*
X11557402Y-13382704D01*
X11557402Y-13382704D02*
X11538355Y-13373180D01*
X11538355Y-13373180D02*
X11528831Y-13363656D01*
X11528831Y-13363656D02*
X11519307Y-13344608D01*
X11519307Y-13344608D02*
X11509783Y-13306513D01*
X11509783Y-13306513D02*
X11509783Y-13258894D01*
X11509783Y-13258894D02*
X11519307Y-13220799D01*
X11519307Y-13220799D02*
X11528831Y-13201751D01*
X11528831Y-13201751D02*
X11538355Y-13192228D01*
X11538355Y-13192228D02*
X11557402Y-13182704D01*
X11747879Y-13182704D02*
X11766926Y-13182704D01*
X11766926Y-13182704D02*
X11785974Y-13192228D01*
X11785974Y-13192228D02*
X11795498Y-13201751D01*
X11795498Y-13201751D02*
X11805022Y-13220799D01*
X11805022Y-13220799D02*
X11814545Y-13258894D01*
X11814545Y-13258894D02*
X11814545Y-13306513D01*
X11814545Y-13306513D02*
X11805022Y-13344608D01*
X11805022Y-13344608D02*
X11795498Y-13363656D01*
X11795498Y-13363656D02*
X11785974Y-13373180D01*
X11785974Y-13373180D02*
X11766926Y-13382704D01*
X11766926Y-13382704D02*
X11747879Y-13382704D01*
X11747879Y-13382704D02*
X11728831Y-13373180D01*
X11728831Y-13373180D02*
X11719307Y-13363656D01*
X11719307Y-13363656D02*
X11709783Y-13344608D01*
X11709783Y-13344608D02*
X11700260Y-13306513D01*
X11700260Y-13306513D02*
X11700260Y-13258894D01*
X11700260Y-13258894D02*
X11709783Y-13220799D01*
X11709783Y-13220799D02*
X11719307Y-13201751D01*
X11719307Y-13201751D02*
X11728831Y-13192228D01*
X11728831Y-13192228D02*
X11747879Y-13182704D01*
X11900260Y-13382704D02*
X11900260Y-13249370D01*
X11900260Y-13268418D02*
X11909783Y-13258894D01*
X11909783Y-13258894D02*
X11928831Y-13249370D01*
X11928831Y-13249370D02*
X11957403Y-13249370D01*
X11957403Y-13249370D02*
X11976450Y-13258894D01*
X11976450Y-13258894D02*
X11985974Y-13277942D01*
X11985974Y-13277942D02*
X11985974Y-13382704D01*
X11985974Y-13277942D02*
X11995498Y-13258894D01*
X11995498Y-13258894D02*
X12014545Y-13249370D01*
X12014545Y-13249370D02*
X12043117Y-13249370D01*
X12043117Y-13249370D02*
X12062164Y-13258894D01*
X12062164Y-13258894D02*
X12071688Y-13277942D01*
X12071688Y-13277942D02*
X12071688Y-13382704D01*
X12166926Y-13382704D02*
X12166926Y-13249370D01*
X12166926Y-13268418D02*
X12176450Y-13258894D01*
X12176450Y-13258894D02*
X12195498Y-13249370D01*
X12195498Y-13249370D02*
X12224069Y-13249370D01*
X12224069Y-13249370D02*
X12243117Y-13258894D01*
X12243117Y-13258894D02*
X12252641Y-13277942D01*
X12252641Y-13277942D02*
X12252641Y-13382704D01*
X12252641Y-13277942D02*
X12262164Y-13258894D01*
X12262164Y-13258894D02*
X12281212Y-13249370D01*
X12281212Y-13249370D02*
X12309783Y-13249370D01*
X12309783Y-13249370D02*
X12328831Y-13258894D01*
X12328831Y-13258894D02*
X12338355Y-13277942D01*
X12338355Y-13277942D02*
X12338355Y-13382704D01*
X12728831Y-13173180D02*
X12557403Y-13430323D01*
X12985974Y-13182704D02*
X13005022Y-13182704D01*
X13005022Y-13182704D02*
X13024069Y-13192228D01*
X13024069Y-13192228D02*
X13033593Y-13201751D01*
X13033593Y-13201751D02*
X13043117Y-13220799D01*
X13043117Y-13220799D02*
X13052641Y-13258894D01*
X13052641Y-13258894D02*
X13052641Y-13306513D01*
X13052641Y-13306513D02*
X13043117Y-13344608D01*
X13043117Y-13344608D02*
X13033593Y-13363656D01*
X13033593Y-13363656D02*
X13024069Y-13373180D01*
X13024069Y-13373180D02*
X13005022Y-13382704D01*
X13005022Y-13382704D02*
X12985974Y-13382704D01*
X12985974Y-13382704D02*
X12966926Y-13373180D01*
X12966926Y-13373180D02*
X12957403Y-13363656D01*
X12957403Y-13363656D02*
X12947879Y-13344608D01*
X12947879Y-13344608D02*
X12938355Y-13306513D01*
X12938355Y-13306513D02*
X12938355Y-13258894D01*
X12938355Y-13258894D02*
X12947879Y-13220799D01*
X12947879Y-13220799D02*
X12957403Y-13201751D01*
X12957403Y-13201751D02*
X12966926Y-13192228D01*
X12966926Y-13192228D02*
X12985974Y-13182704D01*
X13138355Y-13363656D02*
X13147879Y-13373180D01*
X13147879Y-13373180D02*
X13138355Y-13382704D01*
X13138355Y-13382704D02*
X13128831Y-13373180D01*
X13128831Y-13373180D02*
X13138355Y-13363656D01*
X13138355Y-13363656D02*
X13138355Y-13382704D01*
X13271688Y-13182704D02*
X13290736Y-13182704D01*
X13290736Y-13182704D02*
X13309784Y-13192228D01*
X13309784Y-13192228D02*
X13319307Y-13201751D01*
X13319307Y-13201751D02*
X13328831Y-13220799D01*
X13328831Y-13220799D02*
X13338355Y-13258894D01*
X13338355Y-13258894D02*
X13338355Y-13306513D01*
X13338355Y-13306513D02*
X13328831Y-13344608D01*
X13328831Y-13344608D02*
X13319307Y-13363656D01*
X13319307Y-13363656D02*
X13309784Y-13373180D01*
X13309784Y-13373180D02*
X13290736Y-13382704D01*
X13290736Y-13382704D02*
X13271688Y-13382704D01*
X13271688Y-13382704D02*
X13252641Y-13373180D01*
X13252641Y-13373180D02*
X13243117Y-13363656D01*
X13243117Y-13363656D02*
X13233593Y-13344608D01*
X13233593Y-13344608D02*
X13224069Y-13306513D01*
X13224069Y-13306513D02*
X13224069Y-13258894D01*
X13224069Y-13258894D02*
X13233593Y-13220799D01*
X13233593Y-13220799D02*
X13243117Y-13201751D01*
X13243117Y-13201751D02*
X13252641Y-13192228D01*
X13252641Y-13192228D02*
X13271688Y-13182704D01*
X13405022Y-13182704D02*
X13528831Y-13182704D01*
X13528831Y-13182704D02*
X13462165Y-13258894D01*
X13462165Y-13258894D02*
X13490736Y-13258894D01*
X13490736Y-13258894D02*
X13509784Y-13268418D01*
X13509784Y-13268418D02*
X13519307Y-13277942D01*
X13519307Y-13277942D02*
X13528831Y-13296989D01*
X13528831Y-13296989D02*
X13528831Y-13344608D01*
X13528831Y-13344608D02*
X13519307Y-13363656D01*
X13519307Y-13363656D02*
X13509784Y-13373180D01*
X13509784Y-13373180D02*
X13490736Y-13382704D01*
X13490736Y-13382704D02*
X13433593Y-13382704D01*
X13433593Y-13382704D02*
X13414546Y-13373180D01*
X13414546Y-13373180D02*
X13405022Y-13363656D01*
X13624069Y-13382704D02*
X13662165Y-13382704D01*
X13662165Y-13382704D02*
X13681212Y-13373180D01*
X13681212Y-13373180D02*
X13690736Y-13363656D01*
X13690736Y-13363656D02*
X13709784Y-13335085D01*
X13709784Y-13335085D02*
X13719307Y-13296989D01*
X13719307Y-13296989D02*
X13719307Y-13220799D01*
X13719307Y-13220799D02*
X13709784Y-13201751D01*
X13709784Y-13201751D02*
X13700260Y-13192228D01*
X13700260Y-13192228D02*
X13681212Y-13182704D01*
X13681212Y-13182704D02*
X13643117Y-13182704D01*
X13643117Y-13182704D02*
X13624069Y-13192228D01*
X13624069Y-13192228D02*
X13614546Y-13201751D01*
X13614546Y-13201751D02*
X13605022Y-13220799D01*
X13605022Y-13220799D02*
X13605022Y-13268418D01*
X13605022Y-13268418D02*
X13614546Y-13287466D01*
X13614546Y-13287466D02*
X13624069Y-13296989D01*
X13624069Y-13296989D02*
X13643117Y-13306513D01*
X13643117Y-13306513D02*
X13681212Y-13306513D01*
X13681212Y-13306513D02*
X13700260Y-13296989D01*
X13700260Y-13296989D02*
X13709784Y-13287466D01*
X13709784Y-13287466D02*
X13719307Y-13268418D01*
X13890736Y-13249370D02*
X13890736Y-13382704D01*
X13843117Y-13173180D02*
X13795498Y-13316037D01*
X13795498Y-13316037D02*
X13919307Y-13316037D01*
X13985974Y-13182704D02*
X13985974Y-13220799D01*
X14062165Y-13182704D02*
X14062165Y-13220799D01*
X14357403Y-13458894D02*
X14347879Y-13449370D01*
X14347879Y-13449370D02*
X14328831Y-13420799D01*
X14328831Y-13420799D02*
X14319308Y-13401751D01*
X14319308Y-13401751D02*
X14309784Y-13373180D01*
X14309784Y-13373180D02*
X14300260Y-13325561D01*
X14300260Y-13325561D02*
X14300260Y-13287466D01*
X14300260Y-13287466D02*
X14309784Y-13239847D01*
X14309784Y-13239847D02*
X14319308Y-13211275D01*
X14319308Y-13211275D02*
X14328831Y-13192228D01*
X14328831Y-13192228D02*
X14347879Y-13163656D01*
X14347879Y-13163656D02*
X14357403Y-13154132D01*
X14519308Y-13182704D02*
X14481212Y-13182704D01*
X14481212Y-13182704D02*
X14462165Y-13192228D01*
X14462165Y-13192228D02*
X14452641Y-13201751D01*
X14452641Y-13201751D02*
X14433593Y-13230323D01*
X14433593Y-13230323D02*
X14424069Y-13268418D01*
X14424069Y-13268418D02*
X14424069Y-13344608D01*
X14424069Y-13344608D02*
X14433593Y-13363656D01*
X14433593Y-13363656D02*
X14443117Y-13373180D01*
X14443117Y-13373180D02*
X14462165Y-13382704D01*
X14462165Y-13382704D02*
X14500260Y-13382704D01*
X14500260Y-13382704D02*
X14519308Y-13373180D01*
X14519308Y-13373180D02*
X14528831Y-13363656D01*
X14528831Y-13363656D02*
X14538355Y-13344608D01*
X14538355Y-13344608D02*
X14538355Y-13296989D01*
X14538355Y-13296989D02*
X14528831Y-13277942D01*
X14528831Y-13277942D02*
X14519308Y-13268418D01*
X14519308Y-13268418D02*
X14500260Y-13258894D01*
X14500260Y-13258894D02*
X14462165Y-13258894D01*
X14462165Y-13258894D02*
X14443117Y-13268418D01*
X14443117Y-13268418D02*
X14433593Y-13277942D01*
X14433593Y-13277942D02*
X14424069Y-13296989D01*
X14776450Y-13382704D02*
X14776450Y-13182704D01*
X14862165Y-13382704D02*
X14862165Y-13277942D01*
X14862165Y-13277942D02*
X14852641Y-13258894D01*
X14852641Y-13258894D02*
X14833593Y-13249370D01*
X14833593Y-13249370D02*
X14805022Y-13249370D01*
X14805022Y-13249370D02*
X14785974Y-13258894D01*
X14785974Y-13258894D02*
X14776450Y-13268418D01*
X14985974Y-13382704D02*
X14966927Y-13373180D01*
X14966927Y-13373180D02*
X14957403Y-13363656D01*
X14957403Y-13363656D02*
X14947879Y-13344608D01*
X14947879Y-13344608D02*
X14947879Y-13287466D01*
X14947879Y-13287466D02*
X14957403Y-13268418D01*
X14957403Y-13268418D02*
X14966927Y-13258894D01*
X14966927Y-13258894D02*
X14985974Y-13249370D01*
X14985974Y-13249370D02*
X15014546Y-13249370D01*
X15014546Y-13249370D02*
X15033593Y-13258894D01*
X15033593Y-13258894D02*
X15043117Y-13268418D01*
X15043117Y-13268418D02*
X15052641Y-13287466D01*
X15052641Y-13287466D02*
X15052641Y-13344608D01*
X15052641Y-13344608D02*
X15043117Y-13363656D01*
X15043117Y-13363656D02*
X15033593Y-13373180D01*
X15033593Y-13373180D02*
X15014546Y-13382704D01*
X15014546Y-13382704D02*
X14985974Y-13382704D01*
X15166927Y-13382704D02*
X15147879Y-13373180D01*
X15147879Y-13373180D02*
X15138355Y-13354132D01*
X15138355Y-13354132D02*
X15138355Y-13182704D01*
X15319308Y-13373180D02*
X15300260Y-13382704D01*
X15300260Y-13382704D02*
X15262165Y-13382704D01*
X15262165Y-13382704D02*
X15243117Y-13373180D01*
X15243117Y-13373180D02*
X15233593Y-13354132D01*
X15233593Y-13354132D02*
X15233593Y-13277942D01*
X15233593Y-13277942D02*
X15243117Y-13258894D01*
X15243117Y-13258894D02*
X15262165Y-13249370D01*
X15262165Y-13249370D02*
X15300260Y-13249370D01*
X15300260Y-13249370D02*
X15319308Y-13258894D01*
X15319308Y-13258894D02*
X15328831Y-13277942D01*
X15328831Y-13277942D02*
X15328831Y-13296989D01*
X15328831Y-13296989D02*
X15233593Y-13316037D01*
X15405022Y-13373180D02*
X15424070Y-13382704D01*
X15424070Y-13382704D02*
X15462165Y-13382704D01*
X15462165Y-13382704D02*
X15481212Y-13373180D01*
X15481212Y-13373180D02*
X15490736Y-13354132D01*
X15490736Y-13354132D02*
X15490736Y-13344608D01*
X15490736Y-13344608D02*
X15481212Y-13325561D01*
X15481212Y-13325561D02*
X15462165Y-13316037D01*
X15462165Y-13316037D02*
X15433593Y-13316037D01*
X15433593Y-13316037D02*
X15414546Y-13306513D01*
X15414546Y-13306513D02*
X15405022Y-13287466D01*
X15405022Y-13287466D02*
X15405022Y-13277942D01*
X15405022Y-13277942D02*
X15414546Y-13258894D01*
X15414546Y-13258894D02*
X15433593Y-13249370D01*
X15433593Y-13249370D02*
X15462165Y-13249370D01*
X15462165Y-13249370D02*
X15481212Y-13258894D01*
X15728832Y-13306513D02*
X15881213Y-13306513D01*
X15805022Y-13382704D02*
X15805022Y-13230323D01*
X16109784Y-13182704D02*
X16233593Y-13182704D01*
X16233593Y-13182704D02*
X16166927Y-13258894D01*
X16166927Y-13258894D02*
X16195498Y-13258894D01*
X16195498Y-13258894D02*
X16214546Y-13268418D01*
X16214546Y-13268418D02*
X16224070Y-13277942D01*
X16224070Y-13277942D02*
X16233593Y-13296989D01*
X16233593Y-13296989D02*
X16233593Y-13344608D01*
X16233593Y-13344608D02*
X16224070Y-13363656D01*
X16224070Y-13363656D02*
X16214546Y-13373180D01*
X16214546Y-13373180D02*
X16195498Y-13382704D01*
X16195498Y-13382704D02*
X16138355Y-13382704D01*
X16138355Y-13382704D02*
X16119308Y-13373180D01*
X16119308Y-13373180D02*
X16109784Y-13363656D01*
X16462165Y-13373180D02*
X16481213Y-13382704D01*
X16481213Y-13382704D02*
X16519308Y-13382704D01*
X16519308Y-13382704D02*
X16538355Y-13373180D01*
X16538355Y-13373180D02*
X16547879Y-13354132D01*
X16547879Y-13354132D02*
X16547879Y-13344608D01*
X16547879Y-13344608D02*
X16538355Y-13325561D01*
X16538355Y-13325561D02*
X16519308Y-13316037D01*
X16519308Y-13316037D02*
X16490736Y-13316037D01*
X16490736Y-13316037D02*
X16471689Y-13306513D01*
X16471689Y-13306513D02*
X16462165Y-13287466D01*
X16462165Y-13287466D02*
X16462165Y-13277942D01*
X16462165Y-13277942D02*
X16471689Y-13258894D01*
X16471689Y-13258894D02*
X16490736Y-13249370D01*
X16490736Y-13249370D02*
X16519308Y-13249370D01*
X16519308Y-13249370D02*
X16538355Y-13258894D01*
X16662165Y-13382704D02*
X16643117Y-13373180D01*
X16643117Y-13373180D02*
X16633594Y-13354132D01*
X16633594Y-13354132D02*
X16633594Y-13182704D01*
X16766927Y-13382704D02*
X16747879Y-13373180D01*
X16747879Y-13373180D02*
X16738355Y-13363656D01*
X16738355Y-13363656D02*
X16728832Y-13344608D01*
X16728832Y-13344608D02*
X16728832Y-13287466D01*
X16728832Y-13287466D02*
X16738355Y-13268418D01*
X16738355Y-13268418D02*
X16747879Y-13258894D01*
X16747879Y-13258894D02*
X16766927Y-13249370D01*
X16766927Y-13249370D02*
X16795498Y-13249370D01*
X16795498Y-13249370D02*
X16814546Y-13258894D01*
X16814546Y-13258894D02*
X16824070Y-13268418D01*
X16824070Y-13268418D02*
X16833594Y-13287466D01*
X16833594Y-13287466D02*
X16833594Y-13344608D01*
X16833594Y-13344608D02*
X16824070Y-13363656D01*
X16824070Y-13363656D02*
X16814546Y-13373180D01*
X16814546Y-13373180D02*
X16795498Y-13382704D01*
X16795498Y-13382704D02*
X16766927Y-13382704D01*
X16890737Y-13249370D02*
X16966927Y-13249370D01*
X16919308Y-13182704D02*
X16919308Y-13354132D01*
X16919308Y-13354132D02*
X16928832Y-13373180D01*
X16928832Y-13373180D02*
X16947879Y-13382704D01*
X16947879Y-13382704D02*
X16966927Y-13382704D01*
X17024070Y-13373180D02*
X17043117Y-13382704D01*
X17043117Y-13382704D02*
X17081213Y-13382704D01*
X17081213Y-13382704D02*
X17100260Y-13373180D01*
X17100260Y-13373180D02*
X17109784Y-13354132D01*
X17109784Y-13354132D02*
X17109784Y-13344608D01*
X17109784Y-13344608D02*
X17100260Y-13325561D01*
X17100260Y-13325561D02*
X17081213Y-13316037D01*
X17081213Y-13316037D02*
X17052641Y-13316037D01*
X17052641Y-13316037D02*
X17033594Y-13306513D01*
X17033594Y-13306513D02*
X17024070Y-13287466D01*
X17024070Y-13287466D02*
X17024070Y-13277942D01*
X17024070Y-13277942D02*
X17033594Y-13258894D01*
X17033594Y-13258894D02*
X17052641Y-13249370D01*
X17052641Y-13249370D02*
X17081213Y-13249370D01*
X17081213Y-13249370D02*
X17100260Y-13258894D01*
X17176451Y-13458894D02*
X17185975Y-13449370D01*
X17185975Y-13449370D02*
X17205022Y-13420799D01*
X17205022Y-13420799D02*
X17214546Y-13401751D01*
X17214546Y-13401751D02*
X17224070Y-13373180D01*
X17224070Y-13373180D02*
X17233594Y-13325561D01*
X17233594Y-13325561D02*
X17233594Y-13287466D01*
X17233594Y-13287466D02*
X17224070Y-13239847D01*
X17224070Y-13239847D02*
X17214546Y-13211275D01*
X17214546Y-13211275D02*
X17205022Y-13192228D01*
X17205022Y-13192228D02*
X17185975Y-13163656D01*
X17185975Y-13163656D02*
X17176451Y-13154132D01*
D13*
X10722340Y-13615220D02*
X10782340Y-13555220D01*
X10722340Y-13495220D01*
X10662340Y-13555220D01*
X10722340Y-13615220D01*
D11*
X11147879Y-13646704D02*
X11033593Y-13646704D01*
X11090736Y-13646704D02*
X11090736Y-13446704D01*
X11090736Y-13446704D02*
X11071688Y-13475275D01*
X11071688Y-13475275D02*
X11052641Y-13494323D01*
X11052641Y-13494323D02*
X11033593Y-13503847D01*
X11233593Y-13627656D02*
X11243117Y-13637180D01*
X11243117Y-13637180D02*
X11233593Y-13646704D01*
X11233593Y-13646704D02*
X11224069Y-13637180D01*
X11224069Y-13637180D02*
X11233593Y-13627656D01*
X11233593Y-13627656D02*
X11233593Y-13646704D01*
X11319307Y-13465751D02*
X11328831Y-13456228D01*
X11328831Y-13456228D02*
X11347879Y-13446704D01*
X11347879Y-13446704D02*
X11395498Y-13446704D01*
X11395498Y-13446704D02*
X11414545Y-13456228D01*
X11414545Y-13456228D02*
X11424069Y-13465751D01*
X11424069Y-13465751D02*
X11433593Y-13484799D01*
X11433593Y-13484799D02*
X11433593Y-13503847D01*
X11433593Y-13503847D02*
X11424069Y-13532418D01*
X11424069Y-13532418D02*
X11309783Y-13646704D01*
X11309783Y-13646704D02*
X11433593Y-13646704D01*
X11557402Y-13446704D02*
X11576450Y-13446704D01*
X11576450Y-13446704D02*
X11595498Y-13456228D01*
X11595498Y-13456228D02*
X11605022Y-13465751D01*
X11605022Y-13465751D02*
X11614545Y-13484799D01*
X11614545Y-13484799D02*
X11624069Y-13522894D01*
X11624069Y-13522894D02*
X11624069Y-13570513D01*
X11624069Y-13570513D02*
X11614545Y-13608608D01*
X11614545Y-13608608D02*
X11605022Y-13627656D01*
X11605022Y-13627656D02*
X11595498Y-13637180D01*
X11595498Y-13637180D02*
X11576450Y-13646704D01*
X11576450Y-13646704D02*
X11557402Y-13646704D01*
X11557402Y-13646704D02*
X11538355Y-13637180D01*
X11538355Y-13637180D02*
X11528831Y-13627656D01*
X11528831Y-13627656D02*
X11519307Y-13608608D01*
X11519307Y-13608608D02*
X11509783Y-13570513D01*
X11509783Y-13570513D02*
X11509783Y-13522894D01*
X11509783Y-13522894D02*
X11519307Y-13484799D01*
X11519307Y-13484799D02*
X11528831Y-13465751D01*
X11528831Y-13465751D02*
X11538355Y-13456228D01*
X11538355Y-13456228D02*
X11557402Y-13446704D01*
X11747879Y-13446704D02*
X11766926Y-13446704D01*
X11766926Y-13446704D02*
X11785974Y-13456228D01*
X11785974Y-13456228D02*
X11795498Y-13465751D01*
X11795498Y-13465751D02*
X11805022Y-13484799D01*
X11805022Y-13484799D02*
X11814545Y-13522894D01*
X11814545Y-13522894D02*
X11814545Y-13570513D01*
X11814545Y-13570513D02*
X11805022Y-13608608D01*
X11805022Y-13608608D02*
X11795498Y-13627656D01*
X11795498Y-13627656D02*
X11785974Y-13637180D01*
X11785974Y-13637180D02*
X11766926Y-13646704D01*
X11766926Y-13646704D02*
X11747879Y-13646704D01*
X11747879Y-13646704D02*
X11728831Y-13637180D01*
X11728831Y-13637180D02*
X11719307Y-13627656D01*
X11719307Y-13627656D02*
X11709783Y-13608608D01*
X11709783Y-13608608D02*
X11700260Y-13570513D01*
X11700260Y-13570513D02*
X11700260Y-13522894D01*
X11700260Y-13522894D02*
X11709783Y-13484799D01*
X11709783Y-13484799D02*
X11719307Y-13465751D01*
X11719307Y-13465751D02*
X11728831Y-13456228D01*
X11728831Y-13456228D02*
X11747879Y-13446704D01*
X11900260Y-13646704D02*
X11900260Y-13513370D01*
X11900260Y-13532418D02*
X11909783Y-13522894D01*
X11909783Y-13522894D02*
X11928831Y-13513370D01*
X11928831Y-13513370D02*
X11957403Y-13513370D01*
X11957403Y-13513370D02*
X11976450Y-13522894D01*
X11976450Y-13522894D02*
X11985974Y-13541942D01*
X11985974Y-13541942D02*
X11985974Y-13646704D01*
X11985974Y-13541942D02*
X11995498Y-13522894D01*
X11995498Y-13522894D02*
X12014545Y-13513370D01*
X12014545Y-13513370D02*
X12043117Y-13513370D01*
X12043117Y-13513370D02*
X12062164Y-13522894D01*
X12062164Y-13522894D02*
X12071688Y-13541942D01*
X12071688Y-13541942D02*
X12071688Y-13646704D01*
X12166926Y-13646704D02*
X12166926Y-13513370D01*
X12166926Y-13532418D02*
X12176450Y-13522894D01*
X12176450Y-13522894D02*
X12195498Y-13513370D01*
X12195498Y-13513370D02*
X12224069Y-13513370D01*
X12224069Y-13513370D02*
X12243117Y-13522894D01*
X12243117Y-13522894D02*
X12252641Y-13541942D01*
X12252641Y-13541942D02*
X12252641Y-13646704D01*
X12252641Y-13541942D02*
X12262164Y-13522894D01*
X12262164Y-13522894D02*
X12281212Y-13513370D01*
X12281212Y-13513370D02*
X12309783Y-13513370D01*
X12309783Y-13513370D02*
X12328831Y-13522894D01*
X12328831Y-13522894D02*
X12338355Y-13541942D01*
X12338355Y-13541942D02*
X12338355Y-13646704D01*
X12728831Y-13437180D02*
X12557403Y-13694323D01*
X12985974Y-13446704D02*
X13005022Y-13446704D01*
X13005022Y-13446704D02*
X13024069Y-13456228D01*
X13024069Y-13456228D02*
X13033593Y-13465751D01*
X13033593Y-13465751D02*
X13043117Y-13484799D01*
X13043117Y-13484799D02*
X13052641Y-13522894D01*
X13052641Y-13522894D02*
X13052641Y-13570513D01*
X13052641Y-13570513D02*
X13043117Y-13608608D01*
X13043117Y-13608608D02*
X13033593Y-13627656D01*
X13033593Y-13627656D02*
X13024069Y-13637180D01*
X13024069Y-13637180D02*
X13005022Y-13646704D01*
X13005022Y-13646704D02*
X12985974Y-13646704D01*
X12985974Y-13646704D02*
X12966926Y-13637180D01*
X12966926Y-13637180D02*
X12957403Y-13627656D01*
X12957403Y-13627656D02*
X12947879Y-13608608D01*
X12947879Y-13608608D02*
X12938355Y-13570513D01*
X12938355Y-13570513D02*
X12938355Y-13522894D01*
X12938355Y-13522894D02*
X12947879Y-13484799D01*
X12947879Y-13484799D02*
X12957403Y-13465751D01*
X12957403Y-13465751D02*
X12966926Y-13456228D01*
X12966926Y-13456228D02*
X12985974Y-13446704D01*
X13138355Y-13627656D02*
X13147879Y-13637180D01*
X13147879Y-13637180D02*
X13138355Y-13646704D01*
X13138355Y-13646704D02*
X13128831Y-13637180D01*
X13128831Y-13637180D02*
X13138355Y-13627656D01*
X13138355Y-13627656D02*
X13138355Y-13646704D01*
X13271688Y-13446704D02*
X13290736Y-13446704D01*
X13290736Y-13446704D02*
X13309784Y-13456228D01*
X13309784Y-13456228D02*
X13319307Y-13465751D01*
X13319307Y-13465751D02*
X13328831Y-13484799D01*
X13328831Y-13484799D02*
X13338355Y-13522894D01*
X13338355Y-13522894D02*
X13338355Y-13570513D01*
X13338355Y-13570513D02*
X13328831Y-13608608D01*
X13328831Y-13608608D02*
X13319307Y-13627656D01*
X13319307Y-13627656D02*
X13309784Y-13637180D01*
X13309784Y-13637180D02*
X13290736Y-13646704D01*
X13290736Y-13646704D02*
X13271688Y-13646704D01*
X13271688Y-13646704D02*
X13252641Y-13637180D01*
X13252641Y-13637180D02*
X13243117Y-13627656D01*
X13243117Y-13627656D02*
X13233593Y-13608608D01*
X13233593Y-13608608D02*
X13224069Y-13570513D01*
X13224069Y-13570513D02*
X13224069Y-13522894D01*
X13224069Y-13522894D02*
X13233593Y-13484799D01*
X13233593Y-13484799D02*
X13243117Y-13465751D01*
X13243117Y-13465751D02*
X13252641Y-13456228D01*
X13252641Y-13456228D02*
X13271688Y-13446704D01*
X13509784Y-13513370D02*
X13509784Y-13646704D01*
X13462165Y-13437180D02*
X13414546Y-13580037D01*
X13414546Y-13580037D02*
X13538355Y-13580037D01*
X13595498Y-13446704D02*
X13728831Y-13446704D01*
X13728831Y-13446704D02*
X13643117Y-13646704D01*
X13795498Y-13465751D02*
X13805022Y-13456228D01*
X13805022Y-13456228D02*
X13824069Y-13446704D01*
X13824069Y-13446704D02*
X13871688Y-13446704D01*
X13871688Y-13446704D02*
X13890736Y-13456228D01*
X13890736Y-13456228D02*
X13900260Y-13465751D01*
X13900260Y-13465751D02*
X13909784Y-13484799D01*
X13909784Y-13484799D02*
X13909784Y-13503847D01*
X13909784Y-13503847D02*
X13900260Y-13532418D01*
X13900260Y-13532418D02*
X13785974Y-13646704D01*
X13785974Y-13646704D02*
X13909784Y-13646704D01*
X13985974Y-13446704D02*
X13985974Y-13484799D01*
X14062165Y-13446704D02*
X14062165Y-13484799D01*
X14357403Y-13722894D02*
X14347879Y-13713370D01*
X14347879Y-13713370D02*
X14328831Y-13684799D01*
X14328831Y-13684799D02*
X14319308Y-13665751D01*
X14319308Y-13665751D02*
X14309784Y-13637180D01*
X14309784Y-13637180D02*
X14300260Y-13589561D01*
X14300260Y-13589561D02*
X14300260Y-13551466D01*
X14300260Y-13551466D02*
X14309784Y-13503847D01*
X14309784Y-13503847D02*
X14319308Y-13475275D01*
X14319308Y-13475275D02*
X14328831Y-13456228D01*
X14328831Y-13456228D02*
X14347879Y-13427656D01*
X14347879Y-13427656D02*
X14357403Y-13418132D01*
X14519308Y-13446704D02*
X14481212Y-13446704D01*
X14481212Y-13446704D02*
X14462165Y-13456228D01*
X14462165Y-13456228D02*
X14452641Y-13465751D01*
X14452641Y-13465751D02*
X14433593Y-13494323D01*
X14433593Y-13494323D02*
X14424069Y-13532418D01*
X14424069Y-13532418D02*
X14424069Y-13608608D01*
X14424069Y-13608608D02*
X14433593Y-13627656D01*
X14433593Y-13627656D02*
X14443117Y-13637180D01*
X14443117Y-13637180D02*
X14462165Y-13646704D01*
X14462165Y-13646704D02*
X14500260Y-13646704D01*
X14500260Y-13646704D02*
X14519308Y-13637180D01*
X14519308Y-13637180D02*
X14528831Y-13627656D01*
X14528831Y-13627656D02*
X14538355Y-13608608D01*
X14538355Y-13608608D02*
X14538355Y-13560989D01*
X14538355Y-13560989D02*
X14528831Y-13541942D01*
X14528831Y-13541942D02*
X14519308Y-13532418D01*
X14519308Y-13532418D02*
X14500260Y-13522894D01*
X14500260Y-13522894D02*
X14462165Y-13522894D01*
X14462165Y-13522894D02*
X14443117Y-13532418D01*
X14443117Y-13532418D02*
X14433593Y-13541942D01*
X14433593Y-13541942D02*
X14424069Y-13560989D01*
X14776450Y-13646704D02*
X14776450Y-13446704D01*
X14862165Y-13646704D02*
X14862165Y-13541942D01*
X14862165Y-13541942D02*
X14852641Y-13522894D01*
X14852641Y-13522894D02*
X14833593Y-13513370D01*
X14833593Y-13513370D02*
X14805022Y-13513370D01*
X14805022Y-13513370D02*
X14785974Y-13522894D01*
X14785974Y-13522894D02*
X14776450Y-13532418D01*
X14985974Y-13646704D02*
X14966927Y-13637180D01*
X14966927Y-13637180D02*
X14957403Y-13627656D01*
X14957403Y-13627656D02*
X14947879Y-13608608D01*
X14947879Y-13608608D02*
X14947879Y-13551466D01*
X14947879Y-13551466D02*
X14957403Y-13532418D01*
X14957403Y-13532418D02*
X14966927Y-13522894D01*
X14966927Y-13522894D02*
X14985974Y-13513370D01*
X14985974Y-13513370D02*
X15014546Y-13513370D01*
X15014546Y-13513370D02*
X15033593Y-13522894D01*
X15033593Y-13522894D02*
X15043117Y-13532418D01*
X15043117Y-13532418D02*
X15052641Y-13551466D01*
X15052641Y-13551466D02*
X15052641Y-13608608D01*
X15052641Y-13608608D02*
X15043117Y-13627656D01*
X15043117Y-13627656D02*
X15033593Y-13637180D01*
X15033593Y-13637180D02*
X15014546Y-13646704D01*
X15014546Y-13646704D02*
X14985974Y-13646704D01*
X15166927Y-13646704D02*
X15147879Y-13637180D01*
X15147879Y-13637180D02*
X15138355Y-13618132D01*
X15138355Y-13618132D02*
X15138355Y-13446704D01*
X15319308Y-13637180D02*
X15300260Y-13646704D01*
X15300260Y-13646704D02*
X15262165Y-13646704D01*
X15262165Y-13646704D02*
X15243117Y-13637180D01*
X15243117Y-13637180D02*
X15233593Y-13618132D01*
X15233593Y-13618132D02*
X15233593Y-13541942D01*
X15233593Y-13541942D02*
X15243117Y-13522894D01*
X15243117Y-13522894D02*
X15262165Y-13513370D01*
X15262165Y-13513370D02*
X15300260Y-13513370D01*
X15300260Y-13513370D02*
X15319308Y-13522894D01*
X15319308Y-13522894D02*
X15328831Y-13541942D01*
X15328831Y-13541942D02*
X15328831Y-13560989D01*
X15328831Y-13560989D02*
X15233593Y-13580037D01*
X15405022Y-13637180D02*
X15424070Y-13646704D01*
X15424070Y-13646704D02*
X15462165Y-13646704D01*
X15462165Y-13646704D02*
X15481212Y-13637180D01*
X15481212Y-13637180D02*
X15490736Y-13618132D01*
X15490736Y-13618132D02*
X15490736Y-13608608D01*
X15490736Y-13608608D02*
X15481212Y-13589561D01*
X15481212Y-13589561D02*
X15462165Y-13580037D01*
X15462165Y-13580037D02*
X15433593Y-13580037D01*
X15433593Y-13580037D02*
X15414546Y-13570513D01*
X15414546Y-13570513D02*
X15405022Y-13551466D01*
X15405022Y-13551466D02*
X15405022Y-13541942D01*
X15405022Y-13541942D02*
X15414546Y-13522894D01*
X15414546Y-13522894D02*
X15433593Y-13513370D01*
X15433593Y-13513370D02*
X15462165Y-13513370D01*
X15462165Y-13513370D02*
X15481212Y-13522894D01*
X15557403Y-13722894D02*
X15566927Y-13713370D01*
X15566927Y-13713370D02*
X15585974Y-13684799D01*
X15585974Y-13684799D02*
X15595498Y-13665751D01*
X15595498Y-13665751D02*
X15605022Y-13637180D01*
X15605022Y-13637180D02*
X15614546Y-13589561D01*
X15614546Y-13589561D02*
X15614546Y-13551466D01*
X15614546Y-13551466D02*
X15605022Y-13503847D01*
X15605022Y-13503847D02*
X15595498Y-13475275D01*
X15595498Y-13475275D02*
X15585974Y-13456228D01*
X15585974Y-13456228D02*
X15566927Y-13427656D01*
X15566927Y-13427656D02*
X15557403Y-13418132D01*
D14*
X10642340Y-13749220D02*
X10782340Y-13889220D01*
X10782340Y-13749220D02*
X10642340Y-13889220D01*
X10782340Y-13819220D02*
G75*
G02*
X10642340Y-13819220I-70000J0D01*
G01*
X10642340Y-13819220D02*
G75*
G02*
X10782340Y-13819220I70000J0D01*
G01*
D11*
X11147879Y-13910704D02*
X11033593Y-13910704D01*
X11090736Y-13910704D02*
X11090736Y-13710704D01*
X11090736Y-13710704D02*
X11071688Y-13739275D01*
X11071688Y-13739275D02*
X11052641Y-13758323D01*
X11052641Y-13758323D02*
X11033593Y-13767847D01*
X11233593Y-13891656D02*
X11243117Y-13901180D01*
X11243117Y-13901180D02*
X11233593Y-13910704D01*
X11233593Y-13910704D02*
X11224069Y-13901180D01*
X11224069Y-13901180D02*
X11233593Y-13891656D01*
X11233593Y-13891656D02*
X11233593Y-13910704D01*
X11414545Y-13777370D02*
X11414545Y-13910704D01*
X11366926Y-13701180D02*
X11319307Y-13844037D01*
X11319307Y-13844037D02*
X11443117Y-13844037D01*
X11557402Y-13710704D02*
X11576450Y-13710704D01*
X11576450Y-13710704D02*
X11595498Y-13720228D01*
X11595498Y-13720228D02*
X11605022Y-13729751D01*
X11605022Y-13729751D02*
X11614545Y-13748799D01*
X11614545Y-13748799D02*
X11624069Y-13786894D01*
X11624069Y-13786894D02*
X11624069Y-13834513D01*
X11624069Y-13834513D02*
X11614545Y-13872608D01*
X11614545Y-13872608D02*
X11605022Y-13891656D01*
X11605022Y-13891656D02*
X11595498Y-13901180D01*
X11595498Y-13901180D02*
X11576450Y-13910704D01*
X11576450Y-13910704D02*
X11557402Y-13910704D01*
X11557402Y-13910704D02*
X11538355Y-13901180D01*
X11538355Y-13901180D02*
X11528831Y-13891656D01*
X11528831Y-13891656D02*
X11519307Y-13872608D01*
X11519307Y-13872608D02*
X11509783Y-13834513D01*
X11509783Y-13834513D02*
X11509783Y-13786894D01*
X11509783Y-13786894D02*
X11519307Y-13748799D01*
X11519307Y-13748799D02*
X11528831Y-13729751D01*
X11528831Y-13729751D02*
X11538355Y-13720228D01*
X11538355Y-13720228D02*
X11557402Y-13710704D01*
X11747879Y-13710704D02*
X11766926Y-13710704D01*
X11766926Y-13710704D02*
X11785974Y-13720228D01*
X11785974Y-13720228D02*
X11795498Y-13729751D01*
X11795498Y-13729751D02*
X11805022Y-13748799D01*
X11805022Y-13748799D02*
X11814545Y-13786894D01*
X11814545Y-13786894D02*
X11814545Y-13834513D01*
X11814545Y-13834513D02*
X11805022Y-13872608D01*
X11805022Y-13872608D02*
X11795498Y-13891656D01*
X11795498Y-13891656D02*
X11785974Y-13901180D01*
X11785974Y-13901180D02*
X11766926Y-13910704D01*
X11766926Y-13910704D02*
X11747879Y-13910704D01*
X11747879Y-13910704D02*
X11728831Y-13901180D01*
X11728831Y-13901180D02*
X11719307Y-13891656D01*
X11719307Y-13891656D02*
X11709783Y-13872608D01*
X11709783Y-13872608D02*
X11700260Y-13834513D01*
X11700260Y-13834513D02*
X11700260Y-13786894D01*
X11700260Y-13786894D02*
X11709783Y-13748799D01*
X11709783Y-13748799D02*
X11719307Y-13729751D01*
X11719307Y-13729751D02*
X11728831Y-13720228D01*
X11728831Y-13720228D02*
X11747879Y-13710704D01*
X11900260Y-13910704D02*
X11900260Y-13777370D01*
X11900260Y-13796418D02*
X11909783Y-13786894D01*
X11909783Y-13786894D02*
X11928831Y-13777370D01*
X11928831Y-13777370D02*
X11957403Y-13777370D01*
X11957403Y-13777370D02*
X11976450Y-13786894D01*
X11976450Y-13786894D02*
X11985974Y-13805942D01*
X11985974Y-13805942D02*
X11985974Y-13910704D01*
X11985974Y-13805942D02*
X11995498Y-13786894D01*
X11995498Y-13786894D02*
X12014545Y-13777370D01*
X12014545Y-13777370D02*
X12043117Y-13777370D01*
X12043117Y-13777370D02*
X12062164Y-13786894D01*
X12062164Y-13786894D02*
X12071688Y-13805942D01*
X12071688Y-13805942D02*
X12071688Y-13910704D01*
X12166926Y-13910704D02*
X12166926Y-13777370D01*
X12166926Y-13796418D02*
X12176450Y-13786894D01*
X12176450Y-13786894D02*
X12195498Y-13777370D01*
X12195498Y-13777370D02*
X12224069Y-13777370D01*
X12224069Y-13777370D02*
X12243117Y-13786894D01*
X12243117Y-13786894D02*
X12252641Y-13805942D01*
X12252641Y-13805942D02*
X12252641Y-13910704D01*
X12252641Y-13805942D02*
X12262164Y-13786894D01*
X12262164Y-13786894D02*
X12281212Y-13777370D01*
X12281212Y-13777370D02*
X12309783Y-13777370D01*
X12309783Y-13777370D02*
X12328831Y-13786894D01*
X12328831Y-13786894D02*
X12338355Y-13805942D01*
X12338355Y-13805942D02*
X12338355Y-13910704D01*
X12728831Y-13701180D02*
X12557403Y-13958323D01*
X12985974Y-13710704D02*
X13005022Y-13710704D01*
X13005022Y-13710704D02*
X13024069Y-13720228D01*
X13024069Y-13720228D02*
X13033593Y-13729751D01*
X13033593Y-13729751D02*
X13043117Y-13748799D01*
X13043117Y-13748799D02*
X13052641Y-13786894D01*
X13052641Y-13786894D02*
X13052641Y-13834513D01*
X13052641Y-13834513D02*
X13043117Y-13872608D01*
X13043117Y-13872608D02*
X13033593Y-13891656D01*
X13033593Y-13891656D02*
X13024069Y-13901180D01*
X13024069Y-13901180D02*
X13005022Y-13910704D01*
X13005022Y-13910704D02*
X12985974Y-13910704D01*
X12985974Y-13910704D02*
X12966926Y-13901180D01*
X12966926Y-13901180D02*
X12957403Y-13891656D01*
X12957403Y-13891656D02*
X12947879Y-13872608D01*
X12947879Y-13872608D02*
X12938355Y-13834513D01*
X12938355Y-13834513D02*
X12938355Y-13786894D01*
X12938355Y-13786894D02*
X12947879Y-13748799D01*
X12947879Y-13748799D02*
X12957403Y-13729751D01*
X12957403Y-13729751D02*
X12966926Y-13720228D01*
X12966926Y-13720228D02*
X12985974Y-13710704D01*
X13138355Y-13891656D02*
X13147879Y-13901180D01*
X13147879Y-13901180D02*
X13138355Y-13910704D01*
X13138355Y-13910704D02*
X13128831Y-13901180D01*
X13128831Y-13901180D02*
X13138355Y-13891656D01*
X13138355Y-13891656D02*
X13138355Y-13910704D01*
X13271688Y-13710704D02*
X13290736Y-13710704D01*
X13290736Y-13710704D02*
X13309784Y-13720228D01*
X13309784Y-13720228D02*
X13319307Y-13729751D01*
X13319307Y-13729751D02*
X13328831Y-13748799D01*
X13328831Y-13748799D02*
X13338355Y-13786894D01*
X13338355Y-13786894D02*
X13338355Y-13834513D01*
X13338355Y-13834513D02*
X13328831Y-13872608D01*
X13328831Y-13872608D02*
X13319307Y-13891656D01*
X13319307Y-13891656D02*
X13309784Y-13901180D01*
X13309784Y-13901180D02*
X13290736Y-13910704D01*
X13290736Y-13910704D02*
X13271688Y-13910704D01*
X13271688Y-13910704D02*
X13252641Y-13901180D01*
X13252641Y-13901180D02*
X13243117Y-13891656D01*
X13243117Y-13891656D02*
X13233593Y-13872608D01*
X13233593Y-13872608D02*
X13224069Y-13834513D01*
X13224069Y-13834513D02*
X13224069Y-13786894D01*
X13224069Y-13786894D02*
X13233593Y-13748799D01*
X13233593Y-13748799D02*
X13243117Y-13729751D01*
X13243117Y-13729751D02*
X13252641Y-13720228D01*
X13252641Y-13720228D02*
X13271688Y-13710704D01*
X13519307Y-13710704D02*
X13424069Y-13710704D01*
X13424069Y-13710704D02*
X13414546Y-13805942D01*
X13414546Y-13805942D02*
X13424069Y-13796418D01*
X13424069Y-13796418D02*
X13443117Y-13786894D01*
X13443117Y-13786894D02*
X13490736Y-13786894D01*
X13490736Y-13786894D02*
X13509784Y-13796418D01*
X13509784Y-13796418D02*
X13519307Y-13805942D01*
X13519307Y-13805942D02*
X13528831Y-13824989D01*
X13528831Y-13824989D02*
X13528831Y-13872608D01*
X13528831Y-13872608D02*
X13519307Y-13891656D01*
X13519307Y-13891656D02*
X13509784Y-13901180D01*
X13509784Y-13901180D02*
X13490736Y-13910704D01*
X13490736Y-13910704D02*
X13443117Y-13910704D01*
X13443117Y-13910704D02*
X13424069Y-13901180D01*
X13424069Y-13901180D02*
X13414546Y-13891656D01*
X13709784Y-13710704D02*
X13614546Y-13710704D01*
X13614546Y-13710704D02*
X13605022Y-13805942D01*
X13605022Y-13805942D02*
X13614546Y-13796418D01*
X13614546Y-13796418D02*
X13633593Y-13786894D01*
X13633593Y-13786894D02*
X13681212Y-13786894D01*
X13681212Y-13786894D02*
X13700260Y-13796418D01*
X13700260Y-13796418D02*
X13709784Y-13805942D01*
X13709784Y-13805942D02*
X13719307Y-13824989D01*
X13719307Y-13824989D02*
X13719307Y-13872608D01*
X13719307Y-13872608D02*
X13709784Y-13891656D01*
X13709784Y-13891656D02*
X13700260Y-13901180D01*
X13700260Y-13901180D02*
X13681212Y-13910704D01*
X13681212Y-13910704D02*
X13633593Y-13910704D01*
X13633593Y-13910704D02*
X13614546Y-13901180D01*
X13614546Y-13901180D02*
X13605022Y-13891656D01*
X13909784Y-13910704D02*
X13795498Y-13910704D01*
X13852641Y-13910704D02*
X13852641Y-13710704D01*
X13852641Y-13710704D02*
X13833593Y-13739275D01*
X13833593Y-13739275D02*
X13814546Y-13758323D01*
X13814546Y-13758323D02*
X13795498Y-13767847D01*
X13985974Y-13710704D02*
X13985974Y-13748799D01*
X14062165Y-13710704D02*
X14062165Y-13748799D01*
X14357403Y-13986894D02*
X14347879Y-13977370D01*
X14347879Y-13977370D02*
X14328831Y-13948799D01*
X14328831Y-13948799D02*
X14319308Y-13929751D01*
X14319308Y-13929751D02*
X14309784Y-13901180D01*
X14309784Y-13901180D02*
X14300260Y-13853561D01*
X14300260Y-13853561D02*
X14300260Y-13815466D01*
X14300260Y-13815466D02*
X14309784Y-13767847D01*
X14309784Y-13767847D02*
X14319308Y-13739275D01*
X14319308Y-13739275D02*
X14328831Y-13720228D01*
X14328831Y-13720228D02*
X14347879Y-13691656D01*
X14347879Y-13691656D02*
X14357403Y-13682132D01*
X14519308Y-13777370D02*
X14519308Y-13910704D01*
X14471688Y-13701180D02*
X14424069Y-13844037D01*
X14424069Y-13844037D02*
X14547879Y-13844037D01*
X14776450Y-13910704D02*
X14776450Y-13710704D01*
X14862165Y-13910704D02*
X14862165Y-13805942D01*
X14862165Y-13805942D02*
X14852641Y-13786894D01*
X14852641Y-13786894D02*
X14833593Y-13777370D01*
X14833593Y-13777370D02*
X14805022Y-13777370D01*
X14805022Y-13777370D02*
X14785974Y-13786894D01*
X14785974Y-13786894D02*
X14776450Y-13796418D01*
X14985974Y-13910704D02*
X14966927Y-13901180D01*
X14966927Y-13901180D02*
X14957403Y-13891656D01*
X14957403Y-13891656D02*
X14947879Y-13872608D01*
X14947879Y-13872608D02*
X14947879Y-13815466D01*
X14947879Y-13815466D02*
X14957403Y-13796418D01*
X14957403Y-13796418D02*
X14966927Y-13786894D01*
X14966927Y-13786894D02*
X14985974Y-13777370D01*
X14985974Y-13777370D02*
X15014546Y-13777370D01*
X15014546Y-13777370D02*
X15033593Y-13786894D01*
X15033593Y-13786894D02*
X15043117Y-13796418D01*
X15043117Y-13796418D02*
X15052641Y-13815466D01*
X15052641Y-13815466D02*
X15052641Y-13872608D01*
X15052641Y-13872608D02*
X15043117Y-13891656D01*
X15043117Y-13891656D02*
X15033593Y-13901180D01*
X15033593Y-13901180D02*
X15014546Y-13910704D01*
X15014546Y-13910704D02*
X14985974Y-13910704D01*
X15166927Y-13910704D02*
X15147879Y-13901180D01*
X15147879Y-13901180D02*
X15138355Y-13882132D01*
X15138355Y-13882132D02*
X15138355Y-13710704D01*
X15319308Y-13901180D02*
X15300260Y-13910704D01*
X15300260Y-13910704D02*
X15262165Y-13910704D01*
X15262165Y-13910704D02*
X15243117Y-13901180D01*
X15243117Y-13901180D02*
X15233593Y-13882132D01*
X15233593Y-13882132D02*
X15233593Y-13805942D01*
X15233593Y-13805942D02*
X15243117Y-13786894D01*
X15243117Y-13786894D02*
X15262165Y-13777370D01*
X15262165Y-13777370D02*
X15300260Y-13777370D01*
X15300260Y-13777370D02*
X15319308Y-13786894D01*
X15319308Y-13786894D02*
X15328831Y-13805942D01*
X15328831Y-13805942D02*
X15328831Y-13824989D01*
X15328831Y-13824989D02*
X15233593Y-13844037D01*
X15405022Y-13901180D02*
X15424070Y-13910704D01*
X15424070Y-13910704D02*
X15462165Y-13910704D01*
X15462165Y-13910704D02*
X15481212Y-13901180D01*
X15481212Y-13901180D02*
X15490736Y-13882132D01*
X15490736Y-13882132D02*
X15490736Y-13872608D01*
X15490736Y-13872608D02*
X15481212Y-13853561D01*
X15481212Y-13853561D02*
X15462165Y-13844037D01*
X15462165Y-13844037D02*
X15433593Y-13844037D01*
X15433593Y-13844037D02*
X15414546Y-13834513D01*
X15414546Y-13834513D02*
X15405022Y-13815466D01*
X15405022Y-13815466D02*
X15405022Y-13805942D01*
X15405022Y-13805942D02*
X15414546Y-13786894D01*
X15414546Y-13786894D02*
X15433593Y-13777370D01*
X15433593Y-13777370D02*
X15462165Y-13777370D01*
X15462165Y-13777370D02*
X15481212Y-13786894D01*
X15557403Y-13986894D02*
X15566927Y-13977370D01*
X15566927Y-13977370D02*
X15585974Y-13948799D01*
X15585974Y-13948799D02*
X15595498Y-13929751D01*
X15595498Y-13929751D02*
X15605022Y-13901180D01*
X15605022Y-13901180D02*
X15614546Y-13853561D01*
X15614546Y-13853561D02*
X15614546Y-13815466D01*
X15614546Y-13815466D02*
X15605022Y-13767847D01*
X15605022Y-13767847D02*
X15595498Y-13739275D01*
X15595498Y-13739275D02*
X15585974Y-13720228D01*
X15585974Y-13720228D02*
X15566927Y-13691656D01*
X15566927Y-13691656D02*
X15557403Y-13682132D01*
D15*
X10630340Y-14007220D02*
X10782340Y-14159220D01*
X10782340Y-14007220D02*
X10630340Y-14159220D01*
X10706340Y-14007220D02*
X10706340Y-14159220D01*
X10630340Y-14083220D02*
X10782340Y-14083220D01*
D11*
X11147879Y-14174704D02*
X11033593Y-14174704D01*
X11090736Y-14174704D02*
X11090736Y-13974704D01*
X11090736Y-13974704D02*
X11071688Y-14003275D01*
X11071688Y-14003275D02*
X11052641Y-14022323D01*
X11052641Y-14022323D02*
X11033593Y-14031847D01*
X11233593Y-14155656D02*
X11243117Y-14165180D01*
X11243117Y-14165180D02*
X11233593Y-14174704D01*
X11233593Y-14174704D02*
X11224069Y-14165180D01*
X11224069Y-14165180D02*
X11233593Y-14155656D01*
X11233593Y-14155656D02*
X11233593Y-14174704D01*
X11424069Y-13974704D02*
X11328831Y-13974704D01*
X11328831Y-13974704D02*
X11319307Y-14069942D01*
X11319307Y-14069942D02*
X11328831Y-14060418D01*
X11328831Y-14060418D02*
X11347879Y-14050894D01*
X11347879Y-14050894D02*
X11395498Y-14050894D01*
X11395498Y-14050894D02*
X11414545Y-14060418D01*
X11414545Y-14060418D02*
X11424069Y-14069942D01*
X11424069Y-14069942D02*
X11433593Y-14088989D01*
X11433593Y-14088989D02*
X11433593Y-14136608D01*
X11433593Y-14136608D02*
X11424069Y-14155656D01*
X11424069Y-14155656D02*
X11414545Y-14165180D01*
X11414545Y-14165180D02*
X11395498Y-14174704D01*
X11395498Y-14174704D02*
X11347879Y-14174704D01*
X11347879Y-14174704D02*
X11328831Y-14165180D01*
X11328831Y-14165180D02*
X11319307Y-14155656D01*
X11509783Y-13993751D02*
X11519307Y-13984228D01*
X11519307Y-13984228D02*
X11538355Y-13974704D01*
X11538355Y-13974704D02*
X11585974Y-13974704D01*
X11585974Y-13974704D02*
X11605022Y-13984228D01*
X11605022Y-13984228D02*
X11614545Y-13993751D01*
X11614545Y-13993751D02*
X11624069Y-14012799D01*
X11624069Y-14012799D02*
X11624069Y-14031847D01*
X11624069Y-14031847D02*
X11614545Y-14060418D01*
X11614545Y-14060418D02*
X11500260Y-14174704D01*
X11500260Y-14174704D02*
X11624069Y-14174704D01*
X11747879Y-13974704D02*
X11766926Y-13974704D01*
X11766926Y-13974704D02*
X11785974Y-13984228D01*
X11785974Y-13984228D02*
X11795498Y-13993751D01*
X11795498Y-13993751D02*
X11805022Y-14012799D01*
X11805022Y-14012799D02*
X11814545Y-14050894D01*
X11814545Y-14050894D02*
X11814545Y-14098513D01*
X11814545Y-14098513D02*
X11805022Y-14136608D01*
X11805022Y-14136608D02*
X11795498Y-14155656D01*
X11795498Y-14155656D02*
X11785974Y-14165180D01*
X11785974Y-14165180D02*
X11766926Y-14174704D01*
X11766926Y-14174704D02*
X11747879Y-14174704D01*
X11747879Y-14174704D02*
X11728831Y-14165180D01*
X11728831Y-14165180D02*
X11719307Y-14155656D01*
X11719307Y-14155656D02*
X11709783Y-14136608D01*
X11709783Y-14136608D02*
X11700260Y-14098513D01*
X11700260Y-14098513D02*
X11700260Y-14050894D01*
X11700260Y-14050894D02*
X11709783Y-14012799D01*
X11709783Y-14012799D02*
X11719307Y-13993751D01*
X11719307Y-13993751D02*
X11728831Y-13984228D01*
X11728831Y-13984228D02*
X11747879Y-13974704D01*
X11900260Y-14174704D02*
X11900260Y-14041370D01*
X11900260Y-14060418D02*
X11909783Y-14050894D01*
X11909783Y-14050894D02*
X11928831Y-14041370D01*
X11928831Y-14041370D02*
X11957403Y-14041370D01*
X11957403Y-14041370D02*
X11976450Y-14050894D01*
X11976450Y-14050894D02*
X11985974Y-14069942D01*
X11985974Y-14069942D02*
X11985974Y-14174704D01*
X11985974Y-14069942D02*
X11995498Y-14050894D01*
X11995498Y-14050894D02*
X12014545Y-14041370D01*
X12014545Y-14041370D02*
X12043117Y-14041370D01*
X12043117Y-14041370D02*
X12062164Y-14050894D01*
X12062164Y-14050894D02*
X12071688Y-14069942D01*
X12071688Y-14069942D02*
X12071688Y-14174704D01*
X12166926Y-14174704D02*
X12166926Y-14041370D01*
X12166926Y-14060418D02*
X12176450Y-14050894D01*
X12176450Y-14050894D02*
X12195498Y-14041370D01*
X12195498Y-14041370D02*
X12224069Y-14041370D01*
X12224069Y-14041370D02*
X12243117Y-14050894D01*
X12243117Y-14050894D02*
X12252641Y-14069942D01*
X12252641Y-14069942D02*
X12252641Y-14174704D01*
X12252641Y-14069942D02*
X12262164Y-14050894D01*
X12262164Y-14050894D02*
X12281212Y-14041370D01*
X12281212Y-14041370D02*
X12309783Y-14041370D01*
X12309783Y-14041370D02*
X12328831Y-14050894D01*
X12328831Y-14050894D02*
X12338355Y-14069942D01*
X12338355Y-14069942D02*
X12338355Y-14174704D01*
X12728831Y-13965180D02*
X12557403Y-14222323D01*
X12985974Y-13974704D02*
X13005022Y-13974704D01*
X13005022Y-13974704D02*
X13024069Y-13984228D01*
X13024069Y-13984228D02*
X13033593Y-13993751D01*
X13033593Y-13993751D02*
X13043117Y-14012799D01*
X13043117Y-14012799D02*
X13052641Y-14050894D01*
X13052641Y-14050894D02*
X13052641Y-14098513D01*
X13052641Y-14098513D02*
X13043117Y-14136608D01*
X13043117Y-14136608D02*
X13033593Y-14155656D01*
X13033593Y-14155656D02*
X13024069Y-14165180D01*
X13024069Y-14165180D02*
X13005022Y-14174704D01*
X13005022Y-14174704D02*
X12985974Y-14174704D01*
X12985974Y-14174704D02*
X12966926Y-14165180D01*
X12966926Y-14165180D02*
X12957403Y-14155656D01*
X12957403Y-14155656D02*
X12947879Y-14136608D01*
X12947879Y-14136608D02*
X12938355Y-14098513D01*
X12938355Y-14098513D02*
X12938355Y-14050894D01*
X12938355Y-14050894D02*
X12947879Y-14012799D01*
X12947879Y-14012799D02*
X12957403Y-13993751D01*
X12957403Y-13993751D02*
X12966926Y-13984228D01*
X12966926Y-13984228D02*
X12985974Y-13974704D01*
X13138355Y-14155656D02*
X13147879Y-14165180D01*
X13147879Y-14165180D02*
X13138355Y-14174704D01*
X13138355Y-14174704D02*
X13128831Y-14165180D01*
X13128831Y-14165180D02*
X13138355Y-14155656D01*
X13138355Y-14155656D02*
X13138355Y-14174704D01*
X13271688Y-13974704D02*
X13290736Y-13974704D01*
X13290736Y-13974704D02*
X13309784Y-13984228D01*
X13309784Y-13984228D02*
X13319307Y-13993751D01*
X13319307Y-13993751D02*
X13328831Y-14012799D01*
X13328831Y-14012799D02*
X13338355Y-14050894D01*
X13338355Y-14050894D02*
X13338355Y-14098513D01*
X13338355Y-14098513D02*
X13328831Y-14136608D01*
X13328831Y-14136608D02*
X13319307Y-14155656D01*
X13319307Y-14155656D02*
X13309784Y-14165180D01*
X13309784Y-14165180D02*
X13290736Y-14174704D01*
X13290736Y-14174704D02*
X13271688Y-14174704D01*
X13271688Y-14174704D02*
X13252641Y-14165180D01*
X13252641Y-14165180D02*
X13243117Y-14155656D01*
X13243117Y-14155656D02*
X13233593Y-14136608D01*
X13233593Y-14136608D02*
X13224069Y-14098513D01*
X13224069Y-14098513D02*
X13224069Y-14050894D01*
X13224069Y-14050894D02*
X13233593Y-14012799D01*
X13233593Y-14012799D02*
X13243117Y-13993751D01*
X13243117Y-13993751D02*
X13252641Y-13984228D01*
X13252641Y-13984228D02*
X13271688Y-13974704D01*
X13519307Y-13974704D02*
X13424069Y-13974704D01*
X13424069Y-13974704D02*
X13414546Y-14069942D01*
X13414546Y-14069942D02*
X13424069Y-14060418D01*
X13424069Y-14060418D02*
X13443117Y-14050894D01*
X13443117Y-14050894D02*
X13490736Y-14050894D01*
X13490736Y-14050894D02*
X13509784Y-14060418D01*
X13509784Y-14060418D02*
X13519307Y-14069942D01*
X13519307Y-14069942D02*
X13528831Y-14088989D01*
X13528831Y-14088989D02*
X13528831Y-14136608D01*
X13528831Y-14136608D02*
X13519307Y-14155656D01*
X13519307Y-14155656D02*
X13509784Y-14165180D01*
X13509784Y-14165180D02*
X13490736Y-14174704D01*
X13490736Y-14174704D02*
X13443117Y-14174704D01*
X13443117Y-14174704D02*
X13424069Y-14165180D01*
X13424069Y-14165180D02*
X13414546Y-14155656D01*
X13624069Y-14174704D02*
X13662165Y-14174704D01*
X13662165Y-14174704D02*
X13681212Y-14165180D01*
X13681212Y-14165180D02*
X13690736Y-14155656D01*
X13690736Y-14155656D02*
X13709784Y-14127085D01*
X13709784Y-14127085D02*
X13719307Y-14088989D01*
X13719307Y-14088989D02*
X13719307Y-14012799D01*
X13719307Y-14012799D02*
X13709784Y-13993751D01*
X13709784Y-13993751D02*
X13700260Y-13984228D01*
X13700260Y-13984228D02*
X13681212Y-13974704D01*
X13681212Y-13974704D02*
X13643117Y-13974704D01*
X13643117Y-13974704D02*
X13624069Y-13984228D01*
X13624069Y-13984228D02*
X13614546Y-13993751D01*
X13614546Y-13993751D02*
X13605022Y-14012799D01*
X13605022Y-14012799D02*
X13605022Y-14060418D01*
X13605022Y-14060418D02*
X13614546Y-14079466D01*
X13614546Y-14079466D02*
X13624069Y-14088989D01*
X13624069Y-14088989D02*
X13643117Y-14098513D01*
X13643117Y-14098513D02*
X13681212Y-14098513D01*
X13681212Y-14098513D02*
X13700260Y-14088989D01*
X13700260Y-14088989D02*
X13709784Y-14079466D01*
X13709784Y-14079466D02*
X13719307Y-14060418D01*
X13833593Y-14060418D02*
X13814546Y-14050894D01*
X13814546Y-14050894D02*
X13805022Y-14041370D01*
X13805022Y-14041370D02*
X13795498Y-14022323D01*
X13795498Y-14022323D02*
X13795498Y-14012799D01*
X13795498Y-14012799D02*
X13805022Y-13993751D01*
X13805022Y-13993751D02*
X13814546Y-13984228D01*
X13814546Y-13984228D02*
X13833593Y-13974704D01*
X13833593Y-13974704D02*
X13871688Y-13974704D01*
X13871688Y-13974704D02*
X13890736Y-13984228D01*
X13890736Y-13984228D02*
X13900260Y-13993751D01*
X13900260Y-13993751D02*
X13909784Y-14012799D01*
X13909784Y-14012799D02*
X13909784Y-14022323D01*
X13909784Y-14022323D02*
X13900260Y-14041370D01*
X13900260Y-14041370D02*
X13890736Y-14050894D01*
X13890736Y-14050894D02*
X13871688Y-14060418D01*
X13871688Y-14060418D02*
X13833593Y-14060418D01*
X13833593Y-14060418D02*
X13814546Y-14069942D01*
X13814546Y-14069942D02*
X13805022Y-14079466D01*
X13805022Y-14079466D02*
X13795498Y-14098513D01*
X13795498Y-14098513D02*
X13795498Y-14136608D01*
X13795498Y-14136608D02*
X13805022Y-14155656D01*
X13805022Y-14155656D02*
X13814546Y-14165180D01*
X13814546Y-14165180D02*
X13833593Y-14174704D01*
X13833593Y-14174704D02*
X13871688Y-14174704D01*
X13871688Y-14174704D02*
X13890736Y-14165180D01*
X13890736Y-14165180D02*
X13900260Y-14155656D01*
X13900260Y-14155656D02*
X13909784Y-14136608D01*
X13909784Y-14136608D02*
X13909784Y-14098513D01*
X13909784Y-14098513D02*
X13900260Y-14079466D01*
X13900260Y-14079466D02*
X13890736Y-14069942D01*
X13890736Y-14069942D02*
X13871688Y-14060418D01*
X13985974Y-13974704D02*
X13985974Y-14012799D01*
X14062165Y-13974704D02*
X14062165Y-14012799D01*
X14357403Y-14250894D02*
X14347879Y-14241370D01*
X14347879Y-14241370D02*
X14328831Y-14212799D01*
X14328831Y-14212799D02*
X14319308Y-14193751D01*
X14319308Y-14193751D02*
X14309784Y-14165180D01*
X14309784Y-14165180D02*
X14300260Y-14117561D01*
X14300260Y-14117561D02*
X14300260Y-14079466D01*
X14300260Y-14079466D02*
X14309784Y-14031847D01*
X14309784Y-14031847D02*
X14319308Y-14003275D01*
X14319308Y-14003275D02*
X14328831Y-13984228D01*
X14328831Y-13984228D02*
X14347879Y-13955656D01*
X14347879Y-13955656D02*
X14357403Y-13946132D01*
X14424069Y-13993751D02*
X14433593Y-13984228D01*
X14433593Y-13984228D02*
X14452641Y-13974704D01*
X14452641Y-13974704D02*
X14500260Y-13974704D01*
X14500260Y-13974704D02*
X14519308Y-13984228D01*
X14519308Y-13984228D02*
X14528831Y-13993751D01*
X14528831Y-13993751D02*
X14538355Y-14012799D01*
X14538355Y-14012799D02*
X14538355Y-14031847D01*
X14538355Y-14031847D02*
X14528831Y-14060418D01*
X14528831Y-14060418D02*
X14414546Y-14174704D01*
X14414546Y-14174704D02*
X14538355Y-14174704D01*
X14776450Y-14174704D02*
X14776450Y-13974704D01*
X14862165Y-14174704D02*
X14862165Y-14069942D01*
X14862165Y-14069942D02*
X14852641Y-14050894D01*
X14852641Y-14050894D02*
X14833593Y-14041370D01*
X14833593Y-14041370D02*
X14805022Y-14041370D01*
X14805022Y-14041370D02*
X14785974Y-14050894D01*
X14785974Y-14050894D02*
X14776450Y-14060418D01*
X14985974Y-14174704D02*
X14966927Y-14165180D01*
X14966927Y-14165180D02*
X14957403Y-14155656D01*
X14957403Y-14155656D02*
X14947879Y-14136608D01*
X14947879Y-14136608D02*
X14947879Y-14079466D01*
X14947879Y-14079466D02*
X14957403Y-14060418D01*
X14957403Y-14060418D02*
X14966927Y-14050894D01*
X14966927Y-14050894D02*
X14985974Y-14041370D01*
X14985974Y-14041370D02*
X15014546Y-14041370D01*
X15014546Y-14041370D02*
X15033593Y-14050894D01*
X15033593Y-14050894D02*
X15043117Y-14060418D01*
X15043117Y-14060418D02*
X15052641Y-14079466D01*
X15052641Y-14079466D02*
X15052641Y-14136608D01*
X15052641Y-14136608D02*
X15043117Y-14155656D01*
X15043117Y-14155656D02*
X15033593Y-14165180D01*
X15033593Y-14165180D02*
X15014546Y-14174704D01*
X15014546Y-14174704D02*
X14985974Y-14174704D01*
X15166927Y-14174704D02*
X15147879Y-14165180D01*
X15147879Y-14165180D02*
X15138355Y-14146132D01*
X15138355Y-14146132D02*
X15138355Y-13974704D01*
X15319308Y-14165180D02*
X15300260Y-14174704D01*
X15300260Y-14174704D02*
X15262165Y-14174704D01*
X15262165Y-14174704D02*
X15243117Y-14165180D01*
X15243117Y-14165180D02*
X15233593Y-14146132D01*
X15233593Y-14146132D02*
X15233593Y-14069942D01*
X15233593Y-14069942D02*
X15243117Y-14050894D01*
X15243117Y-14050894D02*
X15262165Y-14041370D01*
X15262165Y-14041370D02*
X15300260Y-14041370D01*
X15300260Y-14041370D02*
X15319308Y-14050894D01*
X15319308Y-14050894D02*
X15328831Y-14069942D01*
X15328831Y-14069942D02*
X15328831Y-14088989D01*
X15328831Y-14088989D02*
X15233593Y-14108037D01*
X15405022Y-14165180D02*
X15424070Y-14174704D01*
X15424070Y-14174704D02*
X15462165Y-14174704D01*
X15462165Y-14174704D02*
X15481212Y-14165180D01*
X15481212Y-14165180D02*
X15490736Y-14146132D01*
X15490736Y-14146132D02*
X15490736Y-14136608D01*
X15490736Y-14136608D02*
X15481212Y-14117561D01*
X15481212Y-14117561D02*
X15462165Y-14108037D01*
X15462165Y-14108037D02*
X15433593Y-14108037D01*
X15433593Y-14108037D02*
X15414546Y-14098513D01*
X15414546Y-14098513D02*
X15405022Y-14079466D01*
X15405022Y-14079466D02*
X15405022Y-14069942D01*
X15405022Y-14069942D02*
X15414546Y-14050894D01*
X15414546Y-14050894D02*
X15433593Y-14041370D01*
X15433593Y-14041370D02*
X15462165Y-14041370D01*
X15462165Y-14041370D02*
X15481212Y-14050894D01*
X15557403Y-14250894D02*
X15566927Y-14241370D01*
X15566927Y-14241370D02*
X15585974Y-14212799D01*
X15585974Y-14212799D02*
X15595498Y-14193751D01*
X15595498Y-14193751D02*
X15605022Y-14165180D01*
X15605022Y-14165180D02*
X15614546Y-14117561D01*
X15614546Y-14117561D02*
X15614546Y-14079466D01*
X15614546Y-14079466D02*
X15605022Y-14031847D01*
X15605022Y-14031847D02*
X15595498Y-14003275D01*
X15595498Y-14003275D02*
X15585974Y-13984228D01*
X15585974Y-13984228D02*
X15566927Y-13955656D01*
X15566927Y-13955656D02*
X15557403Y-13946132D01*
X10582340Y-14255220D02*
X10782340Y-14455220D01*
X10782340Y-14255220D02*
X10582340Y-14455220D01*
X10753051Y-14425931D02*
X10753051Y-14284509D01*
X10611629Y-14284509D01*
X10611629Y-14425931D01*
X10753051Y-14425931D01*
X11024069Y-14246704D02*
X11147879Y-14246704D01*
X11147879Y-14246704D02*
X11081212Y-14322894D01*
X11081212Y-14322894D02*
X11109784Y-14322894D01*
X11109784Y-14322894D02*
X11128831Y-14332418D01*
X11128831Y-14332418D02*
X11138355Y-14341942D01*
X11138355Y-14341942D02*
X11147879Y-14360989D01*
X11147879Y-14360989D02*
X11147879Y-14408608D01*
X11147879Y-14408608D02*
X11138355Y-14427656D01*
X11138355Y-14427656D02*
X11128831Y-14437180D01*
X11128831Y-14437180D02*
X11109784Y-14446704D01*
X11109784Y-14446704D02*
X11052641Y-14446704D01*
X11052641Y-14446704D02*
X11033593Y-14437180D01*
X11033593Y-14437180D02*
X11024069Y-14427656D01*
X11233593Y-14427656D02*
X11243117Y-14437180D01*
X11243117Y-14437180D02*
X11233593Y-14446704D01*
X11233593Y-14446704D02*
X11224069Y-14437180D01*
X11224069Y-14437180D02*
X11233593Y-14427656D01*
X11233593Y-14427656D02*
X11233593Y-14446704D01*
X11366926Y-14246704D02*
X11385974Y-14246704D01*
X11385974Y-14246704D02*
X11405022Y-14256228D01*
X11405022Y-14256228D02*
X11414545Y-14265751D01*
X11414545Y-14265751D02*
X11424069Y-14284799D01*
X11424069Y-14284799D02*
X11433593Y-14322894D01*
X11433593Y-14322894D02*
X11433593Y-14370513D01*
X11433593Y-14370513D02*
X11424069Y-14408608D01*
X11424069Y-14408608D02*
X11414545Y-14427656D01*
X11414545Y-14427656D02*
X11405022Y-14437180D01*
X11405022Y-14437180D02*
X11385974Y-14446704D01*
X11385974Y-14446704D02*
X11366926Y-14446704D01*
X11366926Y-14446704D02*
X11347879Y-14437180D01*
X11347879Y-14437180D02*
X11338355Y-14427656D01*
X11338355Y-14427656D02*
X11328831Y-14408608D01*
X11328831Y-14408608D02*
X11319307Y-14370513D01*
X11319307Y-14370513D02*
X11319307Y-14322894D01*
X11319307Y-14322894D02*
X11328831Y-14284799D01*
X11328831Y-14284799D02*
X11338355Y-14265751D01*
X11338355Y-14265751D02*
X11347879Y-14256228D01*
X11347879Y-14256228D02*
X11366926Y-14246704D01*
X11557402Y-14246704D02*
X11576450Y-14246704D01*
X11576450Y-14246704D02*
X11595498Y-14256228D01*
X11595498Y-14256228D02*
X11605022Y-14265751D01*
X11605022Y-14265751D02*
X11614545Y-14284799D01*
X11614545Y-14284799D02*
X11624069Y-14322894D01*
X11624069Y-14322894D02*
X11624069Y-14370513D01*
X11624069Y-14370513D02*
X11614545Y-14408608D01*
X11614545Y-14408608D02*
X11605022Y-14427656D01*
X11605022Y-14427656D02*
X11595498Y-14437180D01*
X11595498Y-14437180D02*
X11576450Y-14446704D01*
X11576450Y-14446704D02*
X11557402Y-14446704D01*
X11557402Y-14446704D02*
X11538355Y-14437180D01*
X11538355Y-14437180D02*
X11528831Y-14427656D01*
X11528831Y-14427656D02*
X11519307Y-14408608D01*
X11519307Y-14408608D02*
X11509783Y-14370513D01*
X11509783Y-14370513D02*
X11509783Y-14322894D01*
X11509783Y-14322894D02*
X11519307Y-14284799D01*
X11519307Y-14284799D02*
X11528831Y-14265751D01*
X11528831Y-14265751D02*
X11538355Y-14256228D01*
X11538355Y-14256228D02*
X11557402Y-14246704D01*
X11747879Y-14246704D02*
X11766926Y-14246704D01*
X11766926Y-14246704D02*
X11785974Y-14256228D01*
X11785974Y-14256228D02*
X11795498Y-14265751D01*
X11795498Y-14265751D02*
X11805022Y-14284799D01*
X11805022Y-14284799D02*
X11814545Y-14322894D01*
X11814545Y-14322894D02*
X11814545Y-14370513D01*
X11814545Y-14370513D02*
X11805022Y-14408608D01*
X11805022Y-14408608D02*
X11795498Y-14427656D01*
X11795498Y-14427656D02*
X11785974Y-14437180D01*
X11785974Y-14437180D02*
X11766926Y-14446704D01*
X11766926Y-14446704D02*
X11747879Y-14446704D01*
X11747879Y-14446704D02*
X11728831Y-14437180D01*
X11728831Y-14437180D02*
X11719307Y-14427656D01*
X11719307Y-14427656D02*
X11709783Y-14408608D01*
X11709783Y-14408608D02*
X11700260Y-14370513D01*
X11700260Y-14370513D02*
X11700260Y-14322894D01*
X11700260Y-14322894D02*
X11709783Y-14284799D01*
X11709783Y-14284799D02*
X11719307Y-14265751D01*
X11719307Y-14265751D02*
X11728831Y-14256228D01*
X11728831Y-14256228D02*
X11747879Y-14246704D01*
X11900260Y-14446704D02*
X11900260Y-14313370D01*
X11900260Y-14332418D02*
X11909783Y-14322894D01*
X11909783Y-14322894D02*
X11928831Y-14313370D01*
X11928831Y-14313370D02*
X11957403Y-14313370D01*
X11957403Y-14313370D02*
X11976450Y-14322894D01*
X11976450Y-14322894D02*
X11985974Y-14341942D01*
X11985974Y-14341942D02*
X11985974Y-14446704D01*
X11985974Y-14341942D02*
X11995498Y-14322894D01*
X11995498Y-14322894D02*
X12014545Y-14313370D01*
X12014545Y-14313370D02*
X12043117Y-14313370D01*
X12043117Y-14313370D02*
X12062164Y-14322894D01*
X12062164Y-14322894D02*
X12071688Y-14341942D01*
X12071688Y-14341942D02*
X12071688Y-14446704D01*
X12166926Y-14446704D02*
X12166926Y-14313370D01*
X12166926Y-14332418D02*
X12176450Y-14322894D01*
X12176450Y-14322894D02*
X12195498Y-14313370D01*
X12195498Y-14313370D02*
X12224069Y-14313370D01*
X12224069Y-14313370D02*
X12243117Y-14322894D01*
X12243117Y-14322894D02*
X12252641Y-14341942D01*
X12252641Y-14341942D02*
X12252641Y-14446704D01*
X12252641Y-14341942D02*
X12262164Y-14322894D01*
X12262164Y-14322894D02*
X12281212Y-14313370D01*
X12281212Y-14313370D02*
X12309783Y-14313370D01*
X12309783Y-14313370D02*
X12328831Y-14322894D01*
X12328831Y-14322894D02*
X12338355Y-14341942D01*
X12338355Y-14341942D02*
X12338355Y-14446704D01*
X12728831Y-14237180D02*
X12557403Y-14494323D01*
X12985974Y-14246704D02*
X13005022Y-14246704D01*
X13005022Y-14246704D02*
X13024069Y-14256228D01*
X13024069Y-14256228D02*
X13033593Y-14265751D01*
X13033593Y-14265751D02*
X13043117Y-14284799D01*
X13043117Y-14284799D02*
X13052641Y-14322894D01*
X13052641Y-14322894D02*
X13052641Y-14370513D01*
X13052641Y-14370513D02*
X13043117Y-14408608D01*
X13043117Y-14408608D02*
X13033593Y-14427656D01*
X13033593Y-14427656D02*
X13024069Y-14437180D01*
X13024069Y-14437180D02*
X13005022Y-14446704D01*
X13005022Y-14446704D02*
X12985974Y-14446704D01*
X12985974Y-14446704D02*
X12966926Y-14437180D01*
X12966926Y-14437180D02*
X12957403Y-14427656D01*
X12957403Y-14427656D02*
X12947879Y-14408608D01*
X12947879Y-14408608D02*
X12938355Y-14370513D01*
X12938355Y-14370513D02*
X12938355Y-14322894D01*
X12938355Y-14322894D02*
X12947879Y-14284799D01*
X12947879Y-14284799D02*
X12957403Y-14265751D01*
X12957403Y-14265751D02*
X12966926Y-14256228D01*
X12966926Y-14256228D02*
X12985974Y-14246704D01*
X13138355Y-14427656D02*
X13147879Y-14437180D01*
X13147879Y-14437180D02*
X13138355Y-14446704D01*
X13138355Y-14446704D02*
X13128831Y-14437180D01*
X13128831Y-14437180D02*
X13138355Y-14427656D01*
X13138355Y-14427656D02*
X13138355Y-14446704D01*
X13338355Y-14446704D02*
X13224069Y-14446704D01*
X13281212Y-14446704D02*
X13281212Y-14246704D01*
X13281212Y-14246704D02*
X13262165Y-14275275D01*
X13262165Y-14275275D02*
X13243117Y-14294323D01*
X13243117Y-14294323D02*
X13224069Y-14303847D01*
X13528831Y-14446704D02*
X13414546Y-14446704D01*
X13471688Y-14446704D02*
X13471688Y-14246704D01*
X13471688Y-14246704D02*
X13452641Y-14275275D01*
X13452641Y-14275275D02*
X13433593Y-14294323D01*
X13433593Y-14294323D02*
X13414546Y-14303847D01*
X13643117Y-14332418D02*
X13624069Y-14322894D01*
X13624069Y-14322894D02*
X13614546Y-14313370D01*
X13614546Y-14313370D02*
X13605022Y-14294323D01*
X13605022Y-14294323D02*
X13605022Y-14284799D01*
X13605022Y-14284799D02*
X13614546Y-14265751D01*
X13614546Y-14265751D02*
X13624069Y-14256228D01*
X13624069Y-14256228D02*
X13643117Y-14246704D01*
X13643117Y-14246704D02*
X13681212Y-14246704D01*
X13681212Y-14246704D02*
X13700260Y-14256228D01*
X13700260Y-14256228D02*
X13709784Y-14265751D01*
X13709784Y-14265751D02*
X13719307Y-14284799D01*
X13719307Y-14284799D02*
X13719307Y-14294323D01*
X13719307Y-14294323D02*
X13709784Y-14313370D01*
X13709784Y-14313370D02*
X13700260Y-14322894D01*
X13700260Y-14322894D02*
X13681212Y-14332418D01*
X13681212Y-14332418D02*
X13643117Y-14332418D01*
X13643117Y-14332418D02*
X13624069Y-14341942D01*
X13624069Y-14341942D02*
X13614546Y-14351466D01*
X13614546Y-14351466D02*
X13605022Y-14370513D01*
X13605022Y-14370513D02*
X13605022Y-14408608D01*
X13605022Y-14408608D02*
X13614546Y-14427656D01*
X13614546Y-14427656D02*
X13624069Y-14437180D01*
X13624069Y-14437180D02*
X13643117Y-14446704D01*
X13643117Y-14446704D02*
X13681212Y-14446704D01*
X13681212Y-14446704D02*
X13700260Y-14437180D01*
X13700260Y-14437180D02*
X13709784Y-14427656D01*
X13709784Y-14427656D02*
X13719307Y-14408608D01*
X13719307Y-14408608D02*
X13719307Y-14370513D01*
X13719307Y-14370513D02*
X13709784Y-14351466D01*
X13709784Y-14351466D02*
X13700260Y-14341942D01*
X13700260Y-14341942D02*
X13681212Y-14332418D01*
X13909784Y-14446704D02*
X13795498Y-14446704D01*
X13852641Y-14446704D02*
X13852641Y-14246704D01*
X13852641Y-14246704D02*
X13833593Y-14275275D01*
X13833593Y-14275275D02*
X13814546Y-14294323D01*
X13814546Y-14294323D02*
X13795498Y-14303847D01*
X13985974Y-14246704D02*
X13985974Y-14284799D01*
X14062165Y-14246704D02*
X14062165Y-14284799D01*
X14357403Y-14522894D02*
X14347879Y-14513370D01*
X14347879Y-14513370D02*
X14328831Y-14484799D01*
X14328831Y-14484799D02*
X14319308Y-14465751D01*
X14319308Y-14465751D02*
X14309784Y-14437180D01*
X14309784Y-14437180D02*
X14300260Y-14389561D01*
X14300260Y-14389561D02*
X14300260Y-14351466D01*
X14300260Y-14351466D02*
X14309784Y-14303847D01*
X14309784Y-14303847D02*
X14319308Y-14275275D01*
X14319308Y-14275275D02*
X14328831Y-14256228D01*
X14328831Y-14256228D02*
X14347879Y-14227656D01*
X14347879Y-14227656D02*
X14357403Y-14218132D01*
X14519308Y-14313370D02*
X14519308Y-14446704D01*
X14471688Y-14237180D02*
X14424069Y-14380037D01*
X14424069Y-14380037D02*
X14547879Y-14380037D01*
X14776450Y-14446704D02*
X14776450Y-14246704D01*
X14862165Y-14446704D02*
X14862165Y-14341942D01*
X14862165Y-14341942D02*
X14852641Y-14322894D01*
X14852641Y-14322894D02*
X14833593Y-14313370D01*
X14833593Y-14313370D02*
X14805022Y-14313370D01*
X14805022Y-14313370D02*
X14785974Y-14322894D01*
X14785974Y-14322894D02*
X14776450Y-14332418D01*
X14985974Y-14446704D02*
X14966927Y-14437180D01*
X14966927Y-14437180D02*
X14957403Y-14427656D01*
X14957403Y-14427656D02*
X14947879Y-14408608D01*
X14947879Y-14408608D02*
X14947879Y-14351466D01*
X14947879Y-14351466D02*
X14957403Y-14332418D01*
X14957403Y-14332418D02*
X14966927Y-14322894D01*
X14966927Y-14322894D02*
X14985974Y-14313370D01*
X14985974Y-14313370D02*
X15014546Y-14313370D01*
X15014546Y-14313370D02*
X15033593Y-14322894D01*
X15033593Y-14322894D02*
X15043117Y-14332418D01*
X15043117Y-14332418D02*
X15052641Y-14351466D01*
X15052641Y-14351466D02*
X15052641Y-14408608D01*
X15052641Y-14408608D02*
X15043117Y-14427656D01*
X15043117Y-14427656D02*
X15033593Y-14437180D01*
X15033593Y-14437180D02*
X15014546Y-14446704D01*
X15014546Y-14446704D02*
X14985974Y-14446704D01*
X15166927Y-14446704D02*
X15147879Y-14437180D01*
X15147879Y-14437180D02*
X15138355Y-14418132D01*
X15138355Y-14418132D02*
X15138355Y-14246704D01*
X15319308Y-14437180D02*
X15300260Y-14446704D01*
X15300260Y-14446704D02*
X15262165Y-14446704D01*
X15262165Y-14446704D02*
X15243117Y-14437180D01*
X15243117Y-14437180D02*
X15233593Y-14418132D01*
X15233593Y-14418132D02*
X15233593Y-14341942D01*
X15233593Y-14341942D02*
X15243117Y-14322894D01*
X15243117Y-14322894D02*
X15262165Y-14313370D01*
X15262165Y-14313370D02*
X15300260Y-14313370D01*
X15300260Y-14313370D02*
X15319308Y-14322894D01*
X15319308Y-14322894D02*
X15328831Y-14341942D01*
X15328831Y-14341942D02*
X15328831Y-14360989D01*
X15328831Y-14360989D02*
X15233593Y-14380037D01*
X15405022Y-14437180D02*
X15424070Y-14446704D01*
X15424070Y-14446704D02*
X15462165Y-14446704D01*
X15462165Y-14446704D02*
X15481212Y-14437180D01*
X15481212Y-14437180D02*
X15490736Y-14418132D01*
X15490736Y-14418132D02*
X15490736Y-14408608D01*
X15490736Y-14408608D02*
X15481212Y-14389561D01*
X15481212Y-14389561D02*
X15462165Y-14380037D01*
X15462165Y-14380037D02*
X15433593Y-14380037D01*
X15433593Y-14380037D02*
X15414546Y-14370513D01*
X15414546Y-14370513D02*
X15405022Y-14351466D01*
X15405022Y-14351466D02*
X15405022Y-14341942D01*
X15405022Y-14341942D02*
X15414546Y-14322894D01*
X15414546Y-14322894D02*
X15433593Y-14313370D01*
X15433593Y-14313370D02*
X15462165Y-14313370D01*
X15462165Y-14313370D02*
X15481212Y-14322894D01*
X15557403Y-14522894D02*
X15566927Y-14513370D01*
X15566927Y-14513370D02*
X15585974Y-14484799D01*
X15585974Y-14484799D02*
X15595498Y-14465751D01*
X15595498Y-14465751D02*
X15605022Y-14437180D01*
X15605022Y-14437180D02*
X15614546Y-14389561D01*
X15614546Y-14389561D02*
X15614546Y-14351466D01*
X15614546Y-14351466D02*
X15605022Y-14303847D01*
X15605022Y-14303847D02*
X15595498Y-14275275D01*
X15595498Y-14275275D02*
X15585974Y-14256228D01*
X15585974Y-14256228D02*
X15566927Y-14227656D01*
X15566927Y-14227656D02*
X15557403Y-14218132D01*
M02*
