%TF.GenerationSoftware,KiCad,Pcbnew,8.0.7*%
%TF.CreationDate,2025-06-01T16:35:16+09:00*%
%TF.ProjectId,ESP32 RST Monitoring,45535033-3220-4525-9354-204d6f6e6974,rev?*%
%TF.SameCoordinates,Original*%
%TF.FileFunction,Soldermask,Top*%
%TF.FilePolarity,Negative*%
%FSLAX46Y46*%
G04 Gerber Fmt 4.6, Leading zero omitted, Abs format (unit mm)*
G04 Created by KiCad (PCBNEW 8.0.7) date 2025-06-01 16:35:16*
%MOMM*%
%LPD*%
G01*
G04 APERTURE LIST*
G04 Aperture macros list*
%AMRoundRect*
0 Rectangle with rounded corners*
0 $1 Rounding radius*
0 $2 $3 $4 $5 $6 $7 $8 $9 X,Y pos of 4 corners*
0 Add a 4 corners polygon primitive as box body*
4,1,4,$2,$3,$4,$5,$6,$7,$8,$9,$2,$3,0*
0 Add four circle primitives for the rounded corners*
1,1,$1+$1,$2,$3*
1,1,$1+$1,$4,$5*
1,1,$1+$1,$6,$7*
1,1,$1+$1,$8,$9*
0 Add four rect primitives between the rounded corners*
20,1,$1+$1,$2,$3,$4,$5,0*
20,1,$1+$1,$4,$5,$6,$7,0*
20,1,$1+$1,$6,$7,$8,$9,0*
20,1,$1+$1,$8,$9,$2,$3,0*%
G04 Aperture macros list end*
%ADD10R,2.800000X2.800000*%
%ADD11C,2.800000*%
%ADD12RoundRect,0.102000X0.630000X0.630000X-0.630000X0.630000X-0.630000X-0.630000X0.630000X-0.630000X0*%
%ADD13C,1.464000*%
%ADD14R,1.800000X1.800000*%
%ADD15C,1.800000*%
%ADD16RoundRect,0.250000X-0.550000X1.050000X-0.550000X-1.050000X0.550000X-1.050000X0.550000X1.050000X0*%
%ADD17RoundRect,0.102000X-0.704000X-0.704000X0.704000X-0.704000X0.704000X0.704000X-0.704000X0.704000X0*%
%ADD18C,1.612000*%
%ADD19RoundRect,0.250000X-0.550000X1.075000X-0.550000X-1.075000X0.550000X-1.075000X0.550000X1.075000X0*%
%ADD20R,3.000000X3.000000*%
%ADD21C,3.000000*%
%ADD22C,2.400000*%
%ADD23O,2.400000X2.400000*%
%ADD24R,2.000000X4.500000*%
%ADD25O,2.000000X4.000000*%
%ADD26O,4.000000X2.000000*%
%ADD27RoundRect,0.135000X0.315000X0.365000X-0.315000X0.365000X-0.315000X-0.365000X0.315000X-0.365000X0*%
%ADD28RoundRect,0.082500X0.767500X0.192500X-0.767500X0.192500X-0.767500X-0.192500X0.767500X-0.192500X0*%
%ADD29R,1.700000X1.700000*%
%ADD30O,1.700000X1.700000*%
G04 APERTURE END LIST*
D10*
%TO.C,J3*%
X197916800Y-71360000D03*
D11*
X197916800Y-76360000D03*
X197916800Y-81360000D03*
X197916800Y-86360000D03*
%TD*%
D12*
%TO.C,Q1*%
X170354700Y-91161200D03*
D13*
X170354700Y-88621200D03*
X162734700Y-88621200D03*
X162734700Y-91161200D03*
%TD*%
D14*
%TO.C,D2*%
X158521400Y-110515400D03*
D15*
X158521400Y-113055400D03*
%TD*%
D16*
%TO.C,C2*%
X120192800Y-71987000D03*
X120192800Y-75587000D03*
%TD*%
D14*
%TO.C,D4*%
X188849000Y-110718600D03*
D15*
X188849000Y-113258600D03*
%TD*%
D12*
%TO.C,Q4*%
X170329300Y-84886800D03*
D13*
X170329300Y-82346800D03*
X162709300Y-82346800D03*
X162709300Y-84886800D03*
%TD*%
D12*
%TO.C,Q6*%
X170484800Y-97205800D03*
D13*
X170484800Y-94665800D03*
X162864800Y-94665800D03*
X162864800Y-97205800D03*
%TD*%
D17*
%TO.C,U2*%
X126034800Y-70053200D03*
D18*
X126034800Y-72593200D03*
X126034800Y-75133200D03*
X126034800Y-77673200D03*
X126034800Y-80213200D03*
X126034800Y-82753200D03*
X126034800Y-85293200D03*
X126034800Y-87833200D03*
X126034800Y-90373200D03*
X126034800Y-92913200D03*
X126034800Y-95453200D03*
X126034800Y-97993200D03*
X126034800Y-100533200D03*
X126034800Y-103073200D03*
X126034800Y-105613200D03*
X126034800Y-108153200D03*
X126034800Y-110693200D03*
X126034800Y-113233200D03*
X126034800Y-115773200D03*
X151434800Y-70053200D03*
X151434800Y-72593200D03*
X151434800Y-75133200D03*
X151434800Y-77673200D03*
X151434800Y-80213200D03*
X151434800Y-82753200D03*
X151434800Y-85293200D03*
X151434800Y-87833200D03*
X151434800Y-90373200D03*
X151434800Y-92913200D03*
X151434800Y-95453200D03*
X151434800Y-97993200D03*
X151434800Y-100533200D03*
X151434800Y-103073200D03*
X151434800Y-105613200D03*
X151434800Y-108153200D03*
X151434800Y-110693200D03*
X151434800Y-113233200D03*
X151434800Y-115773200D03*
%TD*%
D12*
%TO.C,Q3*%
X170456300Y-66369600D03*
D13*
X170456300Y-63829600D03*
X162836300Y-63829600D03*
X162836300Y-66369600D03*
%TD*%
D19*
%TO.C,C5*%
X157200600Y-91214200D03*
X157200600Y-94564200D03*
%TD*%
%TO.C,C4*%
X157099000Y-80265400D03*
X157099000Y-83615400D03*
%TD*%
%TO.C,C6*%
X157200600Y-67592200D03*
X157200600Y-70942200D03*
%TD*%
D16*
%TO.C,C1*%
X120065800Y-79356400D03*
X120065800Y-82956400D03*
%TD*%
D20*
%TO.C,J1*%
X110363000Y-71475600D03*
D21*
X110363000Y-76555600D03*
%TD*%
D22*
%TO.C,R3*%
X189280800Y-93268800D03*
D23*
X174040800Y-93268800D03*
%TD*%
D22*
%TO.C,R4*%
X189077600Y-68453000D03*
D23*
X173837600Y-68453000D03*
%TD*%
D24*
%TO.C,J2*%
X115724800Y-93014800D03*
D25*
X109524800Y-93014800D03*
D26*
X112524800Y-97714800D03*
%TD*%
D22*
%TO.C,R2*%
X188899800Y-80492600D03*
D23*
X173659800Y-80492600D03*
%TD*%
D12*
%TO.C,Q5*%
X170383200Y-72466200D03*
D13*
X170383200Y-69926200D03*
X162763200Y-69926200D03*
X162763200Y-72466200D03*
%TD*%
D14*
%TO.C,D3*%
X173304200Y-110434200D03*
D15*
X173304200Y-112974200D03*
%TD*%
D27*
%TO.C,SW1*%
X121648800Y-62916400D03*
X117548800Y-62916400D03*
X121648800Y-61316400D03*
X117548800Y-61316400D03*
D28*
X119598800Y-63541400D03*
%TD*%
D12*
%TO.C,Q2*%
X170329300Y-78613000D03*
D13*
X170329300Y-76073000D03*
X162709300Y-76073000D03*
X162709300Y-78613000D03*
%TD*%
D29*
%TO.C,J4*%
X132232000Y-115931400D03*
D30*
X134772000Y-115931400D03*
X137312000Y-115931400D03*
X139852000Y-115931400D03*
X142392000Y-115931400D03*
X144932000Y-115931400D03*
%TD*%
M02*
