%TF.GenerationSoftware,KiCad,Pcbnew,8.0.7*%
%TF.CreationDate,2025-06-01T16:37:25+09:00*%
%TF.ProjectId,ESP32 RST Monitoring,45535033-3220-4525-9354-204d6f6e6974,rev?*%
%TF.SameCoordinates,Original*%
%TF.FileFunction,Drillmap*%
%TF.FilePolarity,Positive*%
%FSLAX45Y45*%
G04 Gerber Fmt 4.5, Leading zero omitted, Abs format (unit mm)*
G04 Created by KiCad (PCBNEW 8.0.7) date 2025-06-01 16:37:25*
%MOMM*%
%LPD*%
G01*
G04 APERTURE LIST*
%ADD10C,0.050000*%
%ADD11C,0.200000*%
G04 APERTURE END LIST*
D10*
X10784840Y-6065520D02*
X20129500Y-6065520D01*
X20129500Y-11856720D01*
X10784840Y-11856720D01*
X10784840Y-6065520D01*
D11*
X11043117Y-12170704D02*
X11043117Y-11970704D01*
X11043117Y-11970704D02*
X11090736Y-11970704D01*
X11090736Y-11970704D02*
X11119307Y-11980228D01*
X11119307Y-11980228D02*
X11138355Y-11999275D01*
X11138355Y-11999275D02*
X11147879Y-12018323D01*
X11147879Y-12018323D02*
X11157403Y-12056418D01*
X11157403Y-12056418D02*
X11157403Y-12084989D01*
X11157403Y-12084989D02*
X11147879Y-12123085D01*
X11147879Y-12123085D02*
X11138355Y-12142132D01*
X11138355Y-12142132D02*
X11119307Y-12161180D01*
X11119307Y-12161180D02*
X11090736Y-12170704D01*
X11090736Y-12170704D02*
X11043117Y-12170704D01*
X11243117Y-12170704D02*
X11243117Y-12037370D01*
X11243117Y-12075466D02*
X11252641Y-12056418D01*
X11252641Y-12056418D02*
X11262164Y-12046894D01*
X11262164Y-12046894D02*
X11281212Y-12037370D01*
X11281212Y-12037370D02*
X11300260Y-12037370D01*
X11366926Y-12170704D02*
X11366926Y-12037370D01*
X11366926Y-11970704D02*
X11357402Y-11980228D01*
X11357402Y-11980228D02*
X11366926Y-11989751D01*
X11366926Y-11989751D02*
X11376450Y-11980228D01*
X11376450Y-11980228D02*
X11366926Y-11970704D01*
X11366926Y-11970704D02*
X11366926Y-11989751D01*
X11490736Y-12170704D02*
X11471688Y-12161180D01*
X11471688Y-12161180D02*
X11462164Y-12142132D01*
X11462164Y-12142132D02*
X11462164Y-11970704D01*
X11595498Y-12170704D02*
X11576450Y-12161180D01*
X11576450Y-12161180D02*
X11566926Y-12142132D01*
X11566926Y-12142132D02*
X11566926Y-11970704D01*
X11824069Y-12170704D02*
X11824069Y-11970704D01*
X11824069Y-11970704D02*
X11890736Y-12113561D01*
X11890736Y-12113561D02*
X11957402Y-11970704D01*
X11957402Y-11970704D02*
X11957402Y-12170704D01*
X12138355Y-12170704D02*
X12138355Y-12065942D01*
X12138355Y-12065942D02*
X12128831Y-12046894D01*
X12128831Y-12046894D02*
X12109783Y-12037370D01*
X12109783Y-12037370D02*
X12071688Y-12037370D01*
X12071688Y-12037370D02*
X12052641Y-12046894D01*
X12138355Y-12161180D02*
X12119307Y-12170704D01*
X12119307Y-12170704D02*
X12071688Y-12170704D01*
X12071688Y-12170704D02*
X12052641Y-12161180D01*
X12052641Y-12161180D02*
X12043117Y-12142132D01*
X12043117Y-12142132D02*
X12043117Y-12123085D01*
X12043117Y-12123085D02*
X12052641Y-12104037D01*
X12052641Y-12104037D02*
X12071688Y-12094513D01*
X12071688Y-12094513D02*
X12119307Y-12094513D01*
X12119307Y-12094513D02*
X12138355Y-12084989D01*
X12233593Y-12037370D02*
X12233593Y-12237370D01*
X12233593Y-12046894D02*
X12252641Y-12037370D01*
X12252641Y-12037370D02*
X12290736Y-12037370D01*
X12290736Y-12037370D02*
X12309783Y-12046894D01*
X12309783Y-12046894D02*
X12319307Y-12056418D01*
X12319307Y-12056418D02*
X12328831Y-12075466D01*
X12328831Y-12075466D02*
X12328831Y-12132608D01*
X12328831Y-12132608D02*
X12319307Y-12151656D01*
X12319307Y-12151656D02*
X12309783Y-12161180D01*
X12309783Y-12161180D02*
X12290736Y-12170704D01*
X12290736Y-12170704D02*
X12252641Y-12170704D01*
X12252641Y-12170704D02*
X12233593Y-12161180D01*
X12414545Y-12151656D02*
X12424069Y-12161180D01*
X12424069Y-12161180D02*
X12414545Y-12170704D01*
X12414545Y-12170704D02*
X12405022Y-12161180D01*
X12405022Y-12161180D02*
X12414545Y-12151656D01*
X12414545Y-12151656D02*
X12414545Y-12170704D01*
X12414545Y-12046894D02*
X12424069Y-12056418D01*
X12424069Y-12056418D02*
X12414545Y-12065942D01*
X12414545Y-12065942D02*
X12405022Y-12056418D01*
X12405022Y-12056418D02*
X12414545Y-12046894D01*
X12414545Y-12046894D02*
X12414545Y-12065942D01*
M02*
